<svg width="24" height="24" viewBox="0 0 24 24" fill="none" xmlns="http://www.w3.org/2000/svg">
<path d="M7.17011 3.32841C7.17011 1.59375 8.57645 0.1875 10.3111 0.1875C12.0458 0.1875 13.452 1.59375 13.452 3.32841C13.452 5.06306 12.0458 6.46931 10.3111 6.46931C8.57636 6.46941 7.17011 5.06306 7.17011 3.32841ZM21.598 20.118L19.3829 20.1198V21.2266H18.6445V20.1198H14.9527V21.2266H14.2143V20.1198H11.9993V23.8099H21.598V20.118ZM14.6568 16.43V11.9638C14.6568 11.7262 14.8095 11.5649 15.0557 11.5649C15.2934 11.5649 15.4546 11.7176 15.4546 11.9638V17.1644H11.9993V19.3813L21.598 19.3795V17.1644H18.2216L18.2215 11.166C18.2215 8.98462 16.4391 7.21069 14.2662 7.21069H13.4684L11.0493 10.8265L10.6801 7.98872L11.0493 7.20225H9.57273L9.94192 7.98872L9.57273 10.8265L7.28936 7.21078H6.3557C4.17433 7.21078 2.40039 8.99325 2.40039 11.1661V21.735C2.40039 22.4992 3.0198 23.1186 3.78395 23.1186C4.54811 23.1186 5.16752 22.4992 5.16752 21.735V11.9639H5.15889C5.15889 11.7245 5.31395 11.5626 5.56323 11.565C5.78186 11.5671 5.9568 11.7496 5.9568 11.9682L5.95548 23.8099L11.2609 23.8125V16.43H14.6568Z" fill="#042CB0"/>
</svg>
