<svg width="24" height="24" viewBox="0 0 24 24" fill="none" xmlns="http://www.w3.org/2000/svg">
<g clip-path="url(#clip0_5304_130514)">
<path fill-rule="evenodd" clip-rule="evenodd" d="M10.8026 0H10.5359C9.51119 0.00246461 8.52912 0.410636 7.80451 1.13524C7.07991 1.85985 6.67174 2.84192 6.66927 3.86667V5.46667C6.67174 6.49141 7.07991 7.47348 7.80451 8.19809C8.52912 8.9227 9.51119 9.33087 10.5359 9.33333H10.8026C11.8274 9.33087 12.8094 8.9227 13.534 8.19809C14.2586 7.47348 14.6668 6.49141 14.6693 5.46667V3.86667C14.6668 2.84192 14.2586 1.85985 13.534 1.13524C12.8094 0.410636 11.8274 0.00246461 10.8026 0ZM12.3706 19.632C11.9929 19.2536 11.7001 18.7991 11.5119 18.2987C11.1789 17.8878 10.9361 17.4114 10.7994 16.9005C10.6627 16.3896 10.6352 15.8556 10.7186 15.3333C10.6335 14.8093 10.6606 14.2732 10.798 13.7604C10.9355 13.2476 11.1802 12.7699 11.5159 12.3587C11.7026 11.8613 11.9959 11.4093 12.3706 11.0333C12.3866 11.0173 12.4066 11.0067 12.4239 10.9907C11.8618 10.7833 11.2684 10.6737 10.6693 10.6667C9.25608 10.6709 7.90198 11.2341 6.9027 12.2334C5.90342 13.2327 5.34016 14.5868 5.33594 16V19.556C5.33628 19.7889 5.38263 20.0193 5.4723 20.2342C5.56197 20.4491 5.69321 20.6442 5.85848 20.8082C6.02375 20.9723 6.2198 21.102 6.43536 21.1901C6.65092 21.2781 6.88176 21.3227 7.1146 21.3213L12.6693 21.3333V19.9C12.565 19.816 12.4654 19.7265 12.3706 19.632ZM19.9653 14.4533C19.9244 14.3039 19.8537 14.1642 19.7575 14.0428C19.6612 13.9214 19.5414 13.8206 19.4053 13.7467C19.4124 13.593 19.3872 13.4396 19.3313 13.2964C19.2754 13.1531 19.1899 13.0232 19.0806 12.9151C18.9712 12.8069 18.8403 12.723 18.6964 12.6687C18.5525 12.6145 18.3988 12.591 18.2453 12.6C18.1757 12.463 18.078 12.3424 17.9585 12.2458C17.839 12.1493 17.7005 12.0792 17.5519 12.04C17.4039 12.0011 17.2495 11.9928 17.0982 12.0157C16.9468 12.0387 16.8018 12.0923 16.6719 12.1733C16.5421 12.0923 16.397 12.0387 16.2457 12.0157C16.0944 11.9928 15.94 12.0011 15.7919 12.04C15.6434 12.0792 15.5049 12.1493 15.3854 12.2458C15.2659 12.3424 15.1682 12.463 15.0986 12.6C14.9438 12.5904 14.7887 12.6139 14.6436 12.6688C14.4986 12.7237 14.3668 12.8089 14.2571 12.9185C14.1475 13.0282 14.0623 13.16 14.0074 13.305C13.9525 13.4501 13.9291 13.6052 13.9386 13.76C13.8017 13.8296 13.681 13.9273 13.5845 14.0468C13.4879 14.1663 13.4178 14.3048 13.3786 14.4533C13.3396 14.6013 13.3313 14.7558 13.3542 14.9071C13.3772 15.0585 13.4308 15.2035 13.5119 15.3333C13.4301 15.464 13.3761 15.6102 13.3533 15.7627C13.3305 15.9152 13.3394 16.0708 13.3794 16.2197C13.4195 16.3686 13.4898 16.5076 13.586 16.6281C13.6822 16.7486 13.8023 16.848 13.9386 16.92C13.9314 17.0736 13.9566 17.227 14.0126 17.3703C14.0685 17.5136 14.1539 17.6435 14.2633 17.7516C14.3727 17.8597 14.5036 17.9436 14.6475 17.9979C14.7914 18.0522 14.9451 18.0756 15.0986 18.0667C15.1519 18.1867 15.2333 18.2933 15.3386 18.3733V23.8133C15.3386 23.86 15.3533 23.9067 15.3786 23.9467C15.3937 23.9635 15.4122 23.977 15.4329 23.9862C15.4536 23.9954 15.476 24.0002 15.4986 24.0002C15.5212 24.0002 15.5436 23.9954 15.5643 23.9862C15.585 23.977 15.6035 23.9635 15.6186 23.9467L16.6719 22.88L17.7253 23.9467C17.7519 23.9773 17.7919 23.9973 17.8319 24C17.8567 24.0013 17.8815 23.9972 17.9045 23.988C17.9275 23.9788 17.9483 23.9647 17.9653 23.9467C17.9906 23.9067 18.0044 23.8606 18.0053 23.8133V18.3733C18.1106 18.2933 18.1919 18.1867 18.2453 18.0667C18.4001 18.0762 18.5552 18.0528 18.7002 17.9978C18.8453 17.9429 18.977 17.8578 19.0867 17.7481C19.1964 17.6384 19.2815 17.5067 19.3364 17.3616C19.3914 17.2166 19.4148 17.0615 19.4053 16.9067C19.5422 16.8371 19.6629 16.7394 19.7594 16.6199C19.8559 16.5004 19.9261 16.3618 19.9653 16.2133C20.0043 16.0653 20.0126 15.9109 19.9897 15.7595C19.9667 15.6082 19.913 15.4631 19.8319 15.3333C19.913 15.2035 19.9667 15.0585 19.9897 14.9071C20.0126 14.7558 20.0043 14.6013 19.9653 14.4533ZM18.1386 15.5067C18.11 15.7646 18.0135 16.0104 17.8589 16.2189C17.7043 16.4274 17.4972 16.5911 17.2586 16.6933C17.0732 16.7726 16.8736 16.8134 16.6719 16.8134C16.4703 16.8134 16.2707 16.7726 16.0853 16.6933C15.8467 16.5911 15.6395 16.4274 15.4849 16.2189C15.3303 16.0104 15.2338 15.7646 15.2053 15.5067C15.2053 15.4533 15.1919 15.3867 15.1919 15.3333C15.1919 15.28 15.2053 15.2133 15.2053 15.16C15.2338 14.902 15.3303 14.6563 15.4849 14.4478C15.6395 14.2393 15.8467 14.0756 16.0853 13.9733C16.4599 13.8133 16.8839 13.8133 17.2586 13.9733C17.4972 14.0756 17.7043 14.2393 17.8589 14.4478C18.0135 14.6563 18.11 14.902 18.1386 15.16C18.1386 15.2133 18.1519 15.28 18.1519 15.3333C18.1519 15.3867 18.1359 15.4533 18.1359 15.5067H18.1386Z" fill="#042CB0"/>
</g>
<defs>
<clipPath id="clip0_5304_130514">
<rect width="24" height="24" fill="white"/>
</clipPath>
</defs>
</svg>
