<svg width="24" height="24" viewBox="0 0 24 24" fill="none" xmlns="http://www.w3.org/2000/svg">
<path d="M11.2403 10.7934C13.6188 10.7934 15.5469 8.86523 15.5469 6.48672C15.5469 4.10821 13.6188 2.18005 11.2403 2.18005C8.86175 2.18005 6.93359 4.10821 6.93359 6.48672C6.93359 8.86523 8.86175 10.7934 11.2403 10.7934Z" fill="#042CB0"/>
<path d="M18.6667 18.6667H14V19.6001H18.6667V18.6667Z" fill="#042CB0"/>
<path d="M10.0001 20V22C10.0001 22.1768 10.0703 22.3464 10.1954 22.4714C10.3204 22.5965 10.49 22.6667 10.6668 22.6667H22.0001C22.1769 22.6667 22.3465 22.5965 22.4715 22.4714C22.5965 22.3464 22.6668 22.1768 22.6668 22V15.3334C22.6668 15.1566 22.5965 14.987 22.4715 14.862C22.3465 14.7369 22.1769 14.6667 22.0001 14.6667H17.3334V13.6867C17.3334 13.5099 17.2632 13.3403 17.1382 13.2153C17.0131 13.0903 16.8436 13.02 16.6668 13.02C16.49 13.02 16.3204 13.0903 16.1954 13.2153C16.0703 13.3403 16.0001 13.5099 16.0001 13.6867V14.6667H14.6668V12.28C13.5339 12.095 12.388 12.0014 11.2401 12C8.70864 11.9893 6.20553 12.5331 3.90677 13.5934C3.52843 13.7719 3.20924 14.0552 2.98709 14.4097C2.76493 14.7642 2.64914 15.175 2.65344 15.5934V20H10.0001ZM21.3334 21.3334H11.3334V16H16.0001V16.28C16.0001 16.4568 16.0703 16.6264 16.1954 16.7514C16.3204 16.8765 16.49 16.9467 16.6668 16.9467C16.8436 16.9467 17.0131 16.8765 17.1382 16.7514C17.2632 16.6264 17.3334 16.4568 17.3334 16.28V16H21.3334V21.3334Z" fill="#042CB0"/>
</svg>
