<svg width="24" height="24" viewBox="0 0 24 24" fill="none" xmlns="http://www.w3.org/2000/svg">
<g clip-path="url(#clip0_5119_148060)">
<path d="M4.5 5.25H0.675C0.3 5.25 0 5.55 0 5.925V12.75C0 13.2 0.3 13.5 0.675 13.5H4.5C5.775 13.5 6.75 14.475 6.75 15.75V7.5C6.75 6.225 5.775 5.25 4.5 5.25Z" fill="#042CB0"/>
<path d="M13.575 5.25H9.75C8.475 5.25 7.5 6.225 7.5 7.5V15.75C7.5 14.475 8.475 13.5 9.75 13.5H13.575C13.95 13.5 14.25 13.2 14.25 12.825V5.925C14.25 5.55 13.95 5.25 13.575 5.25Z" fill="#042CB0"/>
<path d="M23.9234 13.2L21.7484 8.85C21.6734 4.8 18.2984 1.5 14.2484 1.5C12.1484 1.5 10.1984 2.4 8.77344 3.9C9.07344 3.825 9.37344 3.75 9.74844 3.75H13.5734C14.7734 3.75 15.7484 4.725 15.7484 5.925V12.75C15.7484 13.95 14.7734 14.925 13.5734 14.925H9.74844C9.29844 14.925 8.99844 15.225 8.99844 15.675V20.175C8.99844 20.55 9.22344 20.85 9.59844 20.925L17.0984 22.425C17.1734 22.425 17.1734 22.425 17.2484 22.425C17.3984 22.425 17.6234 22.35 17.6984 22.275C17.8484 22.125 17.9984 21.9 17.9984 21.675V18.675H19.4984C20.7734 18.675 21.7484 17.7 21.7484 16.425V14.175H23.2484C23.4734 14.175 23.7734 14.025 23.9234 13.8C24.0734 13.575 23.9984 13.425 23.9234 13.2Z" fill="#042CB0"/>
</g>
<defs>
<clipPath id="clip0_5119_148060">
<rect width="24" height="24" fill="white"/>
</clipPath>
</defs>
</svg>
