<svg width="24" height="24" viewBox="0 0 24 24" fill="none" xmlns="http://www.w3.org/2000/svg">
<mask id="mask0_5304_130440" style="mask-type:alpha" maskUnits="userSpaceOnUse" x="0" y="0" width="24" height="24">
<rect width="24" height="24" fill="#D9D9D9"/>
</mask>
<g mask="url(#mask0_5304_130440)">
<path fill-rule="evenodd" clip-rule="evenodd" d="M2.5904 22.3969C2.984 22.7885 3.45716 22.9844 4.00988 22.9844H14.0593C14.612 22.9844 15.0851 22.7885 15.4787 22.3969C15.8723 22.0052 16.0691 21.5344 16.0691 20.9844V16.9844H14.0593V17.9844H4.00988V5.98437H14.0593V6.98438H16.0691V2.98438C16.0691 2.43437 15.8723 1.96354 15.4787 1.57188C15.0851 1.18021 14.612 0.984375 14.0593 0.984375H4.00988C3.45716 0.984375 2.984 1.18021 2.5904 1.57188C2.1968 1.96354 2 2.43437 2 2.98438V20.9844C2 21.5344 2.1968 22.0052 2.5904 22.3969ZM17.8686 19.3728C18.3439 19.8291 18.9211 20.0573 19.6001 20.0573C20.2791 20.0573 20.8563 19.8291 21.3316 19.3728C21.8069 18.9165 22.0445 18.3625 22.0445 17.7106C22.0445 17.0588 21.8069 16.5047 21.3316 16.0484C20.8563 15.5921 20.2791 15.3639 19.6001 15.3639C19.2878 15.3639 18.989 15.4193 18.7038 15.5302C18.4186 15.641 18.1606 15.7942 17.9297 15.9897L12.1853 12.7826C12.2124 12.7044 12.2328 12.6164 12.2464 12.5186C12.26 12.4208 12.2668 12.3263 12.2668 12.2351C12.2668 12.1438 12.26 12.0493 12.2464 11.9515C12.2328 11.8537 12.2124 11.7657 12.1853 11.6875L17.9297 8.48038C18.1606 8.67594 18.4186 8.82912 18.7038 8.93994C18.989 9.05075 19.2878 9.10616 19.6001 9.10616C20.2791 9.10616 20.8563 8.87801 21.3316 8.42172C21.8069 7.96542 22.0445 7.41135 22.0445 6.7595C22.0445 6.10764 21.8069 5.55357 21.3316 5.09727C20.8563 4.64098 20.2791 4.41283 19.6001 4.41283C18.9211 4.41283 18.3439 4.64098 17.8686 5.09727C17.3933 5.55357 17.1557 6.10764 17.1557 6.7595C17.1557 6.85075 17.1624 6.94527 17.176 7.04305C17.1896 7.14083 17.21 7.22883 17.2371 7.30705L11.4927 10.5142C11.2618 10.3186 11.0038 10.1654 10.7186 10.0546C10.4334 9.94379 10.1347 9.88838 9.82232 9.88838C9.14331 9.88838 8.56615 10.1165 8.09084 10.5728C7.61553 11.0291 7.37788 11.5832 7.37788 12.2351C7.37788 12.8869 7.61553 13.441 8.09084 13.8973C8.56615 14.3536 9.14331 14.5817 9.82232 14.5817C10.1347 14.5817 10.4334 14.5263 10.7186 14.4155C11.0038 14.3047 11.2618 14.1515 11.4927 13.9559L17.2371 17.1631C17.21 17.2413 17.1896 17.3293 17.176 17.4271C17.1624 17.5248 17.1557 17.6193 17.1557 17.7106C17.1557 18.3625 17.3933 18.9165 17.8686 19.3728Z" fill="#042CB0"/>
</g>
</svg>
