<svg width="159" height="147" viewBox="0 0 159 147" fill="none" xmlns="http://www.w3.org/2000/svg">
<path d="M158.143 76.8766C156.188 61.3147 150.043 45.8337 142.048 33.1746C131.648 16.7066 115.031 3.49457 95.3165 1.04601C81.363 -0.687241 65.4524 3.72763 54.6617 13.1971C49.2959 17.9059 45.1609 23.764 42.72 30.4801C40.0788 37.7462 38.9535 46.0729 33.2628 51.7768C26.424 58.6316 16.9793 61.9113 9.91377 68.4542C-5.75179 82.962 -1.17847 109.167 12.0185 123.642C23.8972 136.671 41.5214 134.261 57.3684 136.717C69.3984 138.581 79.8095 145.379 92.1039 146.666C109.892 148.527 128.255 142.559 141.302 130.236C156.492 115.887 160.586 96.3189 158.143 76.8766Z" fill="#E6EAF7"/>
<path d="M114.62 24.1284C114.62 24.1284 115.093 28.3581 115.875 28.4308C115.875 28.4308 115.784 31.7949 115.21 31.9137C114.784 32.0021 113.029 31.8039 112.325 31.2226C111.784 30.7754 111.988 28.8861 112.049 28.4166L111.922 26.4786L114.62 24.1284Z" fill="#FCB373"/>
<path d="M97.3635 83.7209H95.9258L96.3811 61.2158H98.298L97.3635 83.7209Z" fill="#007CFF"/>
<path opacity="0.7" d="M97.3635 83.7209H95.9258L96.3811 61.2158H98.298L97.3635 83.7209Z" fill="white"/>
<g opacity="0.4">
<path d="M109.162 83.7209H107.725L108.18 61.2158H110.097L109.162 83.7209Z" fill="#007CFF"/>
</g>
<path d="M120.952 83.7209H122.39L121.934 61.2158H120.018L120.952 83.7209Z" fill="#007CFF"/>
<g opacity="0.4">
<path d="M120.952 83.7209H122.39L121.934 61.2158H120.018L120.952 83.7209Z" fill="white"/>
</g>
<path d="M121.051 61.2158H97.4492V63.3196H121.051V61.2158Z" fill="#007CFF"/>
<path opacity="0.5" d="M121.051 61.2158H97.4492V63.3196H121.051V61.2158Z" fill="white"/>
<path d="M109.155 83.7209H110.593L110.138 61.2158H108.221L109.155 83.7209Z" fill="#007CFF"/>
<path opacity="0.7" d="M109.155 83.7209H110.593L110.138 61.2158H108.221L109.155 83.7209Z" fill="white"/>
<path d="M122.483 34.5635H118.573C116.52 34.5635 114.342 35.6324 113.765 37.6173C112.134 43.2292 110.9 60.8283 110.9 60.8283H121.366C122.638 60.8283 123.706 59.8645 123.845 58.5912L126.038 38.5621C126.271 36.4284 124.613 34.5635 122.483 34.5635Z" fill="#1A2E35"/>
<path opacity="0.6" d="M122.483 34.5635H118.573C116.52 34.5635 114.342 35.6324 113.765 37.6173C112.134 43.2292 110.9 60.8283 110.9 60.8283H121.366C122.638 60.8283 123.706 59.8645 123.845 58.5912L126.038 38.5621C126.271 36.4284 124.613 34.5635 122.483 34.5635Z" fill="white"/>
<path d="M120.098 34.5635H116.188C114.136 34.5635 111.957 35.6324 111.38 37.6173C109.75 43.2292 108.516 60.8283 108.516 60.8283H118.618C120.096 60.8283 121.338 59.7075 121.5 58.2268L123.653 38.5621C123.887 36.4284 122.229 34.5635 120.098 34.5635Z" fill="#1A2E35"/>
<path opacity="0.5" d="M120.098 34.5635H116.188C114.136 34.5635 111.957 35.6324 111.38 37.6173C109.75 43.2292 108.516 60.8283 108.516 60.8283H118.618C120.096 60.8283 121.338 59.7075 121.5 58.2268L123.653 38.5621C123.887 36.4284 122.229 34.5635 120.098 34.5635Z" fill="white"/>
<path d="M112.185 61.216H96.8882C95.4775 61.216 94.334 60.0637 94.334 58.6424C94.334 57.2211 95.4775 56.0688 96.8882 56.0688H112.185V61.216Z" fill="#1A2E35"/>
<path opacity="0.5" d="M112.185 61.216H96.8882C95.4775 61.216 94.334 60.0637 94.334 58.6424C94.334 57.2211 95.4775 56.0688 96.8882 56.0688H112.185V61.216Z" fill="white"/>
<path d="M121.537 61.216H111.657C110.307 61.216 109.213 60.1136 109.213 58.7537V58.5312C109.213 57.1713 110.307 56.0688 111.657 56.0688H121.537C122.948 56.0688 124.092 57.2211 124.092 58.6424C124.092 60.0637 122.948 61.216 121.537 61.216Z" fill="#1A2E35"/>
<path opacity="0.6" d="M121.537 61.216H111.657C110.307 61.216 109.213 60.1136 109.213 58.7537V58.5312C109.213 57.1713 110.307 56.0688 111.657 56.0688H121.537C122.948 56.0688 124.092 57.2211 124.092 58.6424C124.092 60.0637 122.948 61.216 121.537 61.216Z" fill="white"/>
<path d="M107.194 34.0552C107.194 34.0552 107.535 37.7989 105.78 39.3827C104.183 40.8243 101.605 41.5355 101.605 41.5355L99.3321 40.868C99.1138 40.8039 98.8848 40.8715 98.7458 41.0414L97.7291 42.2833C97.5261 42.5314 97.5788 42.9109 97.8451 43.1173C97.9709 43.2148 98.1278 43.2592 98.2804 43.2404L99.4574 43.0954C99.4574 43.0954 100.535 43.2965 100.891 43.2698C101.171 43.2488 101.961 42.9682 101.961 42.9682C101.961 42.9682 106.014 42.6167 107.743 40.8747C109.472 39.1327 109.906 35.5183 109.906 35.5183L107.194 34.0552Z" fill="#FCB373"/>
<path d="M95.2559 73.9437L95.52 82.1345H97.3394L98.1905 73.7959L95.2559 73.9437Z" fill="#FCB373"/>
<path d="M95.4907 81.2947L97.5653 81.3055C97.6556 81.3057 97.7338 81.369 97.7533 81.4578L98.182 83.4236C98.2214 83.5978 98.1131 83.7709 97.9404 83.8105C97.9182 83.8156 97.8955 83.8183 97.8728 83.8185C97.0088 83.8014 96.2406 83.7519 95.1649 83.7509C93.8954 83.7483 94.2172 83.902 92.7247 83.9199C91.8254 83.9298 91.6632 82.8995 92.0446 82.8497C93.7902 82.6325 94.2949 82.0968 94.9695 81.469C95.1162 81.3485 95.3017 81.2865 95.4907 81.2947Z" fill="#1A2E35"/>
<path opacity="0.1" d="M97.5219 80.3373L97.7267 78.332H95.3965L95.4611 80.3373H97.5219Z" fill="#1A2E35"/>
<path d="M116.555 43.1578C116.555 43.1578 122.226 56.1379 116.779 56.1379H101.064C101.064 56.1379 100.384 59.59 97.9352 78.5636H95.3065C95.3065 78.5636 94.8671 56.3407 96.3204 53.0266C97.4595 50.429 104.757 48.5721 108.211 47.8905C109.141 47.7071 109.851 46.9495 109.979 46.004L110.746 42.8154L116.555 43.1578Z" fill="#1A2E35"/>
<path d="M116.555 43.1578C116.555 43.1578 122.226 56.1379 116.779 56.1379H101.064C101.064 56.1379 100.384 59.59 97.9352 78.5636H95.3065C95.3065 78.5636 94.8671 56.3407 96.3204 53.0266C97.4595 50.429 104.757 48.5721 108.211 47.8905C109.141 47.7071 109.851 46.9495 109.979 46.004L110.746 42.8154L116.555 43.1578Z" fill="#263238"/>
<path d="M94.8027 78.1099L95.0133 79.5515H98.1366L98.4251 78.1099H94.8027Z" fill="#1A2E35"/>
<path opacity="0.2" d="M94.8027 78.1099L95.0133 79.5515H98.1366L98.4251 78.1099H94.8027Z" fill="white"/>
<path d="M100.721 73.947L101.024 82.0287L102.767 82.0265L104.015 73.7988L100.721 73.947Z" fill="#FCB373"/>
<path opacity="0.1" d="M103.022 80.3373L103.327 78.332H100.885L100.96 80.3373H103.022Z" fill="#1A2E35"/>
<path d="M101.065 81.2947L103.14 81.3055C103.23 81.3057 103.308 81.369 103.328 81.4578L103.756 83.4236C103.796 83.5978 103.687 83.7709 103.515 83.8105C103.492 83.8156 103.47 83.8183 103.447 83.8185C102.583 83.8014 101.815 83.7519 100.739 83.7509C99.4697 83.7483 99.7914 83.902 98.2989 83.9199C97.3996 83.9298 97.2374 82.8995 97.6188 82.8497C99.3644 82.6325 99.8692 82.0968 100.544 81.469C100.69 81.3485 100.876 81.2865 101.065 81.2947H101.065Z" fill="#1A2E35"/>
<path d="M119.42 43.384C119.42 43.384 119.827 43.384 120.44 46.449C121.219 50.344 122.345 56.1381 118.635 56.1381H106.608C106.608 56.1381 106.02 57.5456 103.461 78.5638H100.832C100.832 78.5638 99.3726 56.0735 100.826 52.7594C101.945 50.2068 107.512 49.0396 110.573 48.638C111.445 48.5234 112.169 47.8144 112.191 46.9279C112.215 46.0024 112.082 43.2261 112.082 43.2261L119.42 43.384Z" fill="#263238"/>
<path d="M100.307 78.1099L100.609 79.5515H103.641L103.929 78.1099H100.307Z" fill="#1A2E35"/>
<path opacity="0.2" d="M100.307 78.1099L100.609 79.5515H103.641L103.929 78.1099H100.307Z" fill="white"/>
<path d="M109.128 28.4403C107.663 28.2184 106.833 31.8519 106.758 35.2847L110.235 36.1063C110.235 36.1063 111.87 28.8557 109.128 28.4403Z" fill="#007CFF"/>
<path d="M109.128 28.4403C107.663 28.2184 106.833 31.8519 106.758 35.2847L110.235 36.1063C110.235 36.1063 111.87 28.8557 109.128 28.4403Z" fill="#F8F8F8"/>
<path d="M110.056 45.0112C110.056 45.0112 109.976 42.5773 109.496 39.5014C108.944 35.9697 108.001 32.0021 108.32 29.4898C108.407 28.8121 108.953 28.3433 109.649 28.3433H112.048L113.576 30.9153L115.697 28.4164L119.16 28.3433C119.766 28.3433 120.289 28.9195 120.217 29.5095C119.888 32.2001 119.065 38.9008 120.323 45.2258C120.323 45.2258 113.059 45.8094 110.056 45.0112Z" fill="white"/>
<path d="M113.555 31.2007C113.555 31.2007 112.444 33.7676 112.901 35.9835C113.359 38.1994 114.18 42.9527 114.069 44.0912" stroke="#042CAF" stroke-miterlimit="10"/>
<path opacity="0.1" d="M114.674 24.7362C114.638 24.3699 114.62 24.1284 114.62 24.1284L111.922 26.4786L111.989 27.5009C112.768 27.4424 113.905 26.9349 114.674 24.7362V24.7362Z" fill="black"/>
<path d="M114.837 20.7439C115.054 23.1451 115.199 24.1563 114.193 25.5609C112.68 27.6751 109.707 27.4205 108.781 25.1338C107.947 23.0755 107.73 19.4975 109.895 18.1927C111.437 17.2526 113.443 17.7498 114.376 19.3034C114.639 19.7409 114.797 20.2341 114.837 20.7439Z" fill="#FCB373"/>
<path d="M115.683 22.5382C115.62 23 115.377 23.4175 115.007 23.6986C114.515 24.067 114.05 23.6775 114.003 23.0936C113.961 22.57 114.166 21.7446 114.749 21.6057C115.177 21.5175 115.594 21.7953 115.682 22.2261C115.703 22.329 115.703 22.4351 115.683 22.5382Z" fill="#FCB373"/>
<path d="M118.309 33.1406C118.309 33.1406 118.94 37.4991 117.034 38.727C115.127 39.9548 110.957 41.2294 110.957 41.2294L108.381 40.6791C108.244 40.6498 108.107 40.7067 108.036 40.8228L107.003 42.505C106.928 42.6276 106.942 42.789 107.038 42.9054C107.115 42.9983 107.232 43.0475 107.347 43.0353L108.909 42.8713C108.909 42.8713 109.721 43.0631 109.993 43.0548C110.34 43.0443 111.332 42.7374 111.332 42.7374C111.332 42.7374 117.291 42.1528 119.111 40.3191C120.931 38.4854 121.164 34.6808 121.164 34.6808L118.309 33.1406V33.1406Z" fill="#FCB373"/>
<path d="M119.498 28.425C117.65 28.2031 118.139 32.3673 117.914 35.2848L121.369 35.6771C121.369 35.6771 122.247 28.7551 119.498 28.425Z" fill="#007CFF"/>
<path d="M119.498 28.425C117.65 28.2031 118.139 32.3673 117.914 35.2848L121.369 35.6771C121.369 35.6771 122.247 28.7551 119.498 28.425Z" fill="#F8F8F8"/>
<path d="M114.817 20.2608C116.011 20.2608 116.979 19.2853 116.979 18.082C116.979 16.8788 116.011 15.9033 114.817 15.9033C113.622 15.9033 112.654 16.8788 112.654 18.082C112.654 19.2853 113.622 20.2608 114.817 20.2608Z" fill="#1A2E35"/>
<path d="M113.291 17.4445C113.291 17.4445 112.277 17.2143 111.424 17.7374C112.18 17.4469 112.937 17.6187 112.937 17.6187C114.941 18.2153 114.545 20.0229 114.475 20.4324C114.565 20.3699 114.795 20.5382 114.932 20.549C114.932 20.549 115.557 18.1189 113.291 17.4445Z" fill="#9D212E"/>
<path d="M108.322 20.6854C108.322 20.6854 108.577 19.9537 109.774 19.7409C109.774 19.7409 110.449 18.9441 110.873 18.5275C110.873 18.5275 110.359 19.2684 110.281 19.6789C110.281 19.6789 113.815 21.2548 113.823 22.5537C113.823 22.5537 113.817 22.7868 113.966 22.7841C114.076 22.7822 114.116 22.716 114.126 22.6302C114.126 22.6302 114.248 21.6161 114.962 21.5892C114.962 21.5892 115.362 18.0588 112.084 17.4135C112.084 17.4135 108.787 17.0094 108.322 20.6854Z" fill="#1A2E35"/>
<path d="M75.8465 84.0605H74.4417L73.8262 46.6025H76.4619L75.8465 84.0605Z" fill="#007CFF"/>
<path opacity="0.7" d="M75.8465 84.0605H74.4417L73.8262 46.6025H76.4619L75.8465 84.0605Z" fill="white"/>
<path d="M91.3504 84.0605H89.9455L89.3301 46.6025H91.9659L91.3504 84.0605Z" fill="#007CFF"/>
<path opacity="0.4" d="M91.3504 84.0605H89.9455L89.3301 46.6025H91.9659L91.3504 84.0605Z" fill="white"/>
<path d="M101.651 45.9746H75.1445V48.9043H101.651V45.9746Z" fill="#007CFF"/>
<path opacity="0.3" d="M101.651 45.9746H75.1445V48.9043H101.651V45.9746Z" fill="white"/>
<path d="M117.194 45.9746H101.65V48.9043H117.194V45.9746Z" fill="#007CFF"/>
<path opacity="0.5" d="M117.194 45.9746H101.65V48.9043H117.194V45.9746Z" fill="white"/>
<path d="M117.858 84.0605H116.453L115.838 46.6025H118.474L117.858 84.0605Z" fill="#007CFF"/>
<path opacity="0.4" d="M117.858 84.0605H116.453L115.838 46.6025H118.474L117.858 84.0605Z" fill="white"/>
<path d="M119.877 44.0913H98.0349C97.9218 44.0913 97.8301 44.1837 97.8301 44.2977V46.3961C97.8301 46.5101 97.9218 46.6025 98.0349 46.6025H119.877C119.99 46.6025 120.082 46.5101 120.082 46.3961V44.2977C120.082 44.1837 119.99 44.0913 119.877 44.0913Z" fill="#1A2E35"/>
<path opacity="0.6" d="M119.877 44.0913H98.0349C97.9218 44.0913 97.8301 44.1837 97.8301 44.2977V46.3961C97.8301 46.5101 97.9218 46.6025 98.0349 46.6025H119.877C119.99 46.6025 120.082 46.5101 120.082 46.3961V44.2977C120.082 44.1837 119.99 44.0913 119.877 44.0913Z" fill="white"/>
<path d="M101.088 44.0913H71.8474C71.7343 44.0913 71.6426 44.1837 71.6426 44.2977V46.3961C71.6426 46.5101 71.7343 46.6025 71.8474 46.6025H101.088C101.201 46.6025 101.293 46.5101 101.293 46.3961V44.2977C101.293 44.1837 101.201 44.0913 101.088 44.0913Z" fill="#1A2E35"/>
<path opacity="0.5" d="M101.088 44.0913H71.8474C71.7343 44.0913 71.6426 44.1837 71.6426 44.2977V46.3961C71.6426 46.5101 71.7343 46.6025 71.8474 46.6025H101.088C101.201 46.6025 101.293 46.5101 101.293 46.3961V44.2977C101.293 44.1837 101.201 44.0913 101.088 44.0913Z" fill="white"/>
<path d="M102.352 84.0605H100.947L100.332 46.6025H102.968L102.352 84.0605Z" fill="#007CFF"/>
<path opacity="0.7" d="M102.352 84.0605H100.947L100.332 46.6025H102.968L102.352 84.0605Z" fill="white"/>
<path d="M99.4336 44.0912C99.2049 44.0912 99.0195 43.9045 99.0195 43.674C99.0195 43.4436 99.2049 43.2568 99.4336 43.2568H110.717C110.946 43.2568 111.131 43.4436 111.131 43.674C111.131 43.9045 110.946 44.0912 110.717 44.0912H99.4336Z" fill="#007CFF"/>
<path d="M99.4336 44.0912C99.2049 44.0912 99.0195 43.9045 99.0195 43.674C99.0195 43.4436 99.2049 43.2568 99.4336 43.2568H110.717C110.946 43.2568 111.131 43.4436 111.131 43.674C111.131 43.9045 110.946 44.0912 110.717 44.0912H99.4336Z" fill="#999999"/>
<path d="M100.392 43.3697L98.8897 32.6006C98.8344 32.2044 98.4708 31.8833 98.0777 31.8833H96.6387V44.087H99.7798C100.173 44.087 100.447 43.7658 100.392 43.3697Z" fill="#999999"/>
<path d="M99.1594 44.087H86.4012C86.008 44.087 85.6445 43.7658 85.5892 43.3697L84.0872 32.6006C84.0319 32.2045 84.3058 31.8833 84.699 31.8833H97.4573C97.8504 31.8833 98.214 32.2045 98.2693 32.6006L99.7713 43.3697C99.8266 43.7658 99.5527 44.087 99.1594 44.087Z" fill="#1A2E35"/>
<path d="M99.1594 44.087H86.4012C86.008 44.087 85.6445 43.7658 85.5892 43.3697L84.0872 32.6006C84.0319 32.2045 84.3058 31.8833 84.699 31.8833H97.4573C97.8504 31.8833 98.214 32.2045 98.2693 32.6006L99.7713 43.3697C99.8266 43.7658 99.5527 44.087 99.1594 44.087Z" fill="#A3ABAE"/>
<path d="M92.5521 37.6918C92.6027 38.0539 92.3523 38.3475 91.9929 38.3475C91.6334 38.3475 91.3011 38.0539 91.2506 37.6918C91.2001 37.3297 91.4505 37.0361 91.8099 37.0361C92.1693 37.0361 92.5017 37.3297 92.5521 37.6918Z" fill="white"/>
<path d="M55.9535 44.8497C54.4115 53.9126 65.1519 49.1606 69.4302 49.2683C69.7035 49.2752 69.9686 49.3315 70.2291 49.4308L71.5516 55.179L70.2681 61.1333L67.2733 65.9021H48.6358L35.159 56.7147L31.7363 45.9376L32.699 28.4788L33.1268 25.6768C33.1268 25.6768 33.5546 29.1254 42.9669 28.2632C52.3793 27.4011 59.7575 24.3448 61.8986 27.4011C64.4656 31.0653 56.973 38.857 55.9535 44.8497Z" fill="#8C969A"/>
<path d="M69.9465 59.6811V63.0734L64.5718 65.2557L53.9829 64.6899L51.1992 61.1335L52.3785 59.2744H59.1971L69.9465 59.6811Z" fill="#8C969A"/>
<path d="M52.8169 70.7749H49.5801V85.6201H52.8169V70.7749Z" fill="#1A2E35"/>
<path opacity="0.5" d="M52.8169 70.7749H49.5801V85.6201H52.8169V70.7749Z" fill="white"/>
<path d="M53.6543 84.2705H48.7432L38.7129 86.1824V87.8694H40.7779L48.7432 86.3511H53.6543L61.6195 87.8694H63.6845V86.1824L53.6543 84.2705Z" fill="#1A2E35"/>
<path opacity="0.3" d="M53.6543 84.2705H48.7432L38.7129 86.1824V87.8694H40.7779L48.7432 86.3511H53.6543L61.6195 87.8694H63.6845V86.1824L53.6543 84.2705Z" fill="white"/>
<path d="M61.62 88.6005H63.685C64.3314 88.6005 64.3325 87.5884 63.685 87.5884H61.62C60.9736 87.5884 60.9725 88.6005 61.62 88.6005Z" fill="#263238"/>
<path d="M38.3113 88.6005H40.3764C41.0228 88.6005 41.0239 87.5884 40.3764 87.5884H38.3113C37.665 87.5884 37.6639 88.6005 38.3113 88.6005Z" fill="#263238"/>
<path opacity="0.2" d="M52.8169 70.7749H49.5801V74.1348H52.8169V70.7749Z" fill="black"/>
<path d="M52.4693 31.3662C52.4693 31.3662 54.9494 38.3734 56.9774 38.5318C59.0053 38.6904 61.4879 34.9299 61.4879 34.9299L62.4991 32.2795L64.5375 32.1082V35.433L62.4453 36.4934C62.4453 36.4934 59.2476 41.7893 56.7636 41.6578C54.2796 41.5263 51.772 37.652 51.2644 35.6794C50.9854 34.595 51.171 32.3346 52.4693 31.3662V31.3662Z" fill="#FBB273"/>
<path d="M64.9711 37.1343L65.7057 31.0156L62.8954 30.8252L62.8105 36.9879L64.9711 37.1343Z" fill="#1A2E35"/>
<path opacity="0.5" d="M64.9711 37.1343L65.7057 31.0156L62.8954 30.8252L62.8105 36.9879L64.9711 37.1343Z" fill="white"/>
<path d="M65.7653 30.1362L62.9551 29.9458L62.8964 30.8254L65.7066 31.0158L65.7653 30.1362Z" fill="#007CFF"/>
<path d="M63.0242 29.3453L65.7743 29.5316C65.7909 29.5327 65.8035 29.5472 65.8024 29.564L65.7642 30.1362L62.9539 29.9458L62.9921 29.3736C62.9932 29.3568 63.0076 29.3442 63.0242 29.3453Z" fill="#1A2E35"/>
<path d="M51.8183 37.5342C51.8183 37.5342 49.1593 33.1109 50.8582 31.0141C52.5571 28.9174 55.1517 35.8303 55.1517 35.8303L51.8183 37.5342Z" fill="#007CFF"/>
<path d="M51.8183 37.5342C51.8183 37.5342 49.1593 33.1109 50.8582 31.0141C52.5571 28.9174 55.1517 35.8303 55.1517 35.8303L51.8183 37.5342Z" fill="white"/>
<path d="M51.3027 37.2215L51.8064 37.969L55.5322 36.0277L55.187 35.2437L51.3027 37.2215Z" fill="#042CB0"/>
<path d="M38.495 54.451C38.495 54.451 35.1614 42.7004 39.0691 31.014C39.0691 31.014 44.14 28.6364 51.3713 30.3804C52.2006 30.5804 52.7033 31.4258 52.4909 32.2579C51.7672 35.0917 50.6488 41.8499 53.3498 50.3914C53.3498 50.3914 47.0088 54.2831 38.495 54.451Z" fill="#007CFF"/>
<path d="M38.495 54.451C38.495 54.451 35.1614 42.7004 39.0691 31.014C39.0691 31.014 44.14 28.6364 51.3713 30.3804C52.2006 30.5804 52.7033 31.4258 52.4909 32.2579C51.7672 35.0917 50.6488 41.8499 53.3498 50.3914C53.3498 50.3914 47.0088 54.2831 38.495 54.451Z" fill="#ED7E21"/>
<path d="M44.834 29.7948L47.2822 31.9314L48.7039 30.6627C48.1665 30.2593 48.3137 29.3495 48.6138 28.3669L45.1418 25.605C45.3178 26.902 45.4511 28.682 44.834 29.7948V29.7948Z" fill="#FBB273"/>
<path d="M62.6541 57.375L67.1662 59.2256L66.6565 61.1481L61.8398 60.1482L62.6541 57.375Z" fill="#FFC2BC"/>
<path d="M47.2452 50.8137C47.2452 50.8137 68.8426 43.2755 70.6234 50.2016C72.4041 57.1277 56.0371 61.9053 47.462 61.6143C38.8868 61.3232 47.2452 50.8137 47.2452 50.8137Z" fill="#1A2E35"/>
<path d="M47.2452 50.8137C47.2452 50.8137 68.8426 43.2755 70.6234 50.2016C72.4041 57.1277 56.0371 61.9053 47.462 61.6143C38.8868 61.3232 47.2452 50.8137 47.2452 50.8137Z" fill="black"/>
<path opacity="0.7" d="M63.3017 51.5155L52.8222 58.2461L54.495 61.0117C54.495 61.0117 53.4818 61.3511 52.0801 57.9725L58.5664 53.6524C58.5664 53.6524 56.5351 53.4471 56.5876 53.1262C56.6728 52.6044 61.1291 51.6026 63.1634 51.1716C63.3673 51.1284 63.4774 51.4026 63.3017 51.5155Z" fill="black"/>
<path opacity="0.7" d="M52.4397 57.9489L54.2565 61.0528C51.791 61.4813 49.4225 61.6806 47.4618 61.614C46.548 61.583 45.8281 61.4351 45.2683 61.1971L44.6309 59.966L46.0051 57.0469L52.4397 57.9489H52.4397Z" fill="black"/>
<path d="M52.6244 58.4258L50.584 60.1492L51.521 61.615L54.6268 61.1258L52.6244 58.4258Z" fill="#FFC2BC"/>
<path d="M55.174 61.1777L53.042 57.7925L52.0801 58.4848L53.9237 61.4073L55.174 61.1777Z" fill="#1A2E35"/>
<path opacity="0.3" d="M55.174 61.1777L53.042 57.7925L52.0801 58.4848L53.9237 61.4073L55.174 61.1777Z" fill="white"/>
<path d="M39.6539 58.0234C38.4924 56.0389 36.2505 50.067 41.6405 49.0276C47.0305 47.9883 64.7357 58.0234 64.7357 58.0234L63.9112 60.6348L47.1461 57.8482C47.1461 57.8482 51.8074 62.098 46.7091 61.57C42.6651 61.1511 40.7831 59.9526 39.6539 58.0234Z" fill="#263238"/>
<path d="M64.2999 57.375L63.252 60.7845L64.2999 60.9316L65.2446 57.9863L64.2999 57.375Z" fill="#1A2E35"/>
<path opacity="0.3" d="M64.2999 57.375L63.252 60.7845L64.2999 60.9316L65.2446 57.9863L64.2999 57.375Z" fill="white"/>
<path d="M52.1207 61.5395L51.3855 59.2849C51.3578 59.1999 51.2754 59.1456 51.187 59.1542L49.2338 59.3494C49.0603 59.3654 48.9327 59.52 48.9486 59.6947C48.9507 59.7172 48.9551 59.7393 48.9618 59.7607C49.2408 60.5689 49.5206 61.2769 49.8492 62.2892C50.2383 63.4834 49.9977 63.2274 50.4356 64.6378C50.7004 65.4873 51.7051 65.3262 51.6351 64.952C51.3049 63.2426 51.7412 62.9094 52.1178 62.0831C52.1849 61.9083 52.186 61.7149 52.1207 61.5394L52.1207 61.5395Z" fill="#1A2E35"/>
<path d="M66.7645 59.102L66.006 61.4181C65.9774 61.5053 66.0126 61.601 66.0908 61.6482L67.8237 62.6885C67.9769 62.782 68.1761 62.7327 68.2688 62.5786C68.2807 62.5587 68.2904 62.5377 68.2979 62.5159C68.557 61.6762 68.7547 60.9187 69.0966 59.8797C69.4987 58.6532 69.5424 59.0128 70.035 57.5775C70.3309 56.7123 69.4028 56.2274 69.234 56.5798C68.471 58.196 67.9084 58.203 67.0963 58.6544C66.935 58.7575 66.8169 58.9168 66.7645 59.102Z" fill="#1A2E35"/>
<path d="M63.8068 51.4058H54.0889C53.631 51.4058 53.2598 51.0317 53.2598 50.5703H64.636C64.636 51.0317 64.2648 51.4058 63.8068 51.4058Z" fill="#1A2E35"/>
<path opacity="0.2" d="M63.8068 51.4058H54.0889C53.631 51.4058 53.2598 51.0317 53.2598 50.5703H64.636C64.636 51.0317 64.2648 51.4058 63.8068 51.4058Z" fill="white"/>
<path d="M56.6523 51.4058H49.5929C49.1349 51.4058 48.7637 51.0317 48.7637 50.5703H57.4815C57.4815 51.0317 57.1102 51.4058 56.6523 51.4058Z" fill="#1A2E35"/>
<path opacity="0.5" d="M56.6523 51.4058H49.5929C49.1349 51.4058 48.7637 51.0317 48.7637 50.5703H57.4815C57.4815 51.0317 57.1102 51.4058 56.6523 51.4058Z" fill="white"/>
<path d="M63.8742 51.1505H57.4777C57.3425 51.1505 57.2478 51.016 57.2924 50.8874L60.1375 42.698C60.2159 42.4723 60.4272 42.3213 60.6644 42.3213H67.0609C67.1961 42.3213 67.2909 42.4558 67.2462 42.5845L64.4011 50.7739C64.3228 50.9995 64.1114 51.1505 63.8742 51.1505Z" fill="#1A2E35"/>
<path opacity="0.5" d="M63.8742 51.1505H57.4777C57.3425 51.1505 57.2478 51.016 57.2924 50.8874L60.1375 42.698C60.2159 42.4723 60.4272 42.3213 60.6644 42.3213H67.0609C67.1961 42.3213 67.2909 42.4558 67.2462 42.5845L64.4011 50.7739C64.3228 50.9995 64.1114 51.1505 63.8742 51.1505Z" fill="white"/>
<path d="M64.1242 51.1505H57.7277C57.5925 51.1505 57.4978 51.016 57.5424 50.8874L60.3874 42.698C60.4659 42.4723 60.6772 42.3213 60.9144 42.3213H67.3109C67.4461 42.3213 67.5409 42.4558 67.4962 42.5845L64.6511 50.7739C64.5728 50.9995 64.3614 51.1505 64.1242 51.1505Z" fill="#1A2E35"/>
<path d="M64.1242 51.1505H57.7277C57.5925 51.1505 57.4978 51.016 57.5424 50.8874L60.3874 42.698C60.4659 42.4723 60.6772 42.3213 60.9144 42.3213H67.3109C67.4461 42.3213 67.5409 42.4558 67.4962 42.5845L64.6511 50.7739C64.5728 50.9995 64.3614 51.1505 64.1242 51.1505Z" fill="#A3ABAE"/>
<path d="M63.0623 46.7357C62.9961 47.0495 62.7807 47.3039 62.5811 47.3039C62.3817 47.3039 62.2736 47.0495 62.3398 46.7357C62.406 46.4219 62.6214 46.1675 62.8209 46.1675C63.0204 46.1675 63.1285 46.4219 63.0623 46.7357Z" fill="white"/>
<path d="M41.6874 34.5371C41.6874 34.5371 43.2494 42.2828 44.3025 43.5675C45.3556 44.8523 49.9448 48.3076 49.9448 48.3076L52.6719 47.7307L54.6267 49.3747L53.3488 50.3909L51.8358 49.8177C51.8358 49.8177 50.7474 50.0357 49.3375 50.0357C47.9275 50.0357 42.2037 46.6425 41.069 44.737C39.9343 42.8315 38.3457 35.6666 38.3457 35.6666L41.6874 34.5371Z" fill="#FBB273"/>
<path d="M43.9316 29.8484L44.9036 29.2803L47.2828 31.9314C47.2828 31.9314 45.9748 31.393 45.6072 31.6106C45.2753 31.8072 45.5071 32.6564 45.1221 32.6632C44.2663 32.6781 43.9316 29.8484 43.9316 29.8484V29.8484Z" fill="#007CFF"/>
<path d="M47.2832 31.9312L48.5244 29.4629L49.5387 30.0148C49.5387 30.0148 50.4824 32.4106 49.7614 32.663C49.3227 32.8166 49.1546 31.6961 48.7189 31.5341C48.3698 31.4043 47.2832 31.9312 47.2832 31.9312Z" fill="#007CFF"/>
<path d="M43.9316 29.8484L44.9036 29.2803L47.2828 31.9314C47.2828 31.9314 45.9748 31.393 45.6072 31.6106C45.2753 31.8072 45.5071 32.6564 45.1221 32.6632C44.2663 32.6781 43.9316 29.8484 43.9316 29.8484V29.8484Z" fill="white"/>
<path d="M47.2832 31.9312L48.5244 29.4629L49.5387 30.0148C49.5387 30.0148 50.4824 32.4106 49.7614 32.663C49.3227 32.8166 49.1546 31.6961 48.7189 31.5341C48.3698 31.4043 47.2832 31.9312 47.2832 31.9312Z" fill="white"/>
<path d="M38.4947 38.3912C38.4947 38.3912 36.6874 32.8785 39.0688 31.014C41.4501 29.1494 42.5667 37.3699 42.5667 37.3699L38.4947 38.3912Z" fill="#007CFF"/>
<path d="M38.4947 38.3912C38.4947 38.3912 36.6874 32.8785 39.0688 31.014C41.4501 29.1494 42.5667 37.3699 42.5667 37.3699L38.4947 38.3912Z" fill="white"/>
<path d="M38.0078 37.9184L38.3727 38.8637L42.9333 37.6821L42.7508 36.7368L38.0078 37.9184Z" fill="#042CB0"/>
<path opacity="0.1" d="M45.1998 26.0645C45.1818 25.9064 45.1625 25.7521 45.1426 25.605L48.6145 28.3669C48.4858 28.7883 48.3891 29.1937 48.3579 29.5546C46.2606 29.5729 45.4664 27.2371 45.1998 26.0645Z" fill="black"/>
<path d="M45.7976 21.5748C45.0746 24.0418 44.7146 25.0815 45.4799 26.7435C46.6284 29.273 49.794 29.628 51.2328 27.4282C52.5196 25.4457 53.5081 21.7471 51.4962 19.9263C50.0747 18.6212 47.8723 18.7245 46.577 20.1569C46.211 20.5617 45.944 21.0473 45.7976 21.5748Z" fill="#FBB273"/>
<path d="M44.4821 23.267C44.497 23.7647 44.7075 24.2361 45.0673 24.5774C45.5451 25.0274 46.0898 24.6681 46.2016 24.0548C46.3056 23.503 46.1849 22.6043 45.5842 22.3885C45.1453 22.2398 44.6698 22.4778 44.5222 22.9201C44.485 23.0316 44.4713 23.1498 44.4821 23.267Z" fill="#FBB273"/>
<path d="M31.5215 25.8922C31.5215 25.8922 22.7819 71.0832 51.6296 71.9103C77.9414 72.6647 72.0587 51.0028 70.3474 49.494C68.636 47.9852 75.0535 63.3964 64.4647 63.6119C51.6986 63.8718 49.3835 51.6494 45.1052 51.5417C40.8268 51.4339 34.3558 57.1457 33.7141 46.7997C33.0723 36.4538 36.4415 18.8872 31.5215 25.8922L31.5215 25.8922Z" fill="#007CFF"/>
<path d="M31.5215 25.8922C31.5215 25.8922 22.7819 71.0832 51.6296 71.9103C77.9414 72.6647 72.0587 51.0028 70.3474 49.494C68.636 47.9852 75.0535 63.3964 64.4647 63.6119C51.6986 63.8718 49.3835 51.6494 45.1052 51.5417C40.8268 51.4339 34.3558 57.1457 33.7141 46.7997C33.0723 36.4538 36.4415 18.8872 31.5215 25.8922L31.5215 25.8922Z" fill="#A3ABAE"/>
<path d="M52.6182 22.201C52.6182 22.201 51.1527 22.5557 49.4323 22.0566L49.7521 22.3653C49.7521 22.3653 48.4935 22.4267 47.1006 21.1707C47.1006 21.1707 47.5467 22.0721 46.9736 22.9492C46.4004 23.8262 46.3415 23.6607 46.2184 23.9459C46.2184 23.9459 45.9905 22.5113 45.31 22.3724C45.31 22.3724 44.9604 22.1227 45.0701 20.8864C45.1799 19.6501 45.654 18.9917 46.3943 19.1892C46.3943 19.1892 46.3679 17.7971 47.7332 17.4117L47.5612 17.7709C47.5612 17.7709 49.1511 16.7398 51.7702 17.7269L51.1065 17.8164C51.1065 17.8164 54.3976 19.1373 53.9666 21.8219L53.4964 21.3927C53.4964 21.3927 53.5627 22.8378 52.481 24.4538L52.6182 22.201Z" fill="#1A2E35"/>
<path d="M84.1453 58.7043C84.1453 58.7043 84.4276 58.3747 84.6385 58.3498C84.8493 58.3249 85.1385 58.4145 85.1224 58.6114C85.1064 58.8083 84.5543 59.6376 84.266 59.8041C83.9777 59.9706 84.2815 60.4587 84.2815 60.4587C84.2815 60.4587 85.5271 59.8298 86.05 59.247C86.573 58.6642 86.5108 58.3528 86.1131 58.0752C85.7153 57.7977 84.9316 57.5046 84.6047 57.5999C84.2778 57.6953 83.8845 58.0023 83.8382 58.1256C83.7919 58.249 84.1453 58.7043 84.1453 58.7043H84.1453Z" fill="#EF7E22"/>
<path d="M84.6631 59.9878C84.6631 59.9878 85.4191 60.9824 85.6941 61.2043C85.9691 61.4261 86.3784 61.4989 86.7799 61.6633C87.1814 61.8276 87.4039 61.9618 87.4039 61.9618C87.4039 61.9618 87.5181 61.9559 87.4604 62.1581C87.4026 62.3603 86.8792 63.076 86.556 63.184C86.2327 63.2921 85.8661 63.0832 85.6677 62.9145C85.4694 62.7459 84.6684 61.476 84.5231 61.0653C84.3778 60.6546 84.4572 60.2195 84.4572 60.2195L84.6631 59.9878Z" fill="#EF7E22"/>
<path d="M74.47 56.5959C74.47 56.5959 74.7502 56.4348 74.8349 56.519C74.9197 56.6032 74.9851 57.0461 74.9806 57.1114C74.9806 57.1114 75.2054 56.9021 75.4348 56.7883C75.6641 56.6745 75.793 59.5316 75.793 59.5316L75.0651 60.3419C75.0651 60.3419 74.3864 57.6406 74.47 56.5959Z" fill="#D36C17"/>
<path d="M74.4652 61.4776C74.4652 61.4776 73.8539 58.0626 73.8105 57.0763C73.8105 57.0763 74.3831 56.5346 74.7838 56.4883C74.7838 56.4883 74.6662 56.8574 74.7242 57.2635C74.7823 57.6696 75.2299 60.8793 75.2299 60.8793C75.2299 60.8793 74.8194 61.4458 74.4652 61.4776Z" fill="#EF7E22"/>
<path d="M74.3013 59.2969C74.3013 59.2969 73.2851 59.8321 72.9284 60.2881C72.5717 60.744 72.7251 61.1111 72.7599 61.2107C72.7947 61.3103 73.1397 61.9702 73.2555 62.0622C73.3713 62.1541 73.6641 62.3045 73.9221 61.9007C74.1802 61.497 74.6321 60.5754 74.6321 60.5754L74.5538 59.8776C74.5538 59.8776 74.0548 60.5356 73.8936 60.7608C73.7324 60.9861 73.5558 61.1936 73.3716 61.0844C73.1875 60.9753 73.2336 60.7352 73.3729 60.5184C73.5122 60.3016 74.325 59.6419 74.325 59.6419L74.3013 59.2969Z" fill="#EF7E22"/>
<path d="M76.2198 62.119C76.5299 62.119 76.7813 61.8656 76.7813 61.5531C76.7813 61.2406 76.5299 60.9873 76.2198 60.9873C75.9096 60.9873 75.6582 61.2406 75.6582 61.5531C75.6582 61.8656 75.9096 62.119 76.2198 62.119Z" fill="#1A2E35"/>
<path d="M76.2745 62.7454C76.5846 62.7454 76.836 62.4921 76.836 62.1796C76.836 61.8671 76.5846 61.6138 76.2745 61.6138C75.9643 61.6138 75.7129 61.8671 75.7129 62.1796C75.7129 62.4921 75.9643 62.7454 76.2745 62.7454Z" fill="#1A2E35"/>
<path d="M76.3194 63.4354C76.6295 63.4354 76.8809 63.182 76.8809 62.8695C76.8809 62.557 76.6295 62.3037 76.3194 62.3037C76.0092 62.3037 75.7578 62.557 75.7578 62.8695C75.7578 63.182 76.0092 63.4354 76.3194 63.4354Z" fill="#1A2E35"/>
<path d="M76.3984 64.1002C76.7014 64.1002 76.9471 63.8461 76.9471 63.5328C76.9471 63.2194 76.7014 62.9653 76.3984 62.9653C76.0953 62.9653 75.8496 63.2194 75.8496 63.5328C75.8496 63.8461 76.0953 64.1002 76.3984 64.1002Z" fill="#1A2E35"/>
<path d="M76.5147 64.8348C76.8248 64.8348 77.0763 64.5815 77.0763 64.269C77.0763 63.9565 76.8248 63.7031 76.5147 63.7031C76.2045 63.7031 75.9531 63.9565 75.9531 64.269C75.9531 64.5815 76.2045 64.8348 76.5147 64.8348Z" fill="#1A2E35"/>
<path d="M76.6006 65.5911C76.9108 65.5911 77.1622 65.3378 77.1622 65.0253C77.1622 64.7128 76.9108 64.4595 76.6006 64.4595C76.2905 64.4595 76.0391 64.7128 76.0391 65.0253C76.0391 65.3378 76.2905 65.5911 76.6006 65.5911Z" fill="#1A2E35"/>
<path d="M76.5713 66.3216C76.8815 66.3216 77.1329 66.0683 77.1329 65.7558C77.1329 65.4433 76.8815 65.1899 76.5713 65.1899C76.2612 65.1899 76.0098 65.4433 76.0098 65.7558C76.0098 66.0683 76.2612 66.3216 76.5713 66.3216Z" fill="#1A2E35"/>
<path d="M73.4834 67.0174C73.7936 67.0174 74.045 66.7641 74.045 66.4516C74.045 66.1391 73.7936 65.8857 73.4834 65.8857C73.1733 65.8857 72.9219 66.1391 72.9219 66.4516C72.9219 66.7641 73.1733 67.0174 73.4834 67.0174Z" fill="#1A2E35"/>
<path d="M73.5889 66.3909C73.8991 66.3909 74.1505 66.1376 74.1505 65.8251C74.1505 65.5126 73.8991 65.2593 73.5889 65.2593C73.2788 65.2593 73.0273 65.5126 73.0273 65.8251C73.0273 66.1376 73.2788 66.3909 73.5889 66.3909Z" fill="#1A2E35"/>
<path d="M73.8174 65.6361C74.1276 65.6361 74.379 65.3827 74.379 65.0702C74.379 64.7577 74.1276 64.5044 73.8174 64.5044C73.5073 64.5044 73.2559 64.7577 73.2559 65.0702C73.2559 65.3827 73.5073 65.6361 73.8174 65.6361Z" fill="#1A2E35"/>
<path d="M74.1495 64.8773C74.4596 64.8773 74.711 64.6239 74.711 64.3114C74.711 63.9989 74.4596 63.7456 74.1495 63.7456C73.8393 63.7456 73.5879 63.9989 73.5879 64.3114C73.5879 64.6239 73.8393 64.8773 74.1495 64.8773Z" fill="#1A2E35"/>
<path d="M74.3018 64.2689C74.6119 64.2689 74.8634 64.0155 74.8634 63.703C74.8634 63.3905 74.6119 63.1372 74.3018 63.1372C73.9917 63.1372 73.7402 63.3905 73.7402 63.703C73.7402 64.0155 73.9917 64.2689 74.3018 64.2689Z" fill="#1A2E35"/>
<path d="M74.542 63.5916C74.8522 63.5916 75.1036 63.3383 75.1036 63.0258C75.1036 62.7133 74.8522 62.46 74.542 62.46C74.2319 62.46 73.9805 62.7133 73.9805 63.0258C73.9805 63.3383 74.2319 63.5916 74.542 63.5916Z" fill="#1A2E35"/>
<path d="M74.8116 62.8973C75.1217 62.8973 75.3731 62.644 75.3731 62.3315C75.3731 62.019 75.1217 61.7656 74.8116 61.7656C74.5014 61.7656 74.25 62.019 74.25 62.3315C74.25 62.644 74.5014 62.8973 74.8116 62.8973Z" fill="#1A2E35"/>
<path d="M75.0323 62.3123C75.3424 62.3123 75.5938 62.059 75.5938 61.7465C75.5938 61.434 75.3424 61.1807 75.0323 61.1807C74.7221 61.1807 74.4707 61.434 74.4707 61.7465C74.4707 62.059 74.7221 62.3123 75.0323 62.3123Z" fill="#1A2E35"/>
<path d="M75.2588 61.8553C75.569 61.8553 75.8204 61.602 75.8204 61.2895C75.8204 60.977 75.569 60.7236 75.2588 60.7236C74.9487 60.7236 74.6973 60.977 74.6973 61.2895C74.6973 61.602 74.9487 61.8553 75.2588 61.8553Z" fill="#1A2E35"/>
<path d="M76.4561 67.0174C76.7662 67.0174 77.0177 66.7641 77.0177 66.4516C77.0177 66.1391 76.7662 65.8857 76.4561 65.8857C76.146 65.8857 75.8945 66.1391 75.8945 66.4516C75.8945 66.7641 76.146 67.0174 76.4561 67.0174Z" fill="#1A2E35"/>
<path d="M76.2686 67.6458C76.5787 67.6458 76.8302 67.3925 76.8302 67.08C76.8302 66.7675 76.5787 66.5142 76.2686 66.5142C75.9585 66.5142 75.707 66.7675 75.707 67.08C75.707 67.3925 75.9585 67.6458 76.2686 67.6458Z" fill="#1A2E35"/>
<path d="M75.9522 68.0638C76.2623 68.0638 76.5138 67.8105 76.5138 67.498C76.5138 67.1855 76.2623 66.9321 75.9522 66.9321C75.642 66.9321 75.3906 67.1855 75.3906 67.498C75.3906 67.8105 75.642 68.0638 75.9522 68.0638Z" fill="#1A2E35"/>
<path d="M75.4483 68.3011C75.7584 68.3011 76.0098 68.0478 76.0098 67.7353C76.0098 67.4228 75.7584 67.1694 75.4483 67.1694C75.1381 67.1694 74.8867 67.4228 74.8867 67.7353C74.8867 68.0478 75.1381 68.3011 75.4483 68.3011Z" fill="#1A2E35"/>
<path d="M74.8077 68.3431C75.1178 68.3431 75.3692 68.0898 75.3692 67.7773C75.3692 67.4648 75.1178 67.2114 74.8077 67.2114C74.4975 67.2114 74.2461 67.4648 74.2461 67.7773C74.2461 68.0898 74.4975 68.3431 74.8077 68.3431Z" fill="#1A2E35"/>
<path d="M74.1221 68.1859C74.4323 68.1859 74.6837 67.9325 74.6837 67.62C74.6837 67.3075 74.4323 67.0542 74.1221 67.0542C73.812 67.0542 73.5605 67.3075 73.5605 67.62C73.5605 67.9325 73.812 68.1859 74.1221 68.1859Z" fill="#1A2E35"/>
<path d="M73.5616 67.6458C73.8717 67.6458 74.1231 67.3925 74.1231 67.08C74.1231 66.7675 73.8717 66.5142 73.5616 66.5142C73.2514 66.5142 73 66.7675 73 67.08C73 67.3925 73.2514 67.6458 73.5616 67.6458Z" fill="#1A2E35"/>
<path d="M83.21 61.4715C83.5201 61.4715 83.7716 61.2182 83.7716 60.9057C83.7716 60.5932 83.5201 60.3398 83.21 60.3398C82.8999 60.3398 82.6484 60.5932 82.6484 60.9057C82.6484 61.2182 82.8999 61.4715 83.21 61.4715Z" fill="#1A2E35"/>
<path d="M83.1338 62.096C83.444 62.096 83.6954 61.8427 83.6954 61.5302C83.6954 61.2177 83.444 60.9644 83.1338 60.9644C82.8237 60.9644 82.5723 61.2177 82.5723 61.5302C82.5723 61.8427 82.8237 62.096 83.1338 62.096Z" fill="#1A2E35"/>
<path d="M83.0635 62.783C83.3737 62.783 83.6251 62.5297 83.6251 62.2172C83.6251 61.9047 83.3737 61.6514 83.0635 61.6514C82.7534 61.6514 82.502 61.9047 82.502 62.2172C82.502 62.5297 82.7534 62.783 83.0635 62.783Z" fill="#1A2E35"/>
<path d="M83.5097 62.8976C83.5209 62.5845 83.2845 62.3217 82.9816 62.3106C82.6787 62.2996 82.4241 62.5446 82.4129 62.8577C82.4017 63.1709 82.6381 63.4337 82.941 63.4448C83.2438 63.4558 83.4984 63.2108 83.5097 62.8976Z" fill="#1A2E35"/>
<path d="M82.8174 64.1746C83.1276 64.1746 83.379 63.9213 83.379 63.6088C83.379 63.2963 83.1276 63.043 82.8174 63.043C82.5073 63.043 82.2559 63.2963 82.2559 63.6088C82.2559 63.9213 82.5073 64.1746 82.8174 64.1746Z" fill="#1A2E35"/>
<path d="M82.7061 64.9276C83.0162 64.9276 83.2677 64.6742 83.2677 64.3617C83.2677 64.0492 83.0162 63.7959 82.7061 63.7959C82.396 63.7959 82.1445 64.0492 82.1445 64.3617C82.1445 64.6742 82.396 64.9276 82.7061 64.9276Z" fill="#1A2E35"/>
<path d="M82.708 65.6585C83.0182 65.6585 83.2696 65.4052 83.2696 65.0927C83.2696 64.7802 83.0182 64.5269 82.708 64.5269C82.3979 64.5269 82.1465 64.7802 82.1465 65.0927C82.1465 65.4052 82.3979 65.6585 82.708 65.6585Z" fill="#1A2E35"/>
<path d="M85.7686 66.4661C86.0787 66.4661 86.3302 66.2128 86.3302 65.9003C86.3302 65.5878 86.0787 65.3345 85.7686 65.3345C85.4585 65.3345 85.207 65.5878 85.207 65.9003C85.207 66.2128 85.4585 66.4661 85.7686 66.4661Z" fill="#1A2E35"/>
<path d="M85.6866 65.8362C85.9967 65.8362 86.2481 65.5829 86.2481 65.2704C86.2481 64.9579 85.9967 64.7046 85.6866 64.7046C85.3764 64.7046 85.125 64.9579 85.125 65.2704C85.125 65.5829 85.3764 65.8362 85.6866 65.8362Z" fill="#1A2E35"/>
<path d="M85.4854 65.0736C85.7955 65.0736 86.047 64.8202 86.047 64.5077C86.047 64.1952 85.7955 63.9419 85.4854 63.9419C85.1752 63.9419 84.9238 64.1952 84.9238 64.5077C84.9238 64.8202 85.1752 65.0736 85.4854 65.0736Z" fill="#1A2E35"/>
<path d="M85.1807 64.3035C85.4908 64.3035 85.7423 64.0502 85.7423 63.7377C85.7423 63.4252 85.4908 63.1719 85.1807 63.1719C84.8706 63.1719 84.6191 63.4252 84.6191 63.7377C84.6191 64.0502 84.8706 64.3035 85.1807 64.3035Z" fill="#1A2E35"/>
<path d="M85.0498 63.6898C85.36 63.6898 85.6114 63.4364 85.6114 63.1239C85.6114 62.8114 85.36 62.5581 85.0498 62.5581C84.7397 62.5581 84.4883 62.8114 84.4883 63.1239C84.4883 63.4364 84.7397 63.6898 85.0498 63.6898Z" fill="#1A2E35"/>
<path d="M84.835 63.0042C85.1451 63.0042 85.3966 62.7509 85.3966 62.4384C85.3966 62.1259 85.1451 61.8726 84.835 61.8726C84.5249 61.8726 84.2734 62.1259 84.2734 62.4384C84.2734 62.7509 84.5249 63.0042 84.835 63.0042Z" fill="#1A2E35"/>
<path d="M84.5909 62.3006C84.901 62.3006 85.1524 62.0473 85.1524 61.7348C85.1524 61.4223 84.901 61.1689 84.5909 61.1689C84.2807 61.1689 84.0293 61.4223 84.0293 61.7348C84.0293 62.0473 84.2807 62.3006 84.5909 62.3006Z" fill="#1A2E35"/>
<path d="M84.3897 61.7083C84.6998 61.7083 84.9513 61.455 84.9513 61.1425C84.9513 60.83 84.6998 60.5767 84.3897 60.5767C84.0795 60.5767 83.8281 60.83 83.8281 61.1425C83.8281 61.455 84.0795 61.7083 84.3897 61.7083Z" fill="#1A2E35"/>
<path d="M84.1807 61.243C84.4908 61.243 84.7423 60.9897 84.7423 60.6772C84.7423 60.3647 84.4908 60.1113 84.1807 60.1113C83.8706 60.1113 83.6191 60.3647 83.6191 60.6772C83.6191 60.9897 83.8706 61.243 84.1807 61.243Z" fill="#1A2E35"/>
<path d="M82.7979 66.3582C83.108 66.3582 83.3595 66.1049 83.3595 65.7924C83.3595 65.4799 83.108 65.2266 82.7979 65.2266C82.4877 65.2266 82.2363 65.4799 82.2363 65.7924C82.2363 66.1049 82.4877 66.3582 82.7979 66.3582Z" fill="#1A2E35"/>
<path d="M82.9639 66.9935C83.2741 66.9935 83.5255 66.7401 83.5255 66.4276C83.5255 66.1151 83.2741 65.8618 82.9639 65.8618C82.6538 65.8618 82.4023 66.1151 82.4023 66.4276C82.4023 66.7401 82.6538 66.9935 82.9639 66.9935Z" fill="#1A2E35"/>
<path d="M83.2647 67.4222C83.5748 67.4222 83.8263 67.1689 83.8263 66.8564C83.8263 66.5439 83.5748 66.2905 83.2647 66.2905C82.9545 66.2905 82.7031 66.5439 82.7031 66.8564C82.7031 67.1689 82.9545 67.4222 83.2647 67.4222Z" fill="#1A2E35"/>
<path d="M83.7588 67.6776C84.069 67.6776 84.3204 67.4242 84.3204 67.1117C84.3204 66.7992 84.069 66.5459 83.7588 66.5459C83.4487 66.5459 83.1973 66.7992 83.1973 67.1117C83.1973 67.4242 83.4487 67.6776 83.7588 67.6776Z" fill="#1A2E35"/>
<path d="M84.3975 67.743C84.7076 67.743 84.9591 67.4897 84.9591 67.1772C84.9591 66.8647 84.7076 66.6113 84.3975 66.6113C84.0874 66.6113 83.8359 66.8647 83.8359 67.1772C83.8359 67.4897 84.0874 67.743 84.3975 67.743Z" fill="#1A2E35"/>
<path d="M85.0889 67.6107C85.3991 67.6107 85.6505 67.3573 85.6505 67.0448C85.6505 66.7323 85.3991 66.479 85.0889 66.479C84.7788 66.479 84.5273 66.7323 84.5273 67.0448C84.5273 67.3573 84.7788 67.6107 85.0889 67.6107Z" fill="#1A2E35"/>
<path d="M85.669 67.0916C85.9791 67.0916 86.2306 66.8383 86.2306 66.5258C86.2306 66.2133 85.9791 65.96 85.669 65.96C85.3588 65.96 85.1074 66.2133 85.1074 66.5258C85.1074 66.8383 85.3588 67.0916 85.669 67.0916Z" fill="#1A2E35"/>
<path d="M76.6406 62.1592L80.2937 64.5543C80.2803 67.1378 82.1329 67.0017 82.1329 67.0017C82.1329 67.0017 83.9242 69.7677 81.691 70.0995C79.458 70.4312 76.9271 68.478 76.9271 68.478C78.0402 67.1365 77.1956 63.9147 76.6406 62.1592H76.6406Z" fill="#FBB273"/>
<path opacity="0.1" d="M80.5465 65.9559C80.3924 65.6123 80.2904 65.1604 80.2936 64.5543L77.0345 62.4175L76.8301 62.7836C76.8301 62.7836 78.0658 66.1006 80.5465 65.9559Z" fill="black"/>
<path d="M75.5843 58.2179C75.956 61.2204 76.0477 62.4992 77.6538 63.95C80.0702 66.1339 83.6476 65.0196 84.1762 61.966C84.6512 59.2178 83.966 54.7725 80.9658 53.7569C78.8256 53.0202 76.4979 54.1711 75.7668 56.3274C75.5609 56.9347 75.4984 57.582 75.5843 58.2179Z" fill="#FBB273"/>
<path d="M75.0246 60.6457C75.2253 61.1948 75.6343 61.641 76.1617 61.886C76.8632 62.2048 77.3293 61.602 77.2318 60.8734C77.1444 60.2201 76.6736 59.2636 75.9218 59.2505C75.3742 59.2578 74.9362 59.711 74.9434 60.2627C74.9452 60.3945 74.9728 60.5247 75.0246 60.6457Z" fill="#FBB273"/>
<path d="M83.4097 56.0443C83.4097 56.0443 82.8733 55.2671 81.3676 55.4078C81.3676 55.4078 80.3057 54.6912 79.666 54.3395C79.666 54.3395 80.5166 55.0429 80.7397 55.5001C80.7397 55.5001 76.9892 58.5072 77.3884 60.0371C77.3884 60.0371 77.3753 60.534 77.0481 60.2262C77.0481 60.2262 76.582 59.0735 75.7155 59.2751C75.7155 59.2751 74.1248 55.2539 77.8596 53.4251C77.8596 53.4251 81.6949 51.8732 83.4097 56.0443H83.4097Z" fill="#1A2E35"/>
<path d="M85.7411 69.4196C86.2691 69.3893 88.287 70.4506 89.5045 75.8186C90.7221 81.1867 90.4512 82.9872 99.8996 82.3769L99.5923 85.05C99.5923 85.05 91.4054 85.9349 88.9629 83.9582C86.529 81.9886 83.7911 69.5314 85.7411 69.4196Z" fill="#FBB273"/>
<path d="M72.4771 69.478C72.4771 69.478 72.2807 70.3045 72.2873 70.8519C72.2938 71.3992 73.6551 70.1001 73.6682 70.1199C73.6813 70.1397 72.4771 69.478 72.4771 69.478Z" fill="#042CAF"/>
<path d="M62.8086 116.275C62.8086 124.994 77.3673 127.126 95.3263 127.126C113.285 127.126 120.496 124.994 120.496 116.275C120.496 107.557 115.426 96.958 97.467 96.958C79.508 96.958 62.8086 107.557 62.8086 116.275Z" fill="#007CFF"/>
<path d="M62.8086 116.275C62.8086 124.994 77.3673 127.126 95.3263 127.126C113.285 127.126 120.496 124.994 120.496 116.275C120.496 107.557 115.426 96.958 97.467 96.958C79.508 96.958 62.8086 107.557 62.8086 116.275Z" fill="#A3ABAE"/>
<path d="M60.4597 104.059C59.7989 116.048 63.0885 122.52 70.5893 122.94C78.0901 123.36 84.7065 113.981 85.3673 101.992C86.0281 90.0032 78.4725 80.82 70.9717 80.4003C63.4709 79.9805 61.1205 92.0696 60.4597 104.059Z" fill="#007CFF"/>
<path d="M60.4597 104.059C59.7989 116.048 63.0885 122.52 70.5893 122.94C78.0901 123.36 84.7065 113.981 85.3673 101.992C86.0281 90.0032 78.4725 80.82 70.9717 80.4003C63.4709 79.9805 61.1205 92.0696 60.4597 104.059Z" fill="#A3ABAE"/>
<path d="M97.0958 97.9884C97.0958 97.9884 104.076 97.0976 104.692 99.5793C105.308 102.061 93.1806 100.696 90.7469 103.178C88.3132 105.659 98.6578 106.934 96.4053 108.42C94.6367 109.586 88.5969 104.294 80.8813 106.28C73.1658 108.265 72.0656 102.402 72.9235 96.9579C73.7815 91.5137 74.409 85.6596 76.743 86.105C79.0769 86.5503 86.667 97.2661 97.0958 97.9884V97.9884Z" fill="#8C969A"/>
<path d="M63.7466 119.742C61.7166 117.347 60.6176 113.629 60.416 108.651C61.3463 118.132 66.8069 124.274 88.6186 125.265C110.475 126.257 115.283 119.681 117.623 120.467C118.605 120.797 118.609 121.704 118.285 122.645C114.954 126.115 107.685 127.125 95.3265 127.125C80.0407 127.125 67.2252 125.578 63.7466 119.742Z" fill="#8C969A"/>
<path d="M86.4949 78.8059C84.7371 74.4914 83.489 67.1943 84.9794 67.1088C85.5074 67.0785 87.3129 67.366 89.2409 72.5183C89.7686 73.9285 90.3748 74.9544 90.611 75.7913" fill="#042CB0"/>
<path opacity="0.6" d="M87.6493 71.9448L88.4396 73.8901C88.6665 74.4488 88.7043 75.0666 88.5482 75.6494C88.1429 77.1629 87.4205 80.2762 87.7753 82.1045C87.6443 81.9898 87.5236 81.8721 87.4223 81.7491C86.886 81.0971 86.4809 79.6929 86.2109 77.9987L87.6493 71.9448Z" fill="#031F7C"/>
<path d="M83.5449 86.2709L87.2552 84.832C87.2552 84.832 89.2056 87.0003 90.4167 89.5835C91.6279 92.1667 85.797 92.1666 85.797 92.1666L83.9614 88.6948L83.5449 86.2709Z" fill="#007CFF"/>
<path opacity="0.3" d="M83.5449 86.2709L87.2552 84.832C87.2552 84.832 89.2056 87.0003 90.4167 89.5835C91.6279 92.1667 85.797 92.1666 85.797 92.1666L83.9614 88.6948L83.5449 86.2709Z" fill="black"/>
<path opacity="0.2" d="M85.7017 85.4346C86.7539 91.2859 88.6321 90.2397 88.6321 90.2397L87.8091 91.4635L85.5768 91.7501L83.9615 88.6949L83.5449 86.271L85.7017 85.4346H85.7017Z" fill="black"/>
<path opacity="0.1" d="M121.247 109.886L123.445 108.311L120.876 104.399L118.418 106.483L121.247 109.886Z" fill="black"/>
<path opacity="0.2" d="M107.274 92.8832C106.989 92.2981 106.606 91.8787 106.172 91.5796C107.488 92.2794 109.336 93.9704 109.556 97.9881C109.555 97.9883 109.556 97.9885 109.556 97.9885C109.031 97.4898 108.538 97.0323 108.067 96.6025C107.823 94.805 107.558 93.4652 107.274 92.8832Z" fill="black"/>
<path opacity="0.2" d="M101.297 91.3455C101.297 91.3455 101.973 91.0947 102.889 90.978C102.358 92.0111 100.424 95.4973 96.8452 99.0762L89.7617 101.823C92.8577 99.6779 96.6427 96.3134 101.297 91.3455V91.3455Z" fill="black"/>
<path d="M88.3852 85.8718C88.3852 85.8718 87.2847 87.675 75.6264 89.4625C75.6264 89.4625 76.141 85.8343 74.912 80.6406C73.683 75.4468 69.1296 70.5649 73.5699 69.3057C74.68 68.9909 75.8501 68.5712 77.2047 68.1945C77.2047 68.1945 81.1457 70.605 81.7424 70.3575C82.3358 70.1113 81.2589 67.2055 81.2589 67.2055C83.9514 66.6924 86.0051 66.799 86.3464 68.2579C87.0034 71.0667 88.2097 72.2933 88.1587 74.5333C88.1076 76.7734 86.4926 78.399 88.3852 85.8718Z" fill="#042CB0"/>
<path opacity="0.6" d="M74.873 80.3282L79.6012 80.2202L81.1449 79.1621L82.8895 78.3848L83.1188 79.0065C83.1188 79.0065 77.7037 85.3553 75.6078 84.7976C75.4973 83.8461 75.2161 82.0841 74.873 80.3282Z" fill="#031F7C"/>
<path d="M95.3812 108.562C95.3812 108.562 93.2895 103.514 91.0448 103.38C89.7032 103.299 87.7896 104.33 86.1946 105.058C84.2577 105.941 82.1703 105.944 81.286 105.941C80.4018 105.937 79.0349 105.374 78.5396 104.881C77.582 103.928 77.0495 102.747 76.6988 101.069C76.3482 99.3906 85.9317 99.1993 85.9317 99.1993C85.9317 99.1993 86.1654 95.9391 91.5123 98.997C96.8592 102.055 100.657 104.145 100.657 104.145L101.128 105.768L95.3812 108.562Z" fill="#042CAF"/>
<path d="M106.047 118.62L107.664 125.299L109.984 124.468L109.298 117.687L106.047 118.62Z" fill="#FBB273"/>
<path d="M110.169 124.09L107.36 124.144C107.239 124.146 107.135 124.233 107.111 124.353L106.576 127.01C106.527 127.245 106.676 127.476 106.91 127.525C106.94 127.532 106.97 127.535 107.001 127.535C108.164 127.493 109.197 127.409 110.646 127.384C112.355 127.353 111.925 127.567 113.936 127.558C115.147 127.552 115.343 126.161 114.828 126.102C112.473 125.848 111.797 125.144 110.875 124.314C110.675 124.155 110.424 124.075 110.169 124.09Z" fill="#1A2E35"/>
<path d="M118.418 106.483L123.608 112.725L125.434 111.338L120.876 104.399L118.418 106.483Z" fill="#FBB273"/>
<path d="M124.511 109.6L122.28 111.346C122.181 111.418 122.145 111.549 122.193 111.661L123.251 114.154C123.343 114.376 123.597 114.48 123.817 114.387C123.845 114.375 123.872 114.36 123.897 114.342C124.83 113.642 125.633 112.981 126.811 112.131C128.2 111.127 127.967 111.549 129.616 110.391C130.609 109.692 129.986 108.435 129.53 108.681C127.448 109.821 126.445 109.535 125.218 109.38C124.963 109.364 124.712 109.442 124.511 109.6Z" fill="#1A2E35"/>
<path d="M76.0895 89.5867C76.0895 89.5867 74.6673 96.6331 77.3503 101.698C80.0333 106.764 85.9899 107.683 101.295 91.3456C101.295 91.3456 108.202 96.0959 121.158 110.821L124.3 108.359C124.3 108.359 111.239 87.889 105.788 83.509C100.283 79.0857 88.2456 91.4427 86.7116 90.7563C85.346 90.1451 84.9642 88.0304 84.9642 88.0304L76.0895 89.5867Z" fill="white"/>
<path d="M89.7617 101.823C92.8577 99.6781 96.6427 96.3135 101.297 91.3457C101.297 91.3457 105.722 89.6976 107.276 92.883C108.829 96.0684 110.54 122.251 110.54 122.251L106.325 123.122C106.325 123.122 99.5476 99.3851 99.5849 98.0138L89.7617 101.823H89.7617Z" fill="white"/>
<path d="M88.3344 85.6732C88.3344 85.6732 85.9728 87.8285 75.6762 89.0683C75.6762 89.0683 75.1172 93.7811 75.6762 97.685C76.2351 101.589 78.0195 104.14 78.9577 104.684C80.1096 105.352 82.1341 106.056 86.602 104.086C88.5868 103.211 89.8952 102.691 90.6811 102.269C93.8652 100.56 96.0643 102.591 97.3209 104.227C98.8815 106.258 100.332 108.68 100.646 109.485C100.761 109.781 116.75 101.753 120.495 97.7025C120.495 97.7025 113.76 90.6508 111.047 86.9052C108.335 83.1595 105.04 82.0782 103.43 82.1837C101.821 82.2892 99.4909 82.4508 94.8833 85.2056C93.3871 86.1002 92.3643 86.7293 91.6653 87.171C90.7954 87.7207 89.652 87.4973 89.0478 86.6608L88.3344 85.6732Z" fill="#042CB0"/>
<path d="M118.383 95.448C118.383 95.448 112.558 101.177 99.4259 107.273L98.3887 105.694C98.3887 105.694 109.17 100.764 117.205 94.1572L118.383 95.448Z" fill="white"/>
<path d="M100.486 106.415C100.841 106.415 101.128 106.126 101.128 105.768C101.128 105.411 100.841 105.121 100.486 105.121C100.131 105.121 99.8438 105.411 99.8438 105.768C99.8438 106.126 100.131 106.415 100.486 106.415Z" fill="#042CAF"/>
<path d="M105.8 103.59C106.155 103.59 106.443 103.3 106.443 102.943C106.443 102.586 106.155 102.296 105.8 102.296C105.446 102.296 105.158 102.586 105.158 102.943C105.158 103.3 105.446 103.59 105.8 103.59Z" fill="#042CAF"/>
<path d="M110.992 100.452C111.346 100.452 111.634 100.162 111.634 99.8048C111.634 99.4474 111.346 99.1577 110.992 99.1577C110.637 99.1577 110.35 99.4474 110.35 99.8048C110.35 100.162 110.637 100.452 110.992 100.452Z" fill="#042CAF"/>
<path d="M116.119 96.7843C116.473 96.7843 116.761 96.4946 116.761 96.1373C116.761 95.7799 116.473 95.4902 116.119 95.4902C115.764 95.4902 115.477 95.7799 115.477 96.1373C115.477 96.4946 115.764 96.7843 116.119 96.7843Z" fill="#042CAF"/>
<path d="M82.6517 75.2111C82.6517 75.2111 83.3062 69.9795 82.1543 67.0251C82.1543 67.0251 83.5854 66.4097 85.6972 66.9548C85.6972 66.9548 87.3465 73.3294 85.2696 76.1431L82.6517 75.2111Z" fill="white"/>
<path d="M74.7144 82.5495C74.7144 82.5495 74.1733 85.6263 75.0029 112.743C75.0029 112.743 69.7738 113.651 67.7246 113.711C67.7246 113.711 69.3982 85.8075 72.274 75.7964L74.7144 82.5495Z" fill="white"/>
<path d="M73.0842 79.2188C73.0842 79.2188 69.6098 71.1387 72.7486 69.6409C74.3291 68.8867 76.2166 73.7314 76.9241 77.3169C76.9241 77.3169 75.0261 79.0446 73.0842 79.2188Z" fill="#042CB0"/>
<path d="M76.2987 68.3001C76.2987 68.3001 80.0161 70.5686 82.7213 71.4478L84.7458 76.1607C84.7458 76.1607 77.7909 74.2615 72.4766 69.4783C72.4766 69.4783 75.5744 68.2385 76.2987 68.3001Z" fill="white"/>
<path d="M86.5332 77.9442L86.4702 77.4351L86.1172 77.6483L86.5332 77.9442Z" fill="#1A2E35"/>
<path opacity="0.7" d="M86.5332 77.9442L86.4702 77.4351L86.1172 77.6483L86.5332 77.9442Z" fill="white"/>
<path d="M82.2871 71.6598L82.3468 71.3332L82.7206 71.1074L83.0347 71.2084L86.421 76.9012L86.4949 77.4526L86.1211 77.6784L85.6734 77.3527L82.2871 71.6598Z" fill="#1A2E35"/>
<path opacity="0.6" d="M82.2871 71.6598L82.3468 71.3332L82.7206 71.1074L83.0347 71.2084L86.421 76.9012L86.4949 77.4526L86.1211 77.6784L85.6734 77.3527L82.2871 71.6598Z" fill="white"/>
<path opacity="0.5" d="M82.739 71.5653L82.3652 71.791L85.6619 77.3331L86.0357 77.1074L82.739 71.5653Z" fill="white"/>
<path d="M85.9453 76.3433C85.7926 74.9301 85.1067 73.896 84.2494 73.929C83.2048 73.9692 83.4871 77.2249 83.4871 77.2249L77.3236 79.5041L76.5444 77.6199L73.2109 79.1762C74.1665 81.6601 75.3832 82.59 76.0282 83.2823C76.1583 83.4219 76.3665 83.4523 76.5304 83.3555L84.5155 78.6366C84.5155 78.6366 86.0981 77.7564 85.9453 76.3433Z" fill="#FBB273"/>
<path d="M67.9375 110.669L74.9146 109.758L74.8737 108.311L68.0188 109.299L67.9375 110.669Z" fill="#042CB0"/>
<path d="M88.3684 85.8104C89.087 87.096 92.4892 93.6227 93.1069 98.7576C93.1069 98.7576 97.9619 98.3292 100.15 96.9579C100.15 96.9579 95.4169 88.7076 91.6671 86.3512C91.6671 86.3512 90.5414 85.7885 89.8346 85.6654C89.3536 85.5816 88.8436 85.4896 88.5341 85.5045C88.3833 85.5118 88.2943 85.6779 88.3684 85.8104Z" fill="white"/>
<path d="M92.7557 96.7843C92.7557 96.7843 95.2366 96.8039 99.2631 95.4902C99.2631 95.4902 98.2694 93.9383 98.0537 93.6182C98.0537 93.6182 95.1285 94.6493 92.2324 94.8349C92.2324 94.8349 92.6995 96.5316 92.7557 96.7843Z" fill="#042CB0"/>
<path d="M97.7077 86.0977L89.1984 84.9101C89.0185 84.885 88.9171 84.6884 89.0001 84.5256L94.2825 74.1594C94.428 73.8739 94.7368 73.7121 95.0523 73.7562L103.562 74.9438C103.742 74.9689 103.843 75.1655 103.76 75.3283L98.4776 85.6944C98.332 85.98 98.0233 86.1417 97.7077 86.0977Z" fill="#1A2E35"/>
<path d="M97.7077 86.0977L89.1984 84.9101C89.0185 84.885 88.9171 84.6884 89.0001 84.5256L94.2825 74.1594C94.428 73.8739 94.7368 73.7121 95.0523 73.7562L103.562 74.9438C103.742 74.9689 103.843 75.1655 103.76 75.3283L98.4776 85.6944C98.332 85.98 98.0233 86.1417 97.7077 86.0977Z" fill="#999999"/>
<path d="M98.0397 86.1441L89.5305 84.9565C89.3505 84.9314 89.2491 84.7348 89.332 84.572L94.6145 74.2059C94.76 73.9203 95.0688 73.7586 95.3844 73.8026L103.894 74.9902C104.074 75.0153 104.175 75.2119 104.092 75.3747L98.8096 85.7408C98.6641 86.0264 98.3553 86.1881 98.0397 86.1441Z" fill="#1A2E35"/>
<path d="M98.0397 86.1441L89.5305 84.9565C89.3505 84.9314 89.2491 84.7348 89.332 84.572L94.6145 74.2059C94.76 73.9203 95.0688 73.7586 95.3844 73.8026L103.894 74.9902C104.074 75.0153 104.175 75.2119 104.092 75.3747L98.8096 85.7408C98.6641 86.0264 98.3553 86.1881 98.0397 86.1441Z" fill="#A3ABAE"/>
<path opacity="0.7" d="M102.728 76.7831L101.747 76.6461C101.726 76.6432 101.715 76.6206 101.724 76.6018L102.333 75.4062C102.35 75.3733 102.386 75.3546 102.422 75.3597L103.404 75.4967C103.424 75.4996 103.436 75.5222 103.426 75.541L102.817 76.7366C102.8 76.7695 102.765 76.7882 102.728 76.7831Z" fill="#1A2E35"/>
<path opacity="0.3" d="M102.728 76.7831L101.747 76.6461C101.726 76.6432 101.715 76.6206 101.724 76.6018L102.333 75.4062C102.35 75.3733 102.386 75.3546 102.422 75.3597L103.404 75.4967C103.424 75.4996 103.436 75.5222 103.426 75.541L102.817 76.7366C102.8 76.7695 102.765 76.7882 102.728 76.7831Z" fill="white"/>
<path d="M97.433 80.0738C97.2876 80.479 96.9545 80.7774 96.689 80.7404C96.4236 80.7033 96.3264 80.3448 96.4718 79.9397C96.6173 79.5345 96.9504 79.2361 97.2158 79.2731C97.4812 79.3102 97.5784 79.6687 97.433 80.0738Z" fill="#FCFBFA"/>
<path d="M102.701 80.0943C102.767 79.8615 102.734 79.612 102.625 79.3968C102.451 79.0552 102.138 78.6125 101.699 78.6569C100.994 78.7285 100.807 79.2363 100.629 79.8991C100.45 80.5618 99.8899 81.7351 100.528 82.1423C101.137 82.5316 102.075 82.3177 102.701 80.0943H102.701Z" fill="#FBB273"/>
<path d="M115.688 27.958L114.059 30.3816L114.673 32.3708L116.538 28.1496L115.688 27.958Z" fill="#042CAF"/>
<path d="M112.031 28.1494L113.297 30.4426L111.921 32.3706L111.443 28.1494H112.031Z" fill="#042CAF"/>
<path d="M113.586 33.1408C113.721 33.1408 113.831 33.0305 113.831 32.8944C113.831 32.7583 113.721 32.6479 113.586 32.6479C113.451 32.6479 113.342 32.7583 113.342 32.8944C113.342 33.0305 113.451 33.1408 113.586 33.1408Z" fill="#ED7E21"/>
<path d="M113.297 35.6769C113.432 35.6769 113.542 35.5666 113.542 35.4305C113.542 35.2944 113.432 35.1841 113.297 35.1841C113.162 35.1841 113.053 35.2944 113.053 35.4305C113.053 35.5666 113.162 35.6769 113.297 35.6769Z" fill="#ED7E21"/>
<path d="M113.678 37.8923C113.813 37.8923 113.923 37.7819 113.923 37.6458C113.923 37.5097 113.813 37.3994 113.678 37.3994C113.543 37.3994 113.434 37.5097 113.434 37.6458C113.434 37.7819 113.543 37.8923 113.678 37.8923Z" fill="#ED7E21"/>
<path d="M113.995 39.9372C114.13 39.9372 114.239 39.8268 114.239 39.6908C114.239 39.5547 114.13 39.4443 113.995 39.4443C113.859 39.4443 113.75 39.5547 113.75 39.6908C113.75 39.8268 113.859 39.9372 113.995 39.9372Z" fill="#ED7E21"/>
</svg>
