<svg width="99" height="92" viewBox="0 0 99 92" fill="none" xmlns="http://www.w3.org/2000/svg">
<path d="M98.59 47.5061C97.371 37.8045 93.5404 28.1533 88.556 20.2613C82.0722 9.99479 71.7129 1.75813 59.4225 0.231636C50.7235 -0.848915 40.8045 1.90342 34.0773 7.80687C30.7322 10.7425 28.1543 14.3945 26.6326 18.5815C24.986 23.1114 24.2845 28.3024 20.7368 31.8583C16.4733 36.1318 10.5853 38.1764 6.18047 42.2554C-3.58579 51.2999 -0.734687 67.6369 7.49257 76.6608C14.898 84.7835 25.8854 83.2809 35.7648 84.8121C43.2646 85.9742 49.755 90.2121 57.4197 91.0142C68.5089 92.1745 79.957 88.4543 88.0907 80.7713C97.5608 71.8261 100.113 59.6269 98.59 47.5061Z" fill="#E6EAF7"/>
<path d="M34.9169 11.1797H27.5337C27.0491 11.1797 26.6562 11.5714 26.6562 12.0547V15.035C26.6562 15.5183 27.0491 15.9101 27.5337 15.9101H32.5758L34.5143 17.5619V15.9101H34.9169C35.4015 15.9101 35.7943 15.5183 35.7943 15.035V12.0547C35.7943 11.5714 35.4015 11.1797 34.9169 11.1797Z" fill="white"/>
<path d="M34.5943 17.7338L32.5476 15.9897H27.5347C27.0072 15.9897 26.5781 15.5618 26.5781 15.0358V12.0554C26.5781 11.5295 27.0072 11.1016 27.5347 11.1016H34.9178C35.4453 11.1016 35.8744 11.5295 35.8744 12.0554V15.0358C35.8744 15.5618 35.4453 15.9897 34.9178 15.9897H34.5943V17.7338ZM27.5347 11.2593C27.0945 11.2593 26.7363 11.6165 26.7363 12.0554V15.0358C26.7363 15.4748 27.0945 15.8319 27.5347 15.8319H32.606L34.4362 17.3915V15.8319H34.9178C35.358 15.8319 35.7162 15.4748 35.7162 15.0358V12.0554C35.7162 11.6165 35.358 11.2593 34.9178 11.2593H27.5347Z" fill="#1659A7"/>
<path d="M33.2746 11.9058C33.1133 11.7449 32.8507 11.745 32.6893 11.9058L30.2125 14.3757L29.4134 13.5788C29.2521 13.418 28.9895 13.418 28.8281 13.5788C28.6667 13.7398 28.6667 14.0016 28.8281 14.1626L29.9198 15.2513C29.998 15.3292 30.102 15.3721 30.2125 15.3721C30.323 15.3721 30.4269 15.3292 30.5052 15.2513L33.2746 12.4895C33.3528 12.4116 33.3959 12.3079 33.3959 12.1977C33.3959 12.0874 33.3528 11.9838 33.2746 11.9058L33.2746 11.9058Z" fill="#042CAF"/>
<path d="M29.5234 83.7301L34.0234 83.8289L31.0654 82.5744L30.931 81.4492C30.4751 81.4492 30.3651 81.757 29.9048 81.757C29.7747 82.475 29.5234 83.7301 29.5234 83.7301H29.5234Z" fill="#17282F"/>
<path d="M36.2383 83.2574L40.7382 83.3562L37.7802 82.1017L37.6458 80.9766C37.1899 80.9766 37.0799 81.2843 36.6196 81.2843C36.4895 82.0023 36.2383 83.2574 36.2383 83.2574Z" fill="#17282F"/>
<path d="M56.5523 33.7247C57.2839 33.7926 58.5044 33.8568 59.2308 33.7784C59.93 33.703 60.4584 33.5089 60.703 33.3642C60.7618 33.3294 60.7171 33.23 60.6473 33.2399C60.4653 33.2658 60.2117 33.3287 60.0345 33.3726C59.4497 33.5178 59.1933 33.4494 59.0936 33.3275C59.1263 33.2079 59.3505 33.14 60.161 32.9522C60.5358 32.8653 61.049 32.7464 61.1092 32.6827C61.3015 32.3339 60.4734 32.55 60.1078 32.6662C59.7317 32.7858 59.352 32.9548 59.2081 32.7787C59.1611 32.7211 59.6047 32.4779 60.205 32.2614C62.3864 31.4747 61.4405 31.3285 60.4111 31.7935C59.4726 32.2173 59.0564 32.4233 58.9916 32.3441C59.0021 32.2358 59.1986 32.1215 59.8347 31.788C60.2008 31.596 60.752 31.1994 60.7881 31.0877C60.8094 30.8678 60.4596 31.0237 60.2862 31.1378C60.2682 31.1496 58.4725 32.2905 58.1488 32.0076C57.8195 31.7204 58.3474 31.4208 58.6653 31.2468C58.9896 31.0692 58.9947 30.6587 58.8305 30.6413C58.627 30.6196 58.4769 31.1449 57.9285 31.3946C57.3806 31.6441 56.5855 32.0752 56.4094 32.2183C56.3287 32.2838 55.3831 32.8477 54.0857 33.138C53.8461 33.1916 53.5831 33.2365 53.3059 33.2656C53.3162 33.7793 53.3149 34.295 53.3047 34.8123C54.6398 34.4426 55.8899 33.9879 56.5523 33.7247Z" fill="#FDB373"/>
<path d="M46.0921 44.3579L43.2383 43.2891L43.6837 44.4753L44.6652 46.7347L46.2775 45.8154L46.0921 44.3579Z" fill="#FDB373"/>
<path d="M55.0127 32.5518C54.3421 31.8831 48.6023 33.6392 48.6023 33.6392L40.5732 30.2891L39.7695 36.4729L48.1996 37.4961C48.1996 37.4961 53.7155 36.3462 54.8404 34.9753C55.2261 34.5052 55.2109 32.7494 55.0127 32.5518Z" fill="#ED7E21"/>
<path d="M41.0492 30.7183L40.5374 30.5625L39.7695 36.4707L41.6445 36.6983C41.3074 34.2876 41.1159 31.9554 41.0492 30.7183Z" fill="#CD6B18"/>
<path d="M40.7657 30.3618L37.5124 29.0938L32.6618 29.3853L29.8711 30.1078C29.8711 30.1078 31.0634 38.3632 31.3414 41.2782C31.6194 44.1931 31.6194 46.525 31.6194 46.525L32.1736 48.4186C35.3006 48.6848 37.6768 48.4607 40.8311 48.8399C40.8654 47.168 40.8759 47.2246 40.8759 47.2246L40.7657 30.3618Z" fill="#ED7E21"/>
<path opacity="0.36" d="M31.6194 46.5227L32.1736 48.4163C34.3234 48.5992 36.1184 48.5505 38.0552 48.6255C33.3025 47.6037 34.4589 42.6418 34.4589 42.6418C32.5946 41.2946 29.8711 30.1055 29.8711 30.1055C29.8711 30.1055 31.0634 38.3609 31.3414 41.2759C31.6194 44.1908 31.6194 46.5227 31.6194 46.5227Z" fill="#C46D24"/>
<path d="M37.0147 28.425L37.0097 30.1813L33.5259 30.1559L33.4961 28.1562L37.0147 28.425Z" fill="#81669B"/>
<path d="M30.3954 65.6173C30.3954 65.6173 29.8209 70.3589 29.5244 73.7791C29.2279 77.1993 29.2587 82.3749 29.2587 82.3749L31.5996 82.5182C31.5996 82.5182 32.5358 71.3305 33.7033 68.1241L36.7887 54.628L35.9523 82.0726L38.4112 81.9958C38.4112 81.9958 40.7387 53.2849 40.8301 48.8392C37.6759 48.46 35.2996 48.6842 32.1727 48.418L30.3954 65.6173Z" fill="#33535F"/>
<path d="M36.8863 26.7551C36.7771 27.0802 36.8243 29.3996 36.7379 29.9835C36.6525 30.56 34.0132 31.4536 33.9614 29.3565C33.9097 27.2593 34.1174 24.793 34.1174 24.793L36.8863 26.7551V26.7551Z" fill="#FDB373"/>
<g style="mix-blend-mode:multiply" opacity="0.5">
<path d="M36.8865 26.7551L35.9674 26.1039L34.1175 24.793C34.1175 24.793 34.1174 24.7941 34.1172 24.7962C34.1172 24.797 34.1171 24.7977 34.117 24.7986C34.117 24.7989 34.117 24.7993 34.1169 24.7998C34.1162 24.8085 34.1149 24.8249 34.113 24.8484C34.1069 24.9247 34.095 25.0771 34.0805 25.2876L34.0804 25.2886C34.0775 25.3312 34.0744 25.3762 34.0712 25.4234C34.0711 25.4265 34.0709 25.4296 34.0707 25.4326C34.0605 25.585 34.0495 25.7602 34.0384 25.9532C34.0378 25.964 34.0372 25.9748 34.0365 25.9857C34.0339 26.0315 34.0313 26.0781 34.0287 26.1257C34.0287 26.1262 34.0287 26.1268 34.0287 26.1273C34.0273 26.152 34.026 26.177 34.0246 26.2021C34.0245 26.2048 34.0244 26.2075 34.0242 26.2102C34.0237 26.2196 34.0232 26.2291 34.0227 26.2386C34.0225 26.2423 34.0224 26.246 34.0221 26.2496C34.0213 26.2661 34.0205 26.2827 34.0195 26.2993C34.3632 27.4234 35.6625 28.6442 36.7864 28.7893C36.7888 28.7118 36.793 28.6334 36.7986 28.5547C36.8128 27.7671 36.8244 26.9397 36.8865 26.7551Z" fill="#FDB373"/>
</g>
<path d="M32.1714 48.418L40.8288 48.5711L40.7868 49.9396L32.043 49.6609L32.1714 48.418Z" fill="#333333"/>
<path d="M38.2777 49.8238L36.2344 49.792L36.2828 48.5078L38.3257 48.5508L38.2777 49.8238Z" fill="white"/>
<path d="M36.9258 48.6562C36.9663 48.6562 38.2058 48.7068 38.2058 48.7068L38.0843 49.734L38.0741 48.8213L36.9258 48.6562Z" fill="#999999"/>
<path d="M34.457 31.1085L35.7176 31.6989H36.7222L37.4798 31.1085L36.8017 29.9208H35.3081L34.9298 29.7344L34.457 31.1085Z" fill="#ED7E21"/>
<path d="M35.3086 29.9219H36.8022L36.7227 31.7H35.7181L35.3086 29.9219Z" fill="#333333"/>
<path d="M34.5164 31.7008L35.692 29.9227L33.4966 28.1562L32.6602 29.3835L34.5164 31.7008Z" fill="white"/>
<path d="M37.5418 31.5729L36.6562 29.9235L37.0141 28.4258L38.3021 29.3599L37.5418 31.5729Z" fill="white"/>
<path d="M35.7148 31.6992C35.7148 32.4021 35.7676 46.7739 35.7676 46.7739L37.4771 48.8365L38.4548 46.6647L36.7195 31.6992H35.7148Z" fill="#333333"/>
<path d="M38.6887 44.4115C36.6563 43.2872 34.1974 41.401 34.1974 41.401L29.8685 30.1055C29.8685 30.1055 28.2148 32.0159 28.2148 34.5227C28.2148 37.0295 31.1796 44.5873 31.5827 45.01C31.8196 45.2584 35.8736 47.2584 38.4569 46.6657C38.3568 45.8982 38.4042 45.2065 38.6887 44.4115Z" fill="#ED7E21"/>
<path d="M34.3582 41.2865C33.1961 38.0933 31.2209 33.0337 29.8711 30.1055C31.0522 33.9236 32.9531 38.713 34.0453 41.5197C34.07 41.5354 36.6433 43.4355 38.6913 44.4115C38.3118 44.1659 35.6819 42.3236 34.3582 41.2865Z" fill="white"/>
<path d="M40.4175 44.8341C39.9785 44.7305 39.3652 44.5792 38.6899 44.4102C38.4053 45.2052 38.3579 45.8969 38.4581 46.6644C39.0972 46.6697 39.7078 46.6716 40.2394 46.6719C40.1784 46.0728 40.1883 45.4712 40.4175 44.8341Z" fill="white"/>
<path d="M43.904 44.4844C43.904 44.4844 41.7298 45.0878 41.0448 44.9756C40.9453 44.9593 40.7217 44.9095 40.417 44.8375C40.1879 45.4746 40.1779 46.0762 40.2389 46.6753C41.2197 46.6757 41.9355 46.6705 42.0693 46.6705C42.5697 46.6705 43.8762 47.5596 44.3348 47.5596C44.7934 47.5596 45.0714 47.0932 45.0714 47.0932C45.0714 47.0932 45.4884 46.7143 45.6274 46.3936C45.7664 46.073 45.8915 46.1313 45.8915 45.7961C45.8915 45.4609 43.904 44.4844 43.904 44.4844Z" fill="#FDB373"/>
<path d="M43.2357 43.2891C43.2357 43.2891 42.3462 45.038 42.513 45.2129C42.6798 45.3878 43.7319 44.5301 43.7319 44.5301L43.2357 43.2891Z" fill="#FDB373"/>
<path d="M42.0664 46.7841C42.0664 46.7841 43.2154 45.8318 43.4007 46.0262C43.586 46.2205 42.9907 46.7841 42.9907 46.7841C42.9907 46.7841 43.6439 46.2521 43.7898 46.3177C43.9357 46.3833 43.4076 47.0319 43.4076 47.0319C43.4076 47.0319 44.0261 46.4445 44.2346 46.5159C44.4431 46.5873 43.9673 47.4636 43.9673 47.4636C43.9673 47.4636 42.1429 47.4836 42.0664 46.7841H42.0664Z" fill="#FDB373"/>
<path fill-rule="evenodd" clip-rule="evenodd" d="M66.0778 80.168C66.0778 80.168 65.2367 81.4261 64.3255 81.8105C63.4143 82.1949 62.6256 82.527 63.0988 82.824C63.5719 83.1211 67.8651 82.5968 67.8651 82.5968L67.9107 80.5061L66.0778 80.168Z" fill="#17282F"/>
<path fill-rule="evenodd" clip-rule="evenodd" d="M61.8734 57.4715L61.5742 50.6225L68.0712 49.5586C68.6422 55.5714 69.1966 64.975 67.9553 81.0788C67.4722 81.8071 66.1498 81.334 65.3517 80.9765C64.9694 72.2856 63.3087 62.8623 61.8734 57.4715Z" fill="#33535F"/>
<path fill-rule="evenodd" clip-rule="evenodd" d="M56.7575 80.168C56.7575 80.168 55.9164 81.4261 55.0052 81.8105C54.094 82.1949 53.3053 82.527 53.7784 82.824C54.2516 83.1211 58.5448 82.5968 58.5448 82.5968L58.5903 80.5061L56.7575 80.168Z" fill="#17282F"/>
<path fill-rule="evenodd" clip-rule="evenodd" d="M62.1806 57.8739L62.4798 51.0248L55.9828 49.9609C55.4118 55.9737 54.8574 64.664 56.0987 80.7679C56.5818 81.4962 57.9042 82.0762 58.7023 81.7187C59.0846 73.0278 60.7453 63.2647 62.1806 57.8739Z" fill="#33535F"/>
<path fill-rule="evenodd" clip-rule="evenodd" d="M68.0502 31.8325L68.2476 31.866C68.2476 31.866 68.988 41.1863 69.0911 42.1739C69.5796 46.8501 71.666 58.0394 71.666 58.0394C71.3586 58.1929 70.9957 58.3334 70.5875 58.461C70.359 58.5324 68.8293 53.7685 68.5741 53.832C68.391 53.8775 69.4881 58.7523 69.2928 58.7938C64.4119 59.8297 55.9623 59.5935 54.4336 58.3425C54.4336 58.3425 55.8235 36.3249 57.4473 32.6819C57.8081 31.8721 62.3735 31.0168 63.0285 31.0518C63.6015 31.0826 67.1676 31.6829 68.0502 31.8325Z" fill="#042CAF"/>
<path fill-rule="evenodd" clip-rule="evenodd" d="M61.3334 23.5172C61.3334 23.5172 60.107 24.4936 60.1413 27.1594C60.176 29.8248 61.7371 30.0359 61.7371 30.0359L61.118 31.8041C61.118 31.8041 60.5873 32.6422 61.3872 32.7541C63.0827 32.9918 64.6978 31.7777 64.6978 31.7777C64.5009 30.6974 64.7329 29.3832 65.1822 27.9509C65.1822 27.9509 66.32 25.5821 65.7475 24.2562C64.4824 21.3266 61.3334 23.5172 61.3334 23.5172Z" fill="#FCB373"/>
<path fill-rule="evenodd" clip-rule="evenodd" d="M64.5409 23.9848C63.9328 24.5207 60.9338 23.879 60.5933 22.9419C60.3219 22.1942 60.2035 21.0845 61.5751 20.955C62.947 20.8252 63.2645 21.1276 64.4485 21.8763C65.6324 22.6252 66.21 22.6539 66.3977 23.1435C66.5854 23.6329 66.4988 24.0361 66.4988 24.0361C66.4988 24.0361 67.7645 24.4933 66.1165 27.0396C65.612 27.819 65.188 27.9526 65.188 27.9526C65.1605 28.2848 64.3267 24.9003 64.5409 23.9848H64.5409Z" fill="#333333"/>
<path fill-rule="evenodd" clip-rule="evenodd" d="M62.0615 32.078C61.9497 32.0597 62.3813 33.2472 62.3813 33.2472C63.8574 32.8576 64.7196 32.2197 65.1623 31.4114C65.105 31.0368 64.848 30.488 64.6583 30.4258C64.7309 30.842 62.748 32.19 62.0615 32.078V32.078Z" fill="white"/>
<path fill-rule="evenodd" clip-rule="evenodd" d="M61.3002 31.293C61.2785 31.6057 61.4645 31.7488 61.4645 31.7488C61.4645 31.7488 61.2322 33.1373 61.1825 33.1027C61.1332 33.0679 60.6758 32.4266 60.6758 32.4266C60.6758 32.4266 60.9049 31.4313 61.3002 31.293Z" fill="white"/>
<path fill-rule="evenodd" clip-rule="evenodd" d="M64.8522 25.3203C64.4531 25.3203 64.1289 25.7858 64.1289 26.359C64.1289 26.9324 64.4531 27.3976 64.8522 27.3976C65.2512 27.3976 65.5754 26.9324 65.5754 26.359C65.5754 25.7858 65.2512 25.3203 64.8522 25.3203Z" fill="#FDB373"/>
<path d="M55.8743 32.3281L54.3241 32.5911C54.1389 33.4246 54.0329 34.2484 54.1518 35.0146L55.8213 34.3808L55.8743 32.3281Z" fill="#ED7E21"/>
<path fill-rule="evenodd" clip-rule="evenodd" d="M70.5724 54.8177C70.5724 54.8177 69.9461 56.145 69.8098 56.0667C69.6735 55.9883 69.757 55.5123 69.757 55.5123C69.757 55.5123 69.5105 55.7512 69.4025 55.6624C69.2946 55.5739 69.5923 54.9023 69.5923 54.9023C69.5923 54.9023 69.5099 55.0917 69.4085 54.9689C69.3072 54.846 69.9156 53.2695 69.9156 53.2695L70.5724 54.8177Z" fill="#FDB373"/>
<path fill-rule="evenodd" clip-rule="evenodd" d="M70.6158 51.5325C70.6367 51.7665 70.9493 53.4078 70.8632 54.0916C70.7775 54.7752 70.6436 56.3949 70.4727 56.3081C70.3015 56.2213 70.1735 54.3857 70.1735 54.3857L69.8216 53.5408C69.8216 53.5408 69.379 54.458 68.959 55.1138C68.8308 55.3143 68.323 55.1849 69.2397 53.0523C69.3635 52.7643 69.3694 52.4443 69.3694 52.4443C69.3694 52.4443 69.0959 51.5688 69.2861 51.5075C69.476 51.4464 70.526 51.4518 70.526 51.4518C70.526 51.4518 70.5949 51.2982 70.6158 51.5325Z" fill="#FDB373"/>
<path d="M67.8505 43.2676L64.8594 35.0974C64.9247 32.6286 66.9377 32.4629 66.9377 32.4629C68.7093 32.3515 68.988 33.8537 68.988 33.8537L70.9961 42.8406C70.9961 42.8406 71.3484 48.145 70.5707 52.0657L68.5045 51.9504C68.5045 51.9504 68.2891 45.0027 67.8505 43.2676Z" fill="#0B2B95"/>
<path d="M58.8391 38.0065L57.5014 32.5938L52.2423 41.6552L46.0898 44.3564C46.0898 45.0877 46.2752 46.072 46.4767 46.2817C46.4767 46.2817 53.9861 44.4616 54.319 44.1124C54.8379 43.5683 58.8391 38.0065 58.8391 38.0065Z" fill="#042CAF"/>
<path d="M49.9581 24.4048C54.5474 24.4048 58.2677 20.6948 58.2677 16.1184C58.2677 11.542 54.5474 7.83203 49.9581 7.83203C45.3688 7.83203 41.6484 11.542 41.6484 16.1184C41.6484 20.6948 45.3688 24.4048 49.9581 24.4048Z" fill="#F9F9F9"/>
<path d="M49.9555 24.6482C45.2393 24.6482 41.4023 20.822 41.4023 16.119C41.4023 11.416 45.2393 7.58984 49.9555 7.58984C54.6717 7.58984 58.5086 11.416 58.5086 16.119C58.5086 20.822 54.6717 24.6482 49.9555 24.6482ZM49.9555 8.07542C45.5078 8.07542 41.8893 11.6837 41.8893 16.119C41.8893 20.5542 45.5078 24.1626 49.9555 24.1626C54.4032 24.1626 58.0216 20.5542 58.0216 16.119C58.0216 11.6837 54.4031 8.07542 49.9555 8.07542Z" fill="#CCCCCC"/>
<path d="M50.4688 21.1319C50.0628 20.6235 49.6567 20.1152 49.2506 19.6068C48.5583 18.74 47.8661 17.8732 47.1738 17.0064C47.0755 16.8833 46.977 16.7603 46.8792 16.6368C46.8722 16.6279 46.8663 16.6151 46.8663 16.6041C46.8656 16.3196 46.8658 16.0351 46.8659 15.7506C46.8659 15.7466 46.8666 15.7425 46.8674 15.7348C46.8777 15.7348 46.888 15.7348 46.8984 15.7348C47.2215 15.7345 47.5446 15.7371 47.8676 15.7334C48.24 15.7292 48.6063 15.6818 48.96 15.5588C49.2474 15.4589 49.5083 15.3141 49.7277 15.1011C49.9725 14.8635 50.1338 14.5795 50.1946 14.243C50.2103 14.1564 50.2104 14.0671 50.2175 13.979C50.2179 13.9743 50.2167 13.9695 50.216 13.9623H46.5449C46.5502 13.9525 46.5531 13.9463 46.5568 13.9406C46.7502 13.6448 46.9438 13.3492 47.1365 13.053C47.1471 13.0368 47.159 13.0351 47.1753 13.0351C48.1371 13.0353 49.0989 13.0353 50.0607 13.0353H50.097C50.081 13.0018 50.0672 12.9715 50.0521 12.9419C49.8877 12.6198 49.6322 12.397 49.3008 12.257C49.1114 12.177 48.9135 12.1279 48.7111 12.0953C48.3888 12.0436 48.0638 12.031 47.7381 12.03C47.3509 12.0289 46.9637 12.0292 46.5766 12.0289C46.5671 12.0289 46.5576 12.0289 46.543 12.0289C46.5508 12.0166 46.5554 12.0092 46.5602 12.0018C46.7518 11.7088 46.9436 11.4159 47.1346 11.1225C47.145 11.1066 47.1559 11.1016 47.1743 11.1016C49.2287 11.102 51.283 11.102 53.3373 11.102H53.3659C53.3613 11.1106 53.3585 11.1169 53.3548 11.1225C53.161 11.419 52.967 11.7153 52.7738 12.0122C52.7637 12.0276 52.7523 12.0291 52.7368 12.0291C52.2058 12.0289 51.6747 12.0289 51.1437 12.0289H51.1075C51.353 12.3242 51.5027 12.6554 51.5511 13.0336H53.3667C53.3613 13.0438 53.3586 13.0501 53.3549 13.0557C53.1612 13.3522 52.9671 13.6485 52.7739 13.9454C52.7639 13.9607 52.7525 13.9624 52.737 13.9624C52.3646 13.9622 51.9922 13.9623 51.6198 13.9621C51.6024 13.9621 51.5906 13.9615 51.5872 13.9858C51.5437 14.2971 51.4473 14.5913 51.2938 14.8663C51.1109 15.1941 50.8652 15.4677 50.5682 15.6963C50.1984 15.9807 49.7833 16.1738 49.3358 16.3007C49.0217 16.3897 48.7012 16.4407 48.3753 16.4585C48.3721 16.4587 48.369 16.4593 48.3632 16.46C48.3675 16.4667 48.3704 16.4722 48.3742 16.4769C49.0196 17.2782 49.6651 18.0795 50.3106 18.8807C50.9103 19.6251 51.51 20.3695 52.1096 21.1139C52.1141 21.1195 52.1174 21.1259 52.1212 21.1319H50.4688Z" fill="#ED7E21"/>
<path d="M79.4468 42.5101C82.5952 42.5101 85.1475 39.9649 85.1475 36.8254C85.1475 33.6858 82.5952 31.1406 79.4468 31.1406C76.2984 31.1406 73.7461 33.6858 73.7461 36.8254C73.7461 39.9649 76.2984 42.5101 79.4468 42.5101Z" fill="#F9F9F9"/>
<path d="M79.4442 42.7535C76.1666 42.7535 73.5 40.0944 73.5 36.826C73.5 33.5575 76.1666 30.8984 79.4442 30.8984C82.7218 30.8984 85.3883 33.5575 85.3883 36.826C85.3883 40.0944 82.7218 42.7535 79.4442 42.7535ZM79.4442 31.384C76.4351 31.384 73.9869 33.8253 73.9869 36.826C73.9869 39.8266 76.4351 42.2679 79.4442 42.2679C82.4533 42.2679 84.9014 39.8266 84.9014 36.826C84.9014 33.8253 82.4533 31.384 79.4442 31.384Z" fill="#CCCCCC"/>
<path d="M79.7988 40.2679C79.5202 39.9191 79.2416 39.5704 78.963 39.2216C78.4881 38.6269 78.0132 38.0323 77.5382 37.4376C77.4708 37.3532 77.4032 37.2688 77.3362 37.1841C77.3313 37.178 77.3273 37.1692 77.3273 37.1616C77.3268 36.9665 77.3269 36.7713 77.327 36.5761C77.327 36.5733 77.3275 36.5706 77.328 36.5652C77.3351 36.5652 77.3422 36.5652 77.3493 36.5652C77.5709 36.5651 77.7926 36.5668 78.0142 36.5643C78.2697 36.5615 78.521 36.5289 78.7636 36.4446C78.9608 36.376 79.1398 36.2767 79.2903 36.1305C79.4582 35.9676 79.5689 35.7727 79.6106 35.5418C79.6214 35.4825 79.6215 35.4212 79.6263 35.3607C79.6266 35.3575 79.6258 35.3542 79.6253 35.3493H77.1068C77.1105 35.3426 77.1124 35.3383 77.115 35.3344C77.2476 35.1315 77.3804 34.9286 77.5127 34.7255C77.5199 34.7143 77.5281 34.7132 77.5393 34.7132C78.1991 34.7133 78.859 34.7133 79.5188 34.7133H79.5437C79.5326 34.6903 79.5232 34.6695 79.5129 34.6492C79.4 34.4283 79.2248 34.2754 78.9974 34.1794C78.8675 34.1245 78.7317 34.0908 78.5929 34.0685C78.3718 34.033 78.1488 34.0243 77.9254 34.0237C77.6598 34.0229 77.3941 34.0231 77.1285 34.0229C77.122 34.0229 77.1155 34.0229 77.1055 34.0229C77.1108 34.0145 77.114 34.0094 77.1173 34.0043C77.2487 33.8033 77.3803 33.6023 77.5114 33.4011C77.5185 33.3902 77.5259 33.3867 77.5386 33.3867C78.9479 33.387 80.3573 33.387 81.7666 33.387H81.7862C81.783 33.3929 81.7812 33.3972 81.7786 33.4011C81.6457 33.6045 81.5126 33.8078 81.38 34.0114C81.3731 34.022 81.3653 34.023 81.3547 34.023C80.9904 34.0229 80.626 34.0229 80.2617 34.0229H80.2369C80.4053 34.2255 80.508 34.4527 80.5412 34.7122H81.7868C81.7831 34.7192 81.7812 34.7235 81.7787 34.7273C81.6458 34.9307 81.5127 35.134 81.3801 35.3377C81.3732 35.3482 81.3654 35.3493 81.3548 35.3493C81.0993 35.3492 80.8438 35.3493 80.5884 35.3491C80.5764 35.3491 80.5683 35.3487 80.566 35.3654C80.5361 35.579 80.47 35.7808 80.3647 35.9694C80.2392 36.1944 80.0707 36.3821 79.8669 36.5388C79.6132 36.734 79.3285 36.8665 79.0215 36.9535C78.806 37.0146 78.5861 37.0495 78.3625 37.0618C78.3603 37.0619 78.3582 37.0623 78.3542 37.0628C78.3572 37.0674 78.3591 37.0711 78.3617 37.0744C78.8045 37.6241 79.2474 38.1738 79.6902 38.7235C80.1016 39.2342 80.513 39.7448 80.9244 40.2555C80.9274 40.2593 80.9297 40.2637 80.9323 40.2679H79.7988Z" fill="#ED7E21"/>
<path d="M47.6284 60.3739C50.3443 60.3739 52.5459 58.1784 52.5459 55.4701C52.5459 52.7619 50.3443 50.5664 47.6284 50.5664C44.9126 50.5664 42.7109 52.7619 42.7109 55.4701C42.7109 58.1784 44.9126 60.3739 47.6284 60.3739Z" fill="#F9F9F9"/>
<path d="M47.6258 60.6172C44.78 60.6172 42.4648 58.3085 42.4648 55.4707C42.4648 52.633 44.78 50.3242 47.6258 50.3242C50.4716 50.3242 52.7868 52.6329 52.7868 55.4707C52.7868 58.3085 50.4716 60.6172 47.6258 60.6172ZM47.6258 50.8098C45.0486 50.8098 42.9518 52.9007 42.9518 55.4707C42.9518 58.0408 45.0486 60.1317 47.6258 60.1317C50.2031 60.1317 52.2998 58.0408 52.2998 55.4707C52.2998 52.9007 50.2031 50.8098 47.6258 50.8098Z" fill="#CCCCCC"/>
<path d="M47.9326 58.4358C47.6923 58.1349 47.452 57.8341 47.2117 57.5332C46.802 57.0203 46.3924 56.5073 45.9827 55.9944C45.9245 55.9215 45.8662 55.8487 45.8084 55.7757C45.8042 55.7704 45.8007 55.7628 45.8007 55.7563C45.8003 55.5879 45.8004 55.4196 45.8005 55.2512C45.8005 55.2488 45.8009 55.2464 45.8013 55.2418C45.8075 55.2418 45.8136 55.2418 45.8197 55.2418C46.0109 55.2417 46.2021 55.2432 46.3933 55.2411C46.6136 55.2386 46.8304 55.2105 47.0397 55.1377C47.2098 55.0786 47.3642 54.9929 47.4941 54.8669C47.6389 54.7263 47.7343 54.5582 47.7704 54.359C47.7796 54.3078 47.7797 54.2549 47.7839 54.2028C47.7841 54.2 47.7834 54.1972 47.783 54.1929H45.6105C45.6137 54.1871 45.6154 54.1834 45.6176 54.1801C45.732 54.005 45.8466 53.8301 45.9606 53.6548C45.9669 53.6452 45.9739 53.6442 45.9836 53.6442C46.5528 53.6443 47.122 53.6443 47.6911 53.6443H47.7126C47.7031 53.6245 47.695 53.6066 47.686 53.5891C47.5887 53.3985 47.4375 53.2666 47.2414 53.1838C47.1293 53.1364 47.0122 53.1074 46.8924 53.0881C46.7017 53.0574 46.5094 53.05 46.3166 53.0494C46.0875 53.0488 45.8584 53.049 45.6292 53.0488C45.6236 53.0488 45.618 53.0488 45.6094 53.0488C45.614 53.0415 45.6167 53.0371 45.6196 53.0328C45.733 52.8594 45.8464 52.686 45.9595 52.5124C45.9656 52.503 45.9721 52.5 45.983 52.5C47.1987 52.5002 48.4144 52.5002 49.6301 52.5002H49.647C49.6443 52.5053 49.6427 52.509 49.6405 52.5124C49.5258 52.6878 49.411 52.8632 49.2966 53.0389C49.2907 53.048 49.2839 53.0489 49.2748 53.0489C48.9605 53.0488 48.6463 53.0488 48.332 53.0488H48.3106C48.4558 53.2235 48.5444 53.4195 48.5731 53.6434H49.6475C49.6444 53.6494 49.6428 53.6531 49.6406 53.6564C49.5259 53.8319 49.4111 54.0073 49.2967 54.1829C49.2908 54.192 49.2841 54.193 49.2749 54.193C49.0545 54.1929 48.8341 54.1929 48.6138 54.1928C48.6035 54.1928 48.5965 54.1924 48.5945 54.2068C48.5687 54.3911 48.5116 54.5651 48.4208 54.7279C48.3126 54.9219 48.1672 55.0838 47.9914 55.2191C47.7726 55.3874 47.5269 55.5017 47.2621 55.5767C47.0763 55.6294 46.8866 55.6596 46.6937 55.6702C46.6918 55.6703 46.69 55.6706 46.6866 55.6711C46.6891 55.675 46.6908 55.6782 46.6931 55.681C47.075 56.1552 47.457 56.6294 47.839 57.1036C48.1939 57.5441 48.5488 57.9846 48.9036 58.4251C48.9063 58.4284 48.9082 58.4322 48.9105 58.4358H47.9326Z" fill="#ED7E21"/>
<path d="M33.2532 23.6243C33.1892 25.4752 33.1231 26.2652 33.9622 27.2851C35.2277 28.8402 37.5215 28.5137 38.138 26.7193C38.6866 25.1039 38.7155 22.3463 36.9698 21.4418C35.7329 20.7898 34.2002 21.2611 33.5464 22.4945C33.3616 22.8431 33.2611 23.23 33.2532 23.6243Z" fill="#FDB373"/>
<path d="M32.6336 25.0443C32.7339 25.3886 32.9672 25.679 33.2823 25.8517C33.7 26.0788 34.0189 25.7295 33.987 25.2817C33.9606 24.8782 33.7134 24.2736 33.2513 24.2321C32.9153 24.208 32.6234 24.4601 32.5992 24.7952C32.5931 24.8797 32.6048 24.9646 32.6336 25.0443Z" fill="#FDB373"/>
<path d="M34.0161 26.3943C34.0161 26.3943 33.8368 25.1939 33.3749 24.9014C32.913 24.6088 32.7046 24.4305 32.6212 24.0066C32.5377 23.5825 31.7181 22.9977 31.9697 22.3006C32.2212 21.6034 32.7065 21.5787 33.3199 20.3667C33.9333 19.1546 34.5955 18.4838 36.0255 18.9254C37.4554 19.3669 37.6546 20.2368 37.6546 20.2368C37.6546 20.2368 38.2194 20.165 38.6712 20.8805C39.5621 22.2916 36.5152 23.1386 35.3432 21.9698C34.775 21.4032 34.0322 21.931 33.7503 22.7731C33.4683 23.6152 34.6833 24.938 34.0161 26.3943H34.0161Z" fill="#333333"/>
<path d="M68.4325 43.0122L65.1602 34.542C65.2316 31.9826 67.4339 31.8108 67.4339 31.8108C69.372 31.6952 69.6769 33.2526 69.6769 33.2526L71.8738 42.5695C71.8738 42.5695 72.2592 48.0688 71.4084 52.1334L69.1479 52.0139C69.1479 52.0139 68.9123 44.8111 68.4325 43.0122V43.0122Z" fill="#042CAF"/>
</svg>
