<svg width="32" height="52" viewBox="0 0 32 52" fill="none" xmlns="http://www.w3.org/2000/svg">
<path d="M9.70549 30.0413L9.4945 23.9615L14.6989 23.6039C17.137 23.4608 19.1297 22.7455 20.6769 21.458C22.2711 20.1706 23.0681 18.287 23.0681 15.8074C23.0681 13.7093 22.3414 11.9688 20.8879 10.586C19.4344 9.20312 17.5355 8.51169 15.1912 8.51169C13.5502 8.51169 12.1201 8.94085 10.9011 9.79917C9.72894 10.6098 8.90843 11.635 8.43956 12.8748L0 10.4429C0.937729 7.29573 2.71941 4.76846 5.34506 2.86107C8.01758 0.953692 11.2996 0 15.1912 0C18.4733 0 21.3802 0.691426 23.9121 2.07428C26.444 3.40944 28.4132 5.26914 29.8198 7.65337C31.2733 9.98991 32 12.7079 32 15.8074C32 18.6685 31.3201 21.1719 29.9604 23.3177C28.6007 25.4636 26.7018 27.1325 24.2637 28.3246C21.8256 29.4691 18.989 30.0413 15.7538 30.0413H9.70549ZM14.2769 52C12.7297 52 11.3934 51.4516 10.2681 50.3549C9.18974 49.2105 8.65055 47.8276 8.65055 46.2063C8.65055 44.6327 9.18974 43.2976 10.2681 42.2008C11.3934 41.0564 12.7297 40.4842 14.2769 40.4842C15.8242 40.4842 17.137 41.0564 18.2154 42.2008C19.3407 43.2976 19.9033 44.6327 19.9033 46.2063C19.9033 47.8276 19.3407 49.2105 18.2154 50.3549C17.137 51.4516 15.8242 52 14.2769 52ZM9.84615 36.5502L9.63517 25.8927H18.9187L18.7077 36.5502H9.84615Z" fill="#042CB0"/>
</svg>
