<svg width="170" height="174" viewBox="0 0 170 174" fill="none" xmlns="http://www.w3.org/2000/svg">
<path d="M57.2504 10.9131H22.8359V67.7229H57.2504V10.9131Z" fill="#E1E1E1"/>
<path d="M56.1059 10.9131H21.6914V67.7229H56.1059V10.9131Z" fill="#ECECEC"/>
<path d="M54.6417 12.0635H23.1582V66.5692H54.6417V12.0635Z" fill="white"/>
<path d="M48.5043 19.1455H29.1445V59.486H48.5043V19.1455Z" fill="#ECECEC"/>
<path d="M29.145 45.2084C29.1002 41.4401 32.4978 37.7613 36.2397 37.2352C38.024 36.9843 39.9198 37.3375 41.587 36.6557C44.5629 35.4387 45.5098 31.4957 48.5048 30.3262L48.6414 59.4837H29.145V45.2085V45.2084Z" fill="#E1E1E1"/>
<path d="M44.6644 65.4634C44.6644 65.4634 41.1418 70.4135 37.6192 71.7442C34.0965 73.0749 33.5094 67.2199 35.591 64.0795C37.6726 60.9391 42.5307 59.0762 42.5307 59.0762L44.6644 65.4634V65.4634Z" fill="#1A2E35"/>
<path d="M19.0516 37.0557H7.60352V41.5698H19.0516V37.0557Z" fill="#F5F5F5"/>
<path d="M14.4764 46.0154C14.475 46.0136 14.4735 45.986 14.472 45.9334C14.4709 45.8729 14.4693 45.7969 14.4675 45.7019C14.4649 45.4894 14.4614 45.1932 14.4569 44.8135C14.4511 44.0342 14.443 42.9138 14.4326 41.5013L14.4764 41.5541C11.2512 41.5619 6.12207 41.5743 0.352164 41.5882C0.383973 41.5495 0.279562 41.6749 0.423288 41.5014V41.6455L0.42325 41.7905V42.08C0.423212 42.2726 0.423212 42.4646 0.423174 42.6558C0.423098 43.0385 0.422984 43.4183 0.422871 43.7951C0.422492 44.5485 0.422075 45.2895 0.421696 46.0154L0.35133 45.9304C4.37355 45.9458 7.89297 45.9593 10.4173 45.969C11.6747 45.9793 12.6837 45.9875 13.3884 45.9933C13.7312 45.998 13.9997 46.0018 14.1918 46.0044C14.2783 46.0067 14.3475 46.0085 14.402 46.0099C14.4497 46.0117 14.4749 46.0135 14.4764 46.0154C14.4779 46.0173 14.4558 46.0191 14.411 46.0209C14.3588 46.0223 14.2924 46.0241 14.2095 46.0264C14.021 46.029 13.7576 46.0328 13.4213 46.0376C12.7204 46.0433 11.7169 46.0515 10.4664 46.0618C7.92978 46.0715 4.39315 46.085 0.35133 46.1004L0.280965 46.1007L0.280927 46.0154C0.28051 45.2895 0.280131 44.5485 0.279714 43.795C0.279638 43.4183 0.279524 43.0385 0.279449 42.6558C0.279411 42.4646 0.279373 42.2726 0.279335 42.08L0.279297 41.7905V41.5014C0.423326 41.3274 0.319749 41.4531 0.352164 41.4143C6.12207 41.4282 11.2512 41.4406 14.4764 41.4484L14.5206 41.4485L14.5202 41.5013C14.5099 42.9272 14.5017 44.0582 14.496 44.8449C14.4915 45.2196 14.4879 45.5119 14.4853 45.7214C14.4835 45.8126 14.482 45.8857 14.4808 45.9437C14.4793 45.993 14.4779 46.0172 14.4764 46.0154V46.0154Z" fill="#E1E1E1"/>
<path d="M87.6603 38.7637H69.2148V43.63H87.6603V38.7637Z" fill="#F5F5F5"/>
<path d="M79.8598 48.7588C79.8579 48.7569 79.856 48.7271 79.8541 48.6704C79.8525 48.6053 79.8505 48.5232 79.8481 48.4208C79.8448 48.1918 79.8402 47.8724 79.8342 47.4631C79.8268 46.623 79.8161 45.4153 79.8026 43.8925L79.8598 43.9495C75.6481 43.9578 68.9501 43.9712 61.4154 43.9862C61.457 43.9444 61.3207 44.0797 61.5083 43.8926V44.0479L61.5083 44.2043V44.5164C61.5082 44.724 61.5082 44.9309 61.5082 45.1371C61.5081 45.5496 61.5079 45.9591 61.5078 46.3652C61.5073 47.1774 61.5067 47.9763 61.5062 48.7588L61.4144 48.6672C66.6668 48.6837 71.2627 48.6983 74.5591 48.7088C76.2011 48.7199 77.5187 48.7287 78.439 48.7349C78.8867 48.7401 79.2373 48.7441 79.4882 48.747C79.6011 48.7494 79.6914 48.7514 79.7626 48.7529C79.825 48.7549 79.8578 48.7568 79.8598 48.7588C79.8618 48.7608 79.8329 48.7628 79.7744 48.7648C79.7062 48.7663 79.6195 48.7682 79.5112 48.7706C79.2651 48.7735 78.9211 48.7776 78.4819 48.7827C77.5666 48.7889 76.2562 48.7978 74.6232 48.8088C71.3108 48.8193 66.6924 48.8338 61.4144 48.8505L61.3225 48.8507L61.3224 48.7588C61.3219 47.9763 61.3214 47.1774 61.3208 46.3652C61.3207 45.9591 61.3206 45.5496 61.3205 45.1371C61.3204 44.9309 61.3204 44.724 61.3203 44.5164L61.3203 44.2043V43.8926C61.5084 43.705 61.3731 43.8406 61.4154 43.7987C68.9501 43.8137 75.6481 43.8271 79.8598 43.8355L79.9174 43.8356L79.917 43.8925C79.9035 45.4297 79.8928 46.6489 79.8853 47.497C79.8794 47.9009 79.8748 48.216 79.8715 48.4419C79.869 48.5402 79.8671 48.619 79.8655 48.6815C79.8636 48.7347 79.8617 48.7607 79.8598 48.7588V48.7588Z" fill="#E1E1E1"/>
<path d="M123.563 5.64556C123.561 5.64363 123.559 5.61384 123.557 5.55712C123.556 5.49198 123.554 5.40993 123.551 5.30751C123.548 5.0785 123.543 4.75917 123.537 4.34981C123.53 3.50974 123.519 2.30198 123.506 0.779231L123.563 0.836172C119.351 0.844566 112.653 0.857912 105.119 0.872884C105.16 0.831143 105.024 0.966385 105.211 0.779307V0.934663L105.211 1.09104V1.40308C105.211 1.61068 105.211 1.81765 105.211 2.02386C105.211 2.43631 105.211 2.84578 105.211 3.25192C105.21 4.06413 105.21 4.86299 105.209 5.64552L105.117 5.55387C110.37 5.57047 114.966 5.58506 118.262 5.59554C119.904 5.60658 121.222 5.61546 122.142 5.62166C122.59 5.6268 122.94 5.63081 123.191 5.63368C123.304 5.63614 123.395 5.63811 123.466 5.63962C123.528 5.64159 123.561 5.64351 123.563 5.64556C123.565 5.64752 123.536 5.64949 123.478 5.65149C123.409 5.653 123.323 5.65493 123.214 5.65735C122.968 5.66022 122.624 5.66427 122.185 5.66941C121.27 5.67561 119.959 5.6845 118.326 5.69554C115.014 5.70597 110.396 5.72057 105.117 5.7372L105.026 5.73747L105.026 5.64552C105.025 4.86299 105.025 4.06413 105.024 3.25192C105.024 2.84578 105.024 2.43631 105.024 2.02385C105.024 1.81765 105.024 1.61068 105.023 1.40307L105.023 1.09104V0.779305C105.211 0.591736 105.076 0.727318 105.119 0.685463C112.653 0.700435 119.351 0.713782 123.563 0.722176L123.621 0.72229L123.62 0.77923C123.607 2.31642 123.596 3.53564 123.588 4.38373C123.583 4.78764 123.578 5.1027 123.575 5.32864C123.572 5.42695 123.57 5.50574 123.569 5.56824C123.567 5.6214 123.565 5.64745 123.563 5.64556V5.64556Z" fill="#E1E1E1"/>
<path d="M163.106 71.5049C163.104 71.503 163.102 71.4732 163.1 71.4165C163.099 71.3514 163.097 71.2693 163.094 71.1669C163.091 70.9379 163.086 70.6185 163.08 70.2092C163.073 69.3691 163.062 68.1614 163.049 66.6386L163.106 66.6955C158.894 66.7039 152.196 66.7173 144.662 66.7323C144.703 66.6905 144.567 66.8258 144.754 66.6387V66.794L144.754 66.9504V67.2625C144.754 67.4701 144.754 67.677 144.754 67.8832C144.754 68.2957 144.754 68.7052 144.754 69.1113C144.753 69.9235 144.753 70.7224 144.752 71.5049L144.66 71.4132C149.913 71.4298 154.509 71.4444 157.805 71.4549C159.447 71.466 160.765 71.4748 161.685 71.481C162.133 71.4862 162.483 71.4902 162.734 71.4931C162.847 71.4955 162.938 71.4975 163.009 71.499C163.071 71.501 163.104 71.5029 163.106 71.5049C163.108 71.5069 163.079 71.5089 163.02 71.5109C162.952 71.5124 162.866 71.5143 162.757 71.5167C162.511 71.5196 162.167 71.5236 161.728 71.5288C160.813 71.535 159.502 71.5439 157.869 71.5549C154.557 71.5653 149.938 71.5799 144.66 71.5966L144.569 71.5968L144.568 71.5049C144.568 70.7224 144.567 69.9235 144.567 69.1113C144.567 68.7052 144.567 68.2957 144.567 67.8832C144.567 67.677 144.566 67.4701 144.566 67.2625L144.566 66.9504V66.6387C144.754 66.4511 144.619 66.5867 144.662 66.5448C152.196 66.5598 158.894 66.5732 163.106 66.5816L163.164 66.5817L163.163 66.6386C163.15 68.1758 163.139 69.395 163.131 70.2431C163.126 70.647 163.121 70.9621 163.118 71.188C163.115 71.2863 163.113 71.3651 163.112 71.4276C163.11 71.4808 163.108 71.5068 163.106 71.5049V71.5049Z" fill="#E1E1E1"/>
<path d="M166.572 32.8833C166.57 32.8812 166.567 32.8481 166.565 32.7852C166.564 32.7128 166.561 32.6217 166.559 32.508C166.555 32.2537 166.55 31.8992 166.543 31.4446C166.535 30.5118 166.523 29.1708 166.508 27.48L166.572 27.5433C161.895 27.5525 154.458 27.5673 146.092 27.584C146.138 27.5377 145.987 27.6878 146.195 27.4801V27.5657L146.195 27.6526V28.1727C146.195 28.4032 146.195 28.633 146.195 28.862C146.195 29.3199 146.195 29.7746 146.194 30.2256C146.194 31.1274 146.193 32.0144 146.193 32.8833L146.091 32.7815C151.923 32.8 157.026 32.8162 160.686 32.8278C162.509 32.8401 163.972 32.8499 164.994 32.8568C165.491 32.8625 165.881 32.867 166.159 32.8702C166.284 32.8729 166.385 32.8751 166.464 32.8768C166.533 32.8789 166.569 32.8811 166.572 32.8833C166.574 32.8855 166.542 32.8878 166.477 32.8899C166.401 32.8916 166.305 32.8937 166.185 32.8965C165.911 32.8997 165.529 32.9042 165.042 32.9098C164.025 32.9167 162.57 32.9266 160.757 32.9388C157.079 32.9504 151.951 32.9666 146.091 32.9852L145.989 32.9855L145.989 32.8833C145.988 32.0145 145.988 31.1274 145.987 30.2256C145.987 29.7746 145.987 29.3199 145.986 28.862C145.986 28.633 145.986 28.4032 145.986 28.1727L145.986 27.8263V27.4801C146.195 27.2718 146.045 27.4224 146.092 27.3759C154.458 27.3926 161.895 27.4073 166.572 27.4166L166.636 27.4168L166.635 27.48C166.62 29.1868 166.608 30.5406 166.6 31.4823C166.593 31.9308 166.588 32.2805 166.585 32.5314C166.582 32.6406 166.58 32.7281 166.578 32.7975C166.576 32.8565 166.574 32.8854 166.572 32.8833V32.8833Z" fill="#E1E1E1"/>
<path d="M169.347 27.4798C169.345 27.4772 169.342 27.4424 169.34 27.3769C169.337 27.2994 169.335 27.2054 169.331 27.0906C169.327 26.8247 169.321 26.4633 169.313 26.0072C169.303 25.0598 169.289 23.7218 169.272 22.0764L169.347 22.1512C166.159 22.1588 161.822 22.1691 157.042 22.1805C156.949 22.2735 157.168 22.0537 157.146 22.0769V22.1645L157.146 22.2533V22.4305L157.146 22.7838C157.146 23.0187 157.146 23.2523 157.146 23.4845C157.145 23.9489 157.145 24.4078 157.145 24.8598C157.143 25.7636 157.142 26.6401 157.141 27.4797L157.042 27.3807C160.594 27.3997 163.653 27.4161 165.844 27.4278C166.926 27.4393 167.792 27.4485 168.409 27.4552C168.697 27.4603 168.926 27.4644 169.1 27.4676C169.259 27.4717 169.343 27.4757 169.347 27.4798C169.351 27.4839 169.275 27.4879 169.124 27.492C168.955 27.4951 168.733 27.4992 168.453 27.5045C167.842 27.511 166.983 27.5203 165.912 27.5318C163.703 27.5435 160.621 27.5598 157.042 27.5789L156.942 27.5794L156.942 27.4797C156.941 26.6401 156.94 25.7636 156.939 24.8598C156.938 24.4078 156.938 23.9489 156.938 23.4845C156.937 23.2523 156.937 23.0187 156.937 22.7838L156.937 22.4305V22.0769C156.914 22.0989 157.135 21.8793 157.042 21.9723C161.822 21.9837 166.159 21.994 169.347 22.0016L169.423 22.0018L169.422 22.0764C169.405 23.7409 169.392 25.0943 169.382 26.0527C169.374 26.5017 169.368 26.8576 169.363 27.1193C169.358 27.361 169.353 27.485 169.347 27.4798V27.4798Z" fill="#E1E1E1"/>
<path d="M154.663 130.137L73.4839 130.137C71.2869 130.137 69.5059 128.361 69.5059 126.17L69.5059 6.53747C69.5059 4.34649 71.2869 2.57035 73.4839 2.57035L154.663 2.57031C156.86 2.57031 158.641 4.34653 158.641 6.53758L158.641 126.169C158.641 128.361 156.86 130.137 154.663 130.137V130.137Z" fill="#33535F"/>
<path d="M154.664 130.138C154.664 130.138 154.758 130.131 154.942 130.12C155.034 130.119 155.148 130.102 155.283 130.079C155.42 130.063 155.575 130.023 155.751 129.975C156.098 129.872 156.525 129.703 156.963 129.389C157.396 129.075 157.85 128.621 158.176 127.992C158.342 127.679 158.463 127.322 158.547 126.937C158.624 126.548 158.623 126.132 158.62 125.694C158.619 124.818 158.618 123.86 158.616 122.822C158.614 120.747 158.611 118.353 158.608 115.658C158.601 104.875 158.591 89.2753 158.579 69.9992C158.576 60.3606 158.572 49.8031 158.568 38.4693C158.567 32.8023 158.565 26.9413 158.564 20.9042C158.563 17.8856 158.563 14.8229 158.562 11.7185C158.562 10.1662 158.561 8.60351 158.561 7.03066C158.556 6.63541 158.576 6.24609 158.498 5.86699C158.426 5.48882 158.316 5.11251 158.131 4.77099C157.779 4.07852 157.208 3.50265 156.523 3.12442C156.177 2.94259 155.806 2.81011 155.422 2.72928C155.036 2.65351 154.644 2.65305 154.239 2.65472C153.436 2.65487 152.63 2.65502 151.821 2.65513C150.204 2.65536 148.578 2.65566 146.942 2.65589C143.67 2.65634 140.361 2.65683 137.017 2.65729C130.328 2.65801 123.498 2.65876 116.545 2.65956C102.64 2.66012 88.2422 2.66073 73.4962 2.66133C72.5934 2.66413 71.6994 2.98048 71.0054 3.55302C70.313 4.12646 69.8339 4.94196 69.6668 5.81946C69.5733 6.25634 69.6038 6.70974 69.5973 7.16829V8.53583C69.5973 9.44676 69.5973 10.3562 69.5972 11.2642C69.5971 14.8961 69.597 18.504 69.5968 22.0856C69.5963 29.2489 69.5959 36.3071 69.5955 43.2425C69.5937 57.1133 69.5919 70.4928 69.5903 83.2382C69.5874 95.9836 69.5846 108.095 69.582 119.43C69.5816 120.847 69.5812 122.251 69.5808 123.643C69.5806 124.34 69.5804 125.033 69.5802 125.723C69.5814 126.069 69.5717 126.41 69.6265 126.742C69.6663 127.078 69.7744 127.399 69.8977 127.711C70.4293 128.946 71.6239 129.862 72.9409 130.026C73.2665 130.075 73.599 130.068 73.9353 130.068C74.27 130.068 74.6038 130.069 74.9369 130.069C75.6029 130.069 76.2657 130.069 76.9251 130.069C82.2007 130.071 87.2637 130.073 92.0961 130.075C111.425 130.087 127.067 130.097 137.878 130.104C143.282 130.111 147.478 130.116 150.325 130.12C151.746 130.124 152.831 130.127 153.562 130.129C154.291 130.132 154.664 130.138 154.664 130.138C154.664 130.138 154.291 130.145 153.562 130.148C152.831 130.15 151.746 130.153 150.325 130.156C147.478 130.16 143.282 130.166 137.878 130.173C127.067 130.18 111.425 130.19 92.0961 130.202C87.2637 130.203 82.2007 130.205 76.9251 130.207C76.2657 130.208 75.6029 130.208 74.9369 130.208C74.6038 130.208 74.27 130.208 73.9353 130.208C73.6034 130.208 73.2612 130.216 72.9213 130.165C71.5562 129.996 70.3176 129.049 69.7657 127.767C69.6373 127.445 69.5254 127.111 69.4836 126.763C69.4266 126.417 69.4367 126.065 69.4351 125.723C69.4349 125.033 69.4347 124.34 69.4345 123.643C69.4341 122.251 69.4337 120.847 69.4333 119.43C69.4307 108.095 69.4279 95.9836 69.425 83.2382C69.4233 70.4928 69.4216 57.1133 69.4198 43.2425C69.4193 36.3071 69.4188 29.2489 69.4183 22.0856C69.4183 18.504 69.4182 14.8961 69.418 11.2642C69.418 10.3562 69.418 9.44676 69.418 8.53583L69.418 7.16829C69.4247 6.71708 69.3929 6.2484 69.4906 5.78645C69.6652 4.868 70.1668 4.01485 70.891 3.41532C71.6162 2.81639 72.5532 2.48484 73.4962 2.48242C88.2422 2.48307 102.64 2.48371 116.545 2.48427C123.498 2.48499 130.328 2.48575 137.017 2.48647C140.361 2.48688 143.67 2.48738 146.942 2.48791C148.578 2.48809 150.204 2.4884 151.821 2.48866C152.63 2.48874 153.436 2.48893 154.239 2.48904C154.637 2.48745 155.052 2.48772 155.454 2.56711C155.855 2.65139 156.242 2.78973 156.602 2.97961C157.316 3.37399 157.91 3.97428 158.277 4.69624C158.47 5.0524 158.585 5.44459 158.66 5.83878C158.741 6.23596 158.72 6.64161 158.724 7.03066C158.724 8.60351 158.724 10.1662 158.724 11.7185C158.723 14.8229 158.722 17.8856 158.722 20.9042C158.72 26.9413 158.719 32.8023 158.717 38.4693C158.713 49.8031 158.71 60.3606 158.706 69.9992C158.694 89.2753 158.684 104.875 158.678 115.658C158.675 118.353 158.672 120.747 158.669 122.822C158.668 123.86 158.667 124.818 158.665 125.694C158.666 126.13 158.666 126.553 158.586 126.945C158.5 127.334 158.377 127.694 158.209 128.009C157.876 128.642 157.417 129.097 156.979 129.411C156.536 129.725 156.105 129.892 155.756 129.993C155.579 130.04 155.423 130.078 155.286 130.092C155.149 130.114 155.035 130.129 154.942 130.129C154.758 130.137 154.664 130.138 154.664 130.138V130.138Z" fill="#1A2E35"/>
<path d="M116.495 126.139C117.831 124.807 117.831 122.648 116.495 121.316C115.16 119.984 112.994 119.984 111.659 121.316C110.323 122.648 110.323 124.807 111.659 126.139C112.994 127.471 115.16 127.471 116.495 126.139Z" fill="#375A64"/>
<path d="M123.206 9.31439H105.002C104.301 9.31439 103.732 8.74756 103.732 8.04833C103.732 7.34909 104.301 6.78223 105.002 6.78223H123.206C123.907 6.78223 124.476 7.34909 124.476 8.04833C124.476 8.74756 123.907 9.31439 123.206 9.31439Z" fill="#375A64"/>
<path d="M155.758 11.6777H72.2441V118.211H155.758V11.6777Z" fill="white"/>
<path d="M141.67 62.0059H86.3502C86.0457 62.0059 85.7988 62.252 85.7988 62.5557V71.176C85.7988 71.4797 86.0457 71.7258 86.3502 71.7258H141.67C141.974 71.7258 142.221 71.4797 142.221 71.176V62.5557C142.221 62.252 141.974 62.0059 141.67 62.0059Z" fill="#E6EAF7"/>
<path d="M141.671 71.7279C141.666 71.717 141.797 71.744 141.983 71.6185C142.071 71.5553 142.165 71.4427 142.196 71.283C142.216 71.1245 142.199 70.927 142.202 70.7104C142.198 69.8323 142.192 68.5469 142.184 66.8927C142.181 66.0634 142.178 65.142 142.175 64.1338C142.174 63.6295 142.172 63.1035 142.171 62.5564C142.176 62.3047 141.956 62.0674 141.694 62.0622C141.41 62.0624 141.12 62.0627 140.826 62.0629C138.464 62.0672 135.776 62.0721 132.804 62.0775C120.912 62.0848 104.491 62.0951 86.3544 62.1063C86.1164 62.0995 85.9015 62.3059 85.8995 62.5415L85.8985 63.3824C85.8985 63.9444 85.8985 64.5047 85.8984 65.0631C85.8983 66.1799 85.8982 67.2894 85.8981 68.3908C85.898 68.9415 85.8979 69.4902 85.8978 70.0368L85.8976 70.855C85.9003 70.9843 85.8915 71.1424 85.9036 71.2477C85.9202 71.3581 85.9801 71.4611 86.0677 71.5309C86.1574 71.6025 86.2621 71.6353 86.3863 71.6306L86.7928 71.6308L87.6035 71.6309C88.1427 71.6311 88.6798 71.6313 89.2144 71.6314C93.4914 71.6334 97.6171 71.6353 101.547 71.6372C109.407 71.6451 116.484 71.6522 122.43 71.6582C128.371 71.6715 133.179 71.6821 136.508 71.6895C138.167 71.6976 139.456 71.7038 140.336 71.708C140.77 71.7123 141.102 71.7156 141.331 71.7178C141.556 71.7211 141.671 71.7279 141.671 71.7279C141.671 71.7279 141.556 71.7346 141.331 71.7379C141.102 71.7402 140.77 71.7435 140.336 71.7477C139.456 71.752 138.167 71.7582 136.508 71.7662C133.179 71.7736 128.371 71.7843 122.43 71.7975C116.484 71.8035 109.407 71.8107 101.547 71.8186C97.6171 71.8204 93.4914 71.8223 89.2144 71.8243C88.6798 71.8245 88.1427 71.8246 87.6035 71.8248L86.7928 71.825L86.3863 71.8251C86.2395 71.8324 86.0669 71.7845 85.9455 71.6827C85.8206 71.5833 85.7344 71.4359 85.7105 71.2775C85.6938 71.1127 85.7058 70.9976 85.7021 70.855L85.7019 70.0368C85.7018 69.4902 85.7017 68.9415 85.7016 68.3908C85.7015 67.2894 85.7014 66.1799 85.7013 65.0631C85.7013 64.5047 85.7012 63.9444 85.7012 63.3824L85.7022 62.5345C85.7049 62.1956 86.0149 61.8997 86.3544 61.9094C104.491 61.9207 120.912 61.9308 132.804 61.9383C135.776 61.9437 138.464 61.9485 140.826 61.9528C141.122 61.954 141.413 61.955 141.699 61.9561C142.018 61.9643 142.281 62.2529 142.273 62.5561C142.272 63.1033 142.27 63.6294 142.269 64.1338C142.266 65.142 142.263 66.0634 142.26 66.8927C142.252 68.5469 142.246 69.8323 142.242 70.7104C142.235 70.9296 142.25 71.1186 142.226 71.2888C142.19 71.4569 142.088 71.5721 141.994 71.6349C141.899 71.6993 141.812 71.7184 141.756 71.7257C141.7 71.7328 141.671 71.7279 141.671 71.7279V71.7279Z" fill="#1A2E35"/>
<path d="M141.73 75.3604H86.4108C86.1062 75.3604 85.8594 75.6065 85.8594 75.9102V84.5305C85.8594 84.8342 86.1062 85.0804 86.4108 85.0804H141.73C142.035 85.0804 142.281 84.8342 142.281 84.5305V75.9102C142.281 75.6065 142.035 75.3604 141.73 75.3604Z" fill="#E6EAF7"/>
<path d="M141.731 85.0824C141.727 85.0715 141.858 85.0985 142.043 84.973C142.132 84.9098 142.226 84.7971 142.257 84.6375C142.276 84.479 142.26 84.2815 142.263 84.0649C142.258 83.1868 142.252 81.9013 142.244 80.2472C142.241 79.4179 142.239 78.4965 142.235 77.4883C142.234 76.984 142.233 76.4579 142.231 75.9109C142.236 75.6592 142.017 75.4219 141.754 75.4167C141.47 75.4169 141.181 75.4171 140.887 75.4174C138.525 75.4217 135.836 75.4266 132.865 75.432C120.972 75.4394 104.551 75.4495 86.415 75.4608C86.1769 75.454 85.962 75.6604 85.9601 75.896L85.9591 76.7369C85.9591 77.2989 85.9591 77.8592 85.959 78.4176C85.9589 79.5345 85.9588 80.6439 85.9586 81.7453C85.9585 82.296 85.9584 82.8447 85.9583 83.3913L85.9582 84.2096C85.9608 84.3388 85.9521 84.4969 85.9641 84.6022C85.9807 84.7126 86.0406 84.8156 86.1283 84.8854C86.218 84.957 86.3226 84.9899 86.4468 84.9852L86.8534 84.9853L87.664 84.9854C88.2033 84.9856 88.7403 84.9858 89.275 84.9859C93.552 84.9879 97.6776 84.9898 101.608 84.9917C109.467 84.9996 116.545 85.0068 122.491 85.0127C128.432 85.026 133.24 85.0367 136.569 85.044C138.227 85.0521 139.516 85.0583 140.397 85.0625C140.83 85.0668 141.162 85.0701 141.392 85.0723C141.616 85.0756 141.731 85.0824 141.731 85.0824C141.731 85.0824 141.616 85.0891 141.392 85.0924C141.163 85.0947 140.83 85.098 140.397 85.1022C139.516 85.1065 138.227 85.1127 136.569 85.1207C133.24 85.1281 128.432 85.1388 122.491 85.152C116.545 85.158 109.467 85.1651 101.608 85.1731C97.6776 85.1749 93.552 85.1768 89.275 85.1788C88.7403 85.179 88.2033 85.1791 87.664 85.1793L86.8534 85.1795L86.4468 85.1796C86.3001 85.1869 86.1275 85.139 86.0061 85.0372C85.8811 84.9378 85.795 84.7904 85.7711 84.632C85.7544 84.4672 85.7664 84.3521 85.7627 84.2096L85.7625 83.3913C85.7624 82.8447 85.7623 82.296 85.7622 81.7453C85.7621 80.6439 85.7619 79.5345 85.7618 78.4176C85.7618 77.8592 85.7618 77.2989 85.7617 76.7369L85.7628 75.8891C85.7654 75.5501 86.0755 75.2542 86.415 75.2639C104.551 75.2752 120.972 75.2854 132.865 75.2928C135.836 75.2982 138.525 75.303 140.887 75.3073C141.183 75.3084 141.473 75.3096 141.759 75.3106C142.078 75.3188 142.341 75.6074 142.334 75.9106C142.332 76.4578 142.331 76.9839 142.33 77.4883C142.326 78.4965 142.324 79.4179 142.321 80.2472C142.313 81.9014 142.307 83.1869 142.302 84.0649C142.296 84.2841 142.31 84.4731 142.286 84.6433C142.25 84.8114 142.148 84.9266 142.055 84.9894C141.96 85.0538 141.873 85.0729 141.817 85.0802C141.76 85.0873 141.731 85.0824 141.731 85.0824V85.0824Z" fill="#1A2E35"/>
<path d="M91.6258 65.5273V67.7726H91.3622L90.0112 66.0982V67.7726H89.6895V65.5273H89.9534L91.3041 67.2016V65.5273H91.6258V65.5273Z" fill="#1A2E35"/>
<path d="M93.6078 66.7483V67.7748H93.3153V67.5503C93.2124 67.7043 93.0225 67.794 92.7555 67.794C92.3697 67.794 92.125 67.5887 92.125 67.2937C92.125 67.021 92.302 66.7965 92.8103 66.7965H93.299V66.7354C93.299 66.4756 93.148 66.3248 92.8425 66.3248C92.6396 66.3248 92.4338 66.3955 92.302 66.5078L92.1735 66.2768C92.3505 66.1356 92.6044 66.0586 92.8777 66.0586C93.3442 66.0586 93.6078 66.2833 93.6078 66.7483V66.7483ZM93.299 67.2551V67.0178H92.8233C92.5175 67.0178 92.4308 67.1364 92.4308 67.2807C92.4308 67.4508 92.5723 67.5565 92.807 67.5565C93.0388 67.5565 93.222 67.4508 93.299 67.2551V67.2551Z" fill="#1A2E35"/>
<path d="M97.0102 66.7965V67.7748H96.7014V66.8317C96.7014 66.4982 96.5404 66.3346 96.2604 66.3346C95.9516 66.3346 95.7492 66.5301 95.7492 66.8992V67.7748H95.4404V66.8317C95.4404 66.4982 95.2797 66.3346 94.9998 66.3346C94.691 66.3346 94.4885 66.5301 94.4885 66.8992V67.7748H94.1797V66.0747H94.4755V66.3281C94.5977 66.155 94.8069 66.0586 95.0642 66.0586C95.3245 66.0586 95.5433 66.1613 95.6559 66.373C95.7847 66.1806 96.0227 66.0586 96.3119 66.0586C96.727 66.0586 97.0102 66.296 97.0102 66.7965V66.7965Z" fill="#1A2E35"/>
<path d="M99.1295 67.0274H97.7463C97.7848 67.3258 98.0262 67.5246 98.3639 67.5246C98.563 67.5246 98.7304 67.4572 98.8559 67.3193L99.0266 67.5182C98.8718 67.6978 98.6371 67.794 98.3542 67.794C97.804 67.794 97.4375 67.4316 97.4375 66.9248C97.4375 66.4212 97.8011 66.0586 98.2931 66.0586C98.7852 66.0586 99.1358 66.4116 99.1358 66.9344C99.1358 66.9601 99.1325 66.9985 99.1295 67.0274V67.0274ZM97.7463 66.8061H98.84C98.8078 66.5205 98.5923 66.3185 98.2931 66.3185C97.9973 66.3185 97.7785 66.5174 97.7463 66.8061H97.7463Z" fill="#1A2E35"/>
<path d="M142.197 90.4141H86.1201C86.0246 90.4141 85.9473 90.4912 85.9473 90.5864V99.9618C85.9473 100.057 86.0246 100.134 86.1201 100.134H142.197C142.292 100.134 142.369 100.057 142.369 99.9618V90.5864C142.369 90.4912 142.292 90.4141 142.197 90.4141Z" fill="#ED7E21"/>
<path d="M109.061 94.2197H109.699V95.9647H110.775V96.469H109.061V94.2197V94.2197Z" fill="white"/>
<path d="M110.881 95.5947C110.881 95.0708 111.297 94.6982 111.867 94.6982C112.444 94.6982 112.853 95.0708 112.853 95.5947C112.853 96.1216 112.444 96.4975 111.867 96.4975C111.297 96.4975 110.881 96.1216 110.881 95.5947ZM112.234 95.5947C112.234 95.3311 112.076 95.1834 111.867 95.1834C111.661 95.1834 111.5 95.3311 111.5 95.5947C111.5 95.8613 111.661 96.0123 111.867 96.0123C112.076 96.0123 112.234 95.8613 112.234 95.5947Z" fill="white"/>
<path d="M115.014 94.7271V96.1504C115.014 96.8095 114.64 97.1211 113.989 97.1211C113.654 97.1211 113.335 97.0439 113.122 96.8929L113.345 96.4654C113.489 96.5813 113.728 96.6518 113.934 96.6518C114.263 96.6518 114.401 96.5041 114.401 96.2309V96.1729C114.282 96.3114 114.105 96.3786 113.883 96.3786C113.419 96.3786 113.025 96.0511 113.025 95.5368C113.025 95.0257 113.419 94.6982 113.883 94.6982C114.124 94.6982 114.311 94.775 114.43 94.939V94.7271H115.014V94.7271ZM114.408 95.5368C114.408 95.3248 114.246 95.1834 114.028 95.1834C113.808 95.1834 113.644 95.3248 113.644 95.5368C113.644 95.7487 113.808 95.8934 114.028 95.8934C114.246 95.8934 114.408 95.7487 114.408 95.5368Z" fill="white"/>
<path d="M116.371 94.2197H117.009V96.469H116.371V94.2197Z" fill="white"/>
<path d="M119.291 95.4725V96.4687H118.679V95.5722C118.679 95.3215 118.569 95.2155 118.392 95.2155C118.195 95.2155 118.044 95.3374 118.044 95.6269V96.4687H117.432V94.7271H118.015V94.9165C118.153 94.7721 118.35 94.6982 118.569 94.6982C118.978 94.6982 119.291 94.9327 119.291 95.4725V95.4725Z" fill="white"/>
<path d="M90.251 80.2765C90.251 80.7436 89.8712 81.1223 89.4028 81.1223C88.9344 81.1223 88.5547 80.7436 88.5547 80.2765C88.5547 79.8094 88.9344 79.4307 89.4028 79.4307C89.8712 79.4307 90.251 79.8094 90.251 80.2765Z" fill="#1A2E35"/>
<path d="M92.9209 80.2765C92.9209 80.7436 92.5412 81.1223 92.0728 81.1223C91.6043 81.1223 91.2246 80.7436 91.2246 80.2765C91.2246 79.8094 91.6043 79.4307 92.0728 79.4307C92.5412 79.4307 92.9209 79.8094 92.9209 80.2765Z" fill="#1A2E35"/>
<path d="M95.5869 80.2765C95.5869 80.7436 95.2072 81.1223 94.7388 81.1223C94.2704 81.1223 93.8906 80.7436 93.8906 80.2765C93.8906 79.8094 94.2704 79.4307 94.7388 79.4307C95.2072 79.4307 95.5869 79.8094 95.5869 80.2765Z" fill="#1A2E35"/>
<path d="M98.2569 80.2765C98.2569 80.7436 97.8771 81.1223 97.4087 81.1223C96.9403 81.1223 96.5605 80.7436 96.5605 80.2765C96.5605 79.8094 96.9403 79.4307 97.4087 79.4307C97.8771 79.4307 98.2569 79.8094 98.2569 80.2765Z" fill="#1A2E35"/>
<path d="M100.921 80.2765C100.921 80.7436 100.541 81.1223 100.073 81.1223C99.6043 81.1223 99.2246 80.7436 99.2246 80.2765C99.2246 79.8094 99.6043 79.4307 100.073 79.4307C100.541 79.4307 100.921 79.8094 100.921 80.2765Z" fill="#1A2E35"/>
<path d="M103.591 80.2765C103.591 80.7436 103.211 81.1223 102.743 81.1223C102.274 81.1223 101.895 80.7436 101.895 80.2765C101.895 79.8094 102.274 79.4307 102.743 79.4307C103.211 79.4307 103.591 79.8094 103.591 80.2765Z" fill="#1A2E35"/>
<path d="M106.257 80.2765C106.257 80.7436 105.877 81.1223 105.409 81.1223C104.94 81.1223 104.561 80.7436 104.561 80.2765C104.561 79.8094 104.94 79.4307 105.409 79.4307C105.877 79.4307 106.257 79.8094 106.257 80.2765Z" fill="#1A2E35"/>
<path d="M108.927 80.2765C108.927 80.7436 108.547 81.1223 108.079 81.1223C107.61 81.1223 107.23 80.7436 107.23 80.2765C107.23 79.8094 107.61 79.4307 108.079 79.4307C108.547 79.4307 108.927 79.8094 108.927 80.2765Z" fill="#1A2E35"/>
<path d="M137.88 79.6599H137.66V79.3509C137.66 78.7727 137.189 78.3027 136.609 78.3027C136.029 78.3027 135.558 78.7727 135.558 79.3509V79.6599H135.239C135.025 79.6599 134.852 79.833 134.852 80.0465V81.749C134.852 81.9625 135.025 82.1356 135.239 82.1356H137.88C138.094 82.1356 138.268 81.9625 138.268 81.749V80.0465C138.268 79.833 138.094 79.6599 137.88 79.6599ZM136.961 81.5812H136.161L136.368 81.0612C136.224 80.9899 136.122 80.8447 136.122 80.6729C136.122 80.4316 136.318 80.2361 136.56 80.2361C136.801 80.2361 136.998 80.4316 136.998 80.6729C136.998 80.8462 136.894 80.993 136.747 81.0635L136.961 81.5812V81.5812ZM137.34 79.6599H135.877V79.3509C135.877 78.9488 136.206 78.6215 136.609 78.6215C137.012 78.6215 137.34 78.9488 137.34 79.3509V79.6599Z" fill="#33535F"/>
<path d="M114.161 56.8578C123.474 56.8578 131.024 49.3284 131.024 40.0403C131.024 30.7521 123.474 23.2227 114.161 23.2227C104.847 23.2227 97.2969 30.7521 97.2969 40.0403C97.2969 49.3284 104.847 56.8578 114.161 56.8578Z" fill="#E6EAF7"/>
<path d="M131.025 40.041C131.025 40.041 131.014 39.9487 131.001 39.7688C130.99 39.5826 130.973 39.3169 130.951 38.9704C130.941 38.7945 130.929 38.5984 130.917 38.3825C130.894 38.1672 130.848 37.9338 130.81 37.6799C130.77 37.4261 130.727 37.153 130.68 36.8613C130.646 36.567 130.536 36.2684 130.461 35.9441C130.164 34.6447 129.555 33.109 128.594 31.4811C127.625 29.8601 126.227 28.1663 124.322 26.7285C124.083 26.5508 123.841 26.371 123.596 26.1891C123.341 26.0223 123.073 25.8696 122.807 25.7063C122.536 25.5526 122.279 25.3655 121.988 25.2341C121.701 25.0965 121.41 24.9575 121.117 24.8172C120.97 24.7476 120.822 24.6778 120.673 24.6076C120.519 24.5514 120.364 24.4951 120.208 24.4385C119.896 24.3251 119.581 24.2107 119.263 24.0952C118.942 23.9894 118.607 23.9212 118.274 23.8311C117.939 23.7553 117.609 23.6375 117.259 23.6018C116.565 23.5036 115.864 23.3609 115.137 23.3568C114.775 23.3444 114.411 23.3091 114.043 23.3148C113.676 23.3337 113.306 23.3528 112.933 23.3719C112.747 23.3849 112.559 23.3836 112.373 23.4081C112.187 23.4366 112 23.4652 111.813 23.4939C111.44 23.5556 111.06 23.5992 110.685 23.6767C109.944 23.8775 109.177 24.0273 108.448 24.3311C107.696 24.5712 106.988 24.9419 106.261 25.2897C105.907 25.4812 105.567 25.7043 105.217 25.9117C105.045 26.0213 104.862 26.1146 104.698 26.2383L104.205 26.607C103.523 27.0736 102.927 27.6572 102.302 28.2192C102.02 28.5298 101.735 28.8419 101.45 29.1555L101.236 29.3908L101.043 29.645L100.659 30.1573L100.274 30.6719L99.9359 31.222L99.5987 31.7758L99.4296 32.0535L99.2863 32.3459C99.0972 32.7375 98.9075 33.1306 98.7169 33.5252C98.5659 33.9364 98.4142 34.3492 98.262 34.7635C97.7152 36.4418 97.4208 38.2245 97.3966 40.0385C97.4206 41.8531 97.7142 43.6365 98.2608 45.3154C98.413 45.7299 98.5646 46.1428 98.7157 46.5542C98.9062 46.9489 99.0961 47.3421 99.2851 47.7338L99.4283 48.0264L99.5975 48.3042L99.9347 48.8581L100.272 49.4085L100.658 49.9232L101.042 50.4356L101.234 50.69L101.449 50.9254C101.734 51.239 102.019 51.5512 102.301 51.8618C102.926 52.4241 103.522 53.0079 104.204 53.4745L104.698 53.8433C104.861 53.9671 105.044 54.0604 105.216 54.17C105.567 54.3775 105.906 54.6006 106.26 54.7922C106.988 55.14 107.696 55.5108 108.448 55.751C109.177 56.0548 109.945 56.2046 110.685 56.4054C111.061 56.4829 111.44 56.5265 111.814 56.5882C112.001 56.6169 112.187 56.6455 112.373 56.674C112.559 56.6984 112.748 56.6973 112.934 56.7101C113.307 56.7293 113.677 56.7484 114.044 56.7673C114.411 56.7728 114.776 56.7377 115.138 56.7251C115.865 56.7211 116.566 56.5783 117.26 56.4801C117.61 56.4444 117.94 56.3264 118.275 56.2506C118.608 56.1605 118.943 56.0925 119.264 55.9865C119.582 55.871 119.897 55.7566 120.209 55.6432C120.365 55.5866 120.52 55.5302 120.674 55.4741C120.823 55.4038 120.971 55.3339 121.118 55.2644C121.411 55.124 121.702 54.985 121.989 54.8474C122.28 54.7158 122.537 54.5289 122.808 54.3751C123.074 54.2118 123.342 54.0592 123.597 53.8922C123.842 53.7103 124.084 53.5304 124.323 53.3527C126.228 51.9148 127.626 50.221 128.595 48.6C129.556 46.9721 130.165 45.4366 130.461 44.1373C130.536 43.813 130.646 43.5145 130.681 43.2203C130.727 42.9285 130.77 42.6555 130.81 42.4017C130.848 42.1479 130.894 41.9146 130.917 41.6992C130.929 41.4834 130.941 41.2873 130.951 41.1114C130.973 40.765 130.99 40.4993 131.001 40.3132C131.014 40.1333 131.025 40.041 131.025 40.041C131.025 40.041 131.027 40.1333 131.022 40.3135C131.014 40.5001 131.004 40.7665 130.991 41.1139C130.983 41.2905 130.975 41.4873 130.966 41.704C130.946 41.9203 130.903 42.1547 130.869 42.4099C130.831 42.6651 130.79 42.9397 130.747 43.233C130.715 43.529 130.608 43.8295 130.535 44.156C130.249 45.464 129.648 47.0124 128.69 48.6564C127.723 50.2933 126.323 52.0065 124.408 53.4634C124.167 53.6435 123.924 53.8257 123.678 54.01C123.421 54.1793 123.151 54.3343 122.883 54.4999C122.611 54.656 122.352 54.8452 122.059 54.9791C121.769 55.1188 121.477 55.26 121.181 55.4026C121.033 55.4732 120.884 55.5441 120.734 55.6155C120.579 55.6726 120.422 55.73 120.265 55.7877C119.95 55.9029 119.633 56.0193 119.312 56.1368C118.989 56.2447 118.65 56.3145 118.315 56.4063C117.976 56.4838 117.643 56.6034 117.29 56.6406C116.59 56.7417 115.881 56.8872 115.148 56.8933C114.782 56.9068 114.414 56.9428 114.043 56.9381C113.672 56.9198 113.298 56.9014 112.921 56.8828C112.733 56.8702 112.543 56.8715 112.355 56.8473C112.167 56.8189 111.978 56.7904 111.789 56.7618C111.412 56.7003 111.028 56.6567 110.648 56.5791C109.9 56.3779 109.124 56.227 108.386 55.9215C107.625 55.6796 106.909 55.3064 106.173 54.9553C105.815 54.762 105.471 54.5371 105.116 54.3276C104.942 54.2171 104.757 54.1227 104.592 53.9979L104.092 53.6257C103.402 53.1543 102.798 52.5651 102.166 51.9966C101.88 51.6827 101.592 51.3673 101.303 51.0504L101.086 50.8124L100.891 50.5554L100.502 50.0374L100.112 49.517L99.7697 48.9605L99.4282 48.4004L99.2571 48.1194L99.112 47.8235C98.9205 47.4274 98.7283 47.0296 98.5353 46.6303C98.3822 46.2142 98.2286 45.7965 98.0744 45.3772C97.5206 43.6787 97.2231 41.8741 97.1992 40.0385C97.2233 38.2035 97.5216 36.3995 98.0756 34.7017C98.2298 34.2825 98.3835 33.865 98.5366 33.449C98.7295 33.0499 98.9217 32.6522 99.1131 32.2562L99.2584 31.9605L99.4295 31.6796L99.7709 31.1195L100.113 30.5634L100.503 30.0431L100.892 29.5252L101.087 29.2683L101.304 29.0304C101.593 28.7136 101.881 28.3983 102.167 28.0844C102.799 27.5162 103.403 26.9272 104.092 26.4559L104.592 26.0838C104.758 25.9591 104.943 25.8646 105.116 25.7541C105.471 25.5446 105.815 25.3198 106.173 25.1266C106.909 24.7756 107.625 24.4024 108.386 24.1605C109.124 23.855 109.899 23.7042 110.648 23.503C111.028 23.4254 111.411 23.3818 111.789 23.3203C111.978 23.2917 112.166 23.2632 112.354 23.2349C112.542 23.2105 112.733 23.2119 112.921 23.1992C113.297 23.1807 113.671 23.1623 114.042 23.144C114.413 23.1391 114.781 23.1752 115.147 23.1887C115.881 23.1948 116.589 23.3401 117.289 23.4413C117.642 23.4785 117.975 23.5979 118.314 23.6755C118.649 23.7672 118.988 23.8372 119.311 23.9448C119.632 24.0623 119.949 24.1787 120.264 24.294C120.421 24.3517 120.577 24.409 120.733 24.4661C120.883 24.5374 121.032 24.6083 121.18 24.6789C121.476 24.8215 121.768 24.9627 122.058 25.1025C122.351 25.2361 122.61 25.4254 122.882 25.5815C123.15 25.7471 123.42 25.9021 123.677 26.0712C123.923 26.2556 124.166 26.4378 124.407 26.6178C126.322 28.0747 127.723 29.7877 128.689 31.4247C129.647 33.0688 130.249 34.6173 130.535 35.9254C130.608 36.252 130.715 36.5525 130.747 36.8485C130.79 37.1419 130.831 37.4165 130.868 37.6718C130.903 37.927 130.946 38.1614 130.966 38.3777C130.975 38.5944 130.983 38.7913 130.991 38.968C131.004 39.3154 131.014 39.5819 131.022 39.7685C131.027 39.9487 131.025 40.041 131.025 40.041V40.041Z" fill="#1A2E35"/>
<path d="M115.834 40.2892C117.261 39.7287 118.275 38.3508 118.283 36.7273C118.293 34.6004 116.574 32.8687 114.445 32.8594C112.317 32.8502 110.583 34.5669 110.574 36.6938C110.567 38.3325 111.588 39.7268 113.03 40.2892C107.098 41.1263 107.367 47.1657 107.367 47.1657L121.395 47.2263C121.395 47.2263 121.715 41.1212 115.834 40.2892V40.2892Z" fill="#CCCCCC"/>
<path d="M87.9794 107.335H86.1499C85.8928 107.335 85.6836 107.127 85.6836 106.87V105.046C85.6836 104.79 85.8928 104.581 86.1499 104.581H87.9794C88.2364 104.581 88.4456 104.79 88.4456 105.046V106.87C88.4456 107.127 88.2364 107.335 87.9794 107.335ZM86.1499 104.77C85.9974 104.77 85.8732 104.894 85.8732 105.046V106.87C85.8732 107.022 85.9974 107.146 86.1499 107.146H87.9794C88.132 107.146 88.256 107.022 88.256 106.87V105.046C88.256 104.894 88.132 104.77 87.9794 104.77H86.1499Z" fill="#1A2E35"/>
<path d="M91.0732 106.683L90.7396 106.21C90.7084 106.212 90.6755 106.214 90.6422 106.214H90.2601V106.683H90.0391V105.141H90.6422C91.0447 105.141 91.2875 105.343 91.2875 105.678C91.2875 105.916 91.1638 106.088 90.9473 106.165L91.3142 106.683H91.0732V106.683ZM91.0665 105.678C91.0665 105.458 90.9184 105.332 90.6355 105.332H90.2601V106.026H90.6355C90.9184 106.026 91.0665 105.899 91.0665 105.678V105.678Z" fill="#1A2E35"/>
<path d="M92.668 106.171H91.718C91.7443 106.376 91.9102 106.513 92.1423 106.513C92.2793 106.513 92.3941 106.467 92.4803 106.372L92.5973 106.508C92.4914 106.632 92.33 106.698 92.1356 106.698C91.7576 106.698 91.5059 106.449 91.5059 106.101C91.5059 105.755 91.7554 105.506 92.0934 105.506C92.4318 105.506 92.6725 105.748 92.6725 106.107C92.6725 106.125 92.6703 106.152 92.668 106.171V106.171ZM91.718 106.019H92.4692C92.447 105.823 92.2989 105.684 92.0934 105.684C91.8902 105.684 91.7399 105.821 91.718 106.019H91.718Z" fill="#1A2E35"/>
<path d="M94.9136 106.013V106.685H94.7015V106.037C94.7015 105.808 94.5908 105.695 94.3986 105.695C94.1865 105.695 94.0473 105.83 94.0473 106.083V106.685H93.8351V106.037C93.8351 105.808 93.7244 105.695 93.5323 105.695C93.3201 105.695 93.1809 105.83 93.1809 106.083V106.685H92.9688V105.517H93.172V105.691C93.2561 105.572 93.3997 105.506 93.5767 105.506C93.7555 105.506 93.9058 105.576 93.9832 105.722C94.0717 105.59 94.235 105.506 94.4338 105.506C94.7189 105.506 94.9136 105.669 94.9136 106.013H94.9136Z" fill="#1A2E35"/>
<path d="M96.3692 106.171H95.4192C95.4455 106.376 95.6113 106.513 95.8435 106.513C95.9804 106.513 96.0952 106.467 96.1815 106.372L96.2985 106.508C96.1926 106.632 96.0312 106.698 95.8368 106.698C95.4588 106.698 95.207 106.449 95.207 106.101C95.207 105.755 95.4566 105.506 95.7946 105.506C96.133 105.506 96.3736 105.748 96.3736 106.107C96.3736 106.125 96.3714 106.152 96.3692 106.171V106.171ZM95.4192 106.019H96.1704C96.1482 105.823 96.0001 105.684 95.7946 105.684C95.5913 105.684 95.441 105.821 95.4192 106.019H95.4192Z" fill="#1A2E35"/>
<path d="M98.6148 106.013V106.685H98.4026V106.037C98.4026 105.808 98.2919 105.695 98.0998 105.695C97.8876 105.695 97.7484 105.83 97.7484 106.083V106.685H97.5363V106.037C97.5363 105.808 97.4256 105.695 97.2335 105.695C97.0213 105.695 96.8821 105.83 96.8821 106.083V106.685H96.6699V105.517H96.8732V105.691C96.9572 105.572 97.1009 105.506 97.2778 105.506C97.4567 105.506 97.607 105.576 97.6844 105.722C97.7729 105.59 97.9362 105.506 98.135 105.506C98.42 105.506 98.6148 105.669 98.6148 106.013V106.013Z" fill="#1A2E35"/>
<path d="M100.221 106.1C100.221 106.457 99.9715 106.697 99.6287 106.697C99.4565 106.697 99.3062 106.631 99.2111 106.499V106.684H99.0078V105.049H99.22V105.692C99.3173 105.567 99.4632 105.505 99.6287 105.505C99.9715 105.505 100.221 105.743 100.221 106.1V106.1ZM100.007 106.1C100.007 105.851 99.8364 105.69 99.6113 105.69C99.388 105.69 99.2177 105.851 99.2177 106.1C99.2177 106.349 99.388 106.512 99.6113 106.512C99.8364 106.512 100.007 106.349 100.007 106.1Z" fill="#1A2E35"/>
<path d="M101.57 106.171H100.62C100.647 106.376 100.813 106.513 101.045 106.513C101.182 106.513 101.296 106.467 101.383 106.372L101.5 106.508C101.394 106.632 101.232 106.698 101.038 106.698C100.66 106.698 100.408 106.449 100.408 106.101C100.408 105.755 100.658 105.506 100.996 105.506C101.334 105.506 101.575 105.748 101.575 106.107C101.575 106.125 101.573 106.152 101.57 106.171V106.171ZM100.62 106.019H101.372C101.349 105.823 101.201 105.684 100.996 105.684C100.793 105.684 100.642 105.821 100.62 106.019Z" fill="#1A2E35"/>
<path d="M102.501 105.506V105.711C102.483 105.709 102.468 105.709 102.452 105.709C102.225 105.709 102.083 105.847 102.083 106.103V106.685H101.871V105.517H102.074V105.713C102.15 105.576 102.295 105.506 102.501 105.506V105.506Z" fill="#1A2E35"/>
<path d="M105.32 106.013V106.685H105.108V106.037C105.108 105.808 104.997 105.695 104.805 105.695C104.593 105.695 104.453 105.83 104.453 106.083V106.685H104.241V106.037C104.241 105.808 104.131 105.695 103.938 105.695C103.726 105.695 103.587 105.83 103.587 106.083V106.685H103.375V105.517H103.578V105.691C103.662 105.572 103.806 105.506 103.983 105.506C104.162 105.506 104.312 105.576 104.389 105.722C104.478 105.59 104.641 105.506 104.84 105.506C105.125 105.506 105.32 105.669 105.32 106.013H105.32Z" fill="#1A2E35"/>
<path d="M106.773 106.171H105.823C105.85 106.376 106.016 106.513 106.248 106.513C106.385 106.513 106.5 106.467 106.586 106.372L106.703 106.508C106.597 106.632 106.435 106.698 106.241 106.698C105.863 106.698 105.611 106.449 105.611 106.101C105.611 105.755 105.861 105.506 106.199 105.506C106.537 105.506 106.778 105.748 106.778 106.107C106.778 106.125 106.776 106.152 106.773 106.171V106.171ZM105.823 106.019H106.575C106.552 105.823 106.404 105.684 106.199 105.684C105.996 105.684 105.845 105.821 105.823 106.019V106.019Z" fill="#1A2E35"/>
<path d="M121.928 105.332V105.87H122.704V106.06H121.928V106.683H121.707V105.141H122.798V105.332H121.928V105.332Z" fill="#FF735D"/>
<path d="M122.936 106.101C122.936 105.753 123.194 105.506 123.545 105.506C123.897 105.506 124.153 105.753 124.153 106.101C124.153 106.449 123.897 106.698 123.545 106.698C123.194 106.698 122.936 106.449 122.936 106.101ZM123.939 106.101C123.939 105.852 123.771 105.691 123.545 105.691C123.32 105.691 123.15 105.852 123.15 106.101C123.15 106.35 123.32 106.513 123.545 106.513C123.771 106.513 123.939 106.35 123.939 106.101Z" fill="#FF735D"/>
<path d="M125.077 105.506V105.711C125.06 105.709 125.044 105.709 125.029 105.709C124.801 105.709 124.659 105.847 124.659 106.103V106.685H124.447V105.517H124.651V105.713C124.726 105.576 124.872 105.506 125.077 105.506V105.506Z" fill="#FF735D"/>
<path d="M126.449 105.517V106.526C126.449 106.938 126.239 107.126 125.842 107.126C125.627 107.126 125.411 107.066 125.282 106.951L125.384 106.789C125.492 106.881 125.662 106.94 125.835 106.94C126.111 106.94 126.237 106.813 126.237 106.548V106.456C126.136 106.577 125.983 106.636 125.815 106.636C125.477 106.636 125.221 106.407 125.221 106.07C125.221 105.733 125.477 105.506 125.815 105.506C125.99 105.506 126.149 105.57 126.248 105.698V105.517H126.449V105.517ZM126.241 106.07C126.241 105.843 126.074 105.691 125.839 105.691C125.603 105.691 125.435 105.843 125.435 106.07C125.435 106.295 125.603 106.451 125.839 106.451C126.074 106.451 126.241 106.295 126.241 106.07Z" fill="#FF735D"/>
<path d="M126.746 106.101C126.746 105.753 127.005 105.506 127.356 105.506C127.707 105.506 127.963 105.753 127.963 106.101C127.963 106.449 127.707 106.698 127.356 106.698C127.005 106.698 126.746 106.449 126.746 106.101ZM127.749 106.101C127.749 105.852 127.581 105.691 127.356 105.691C127.13 105.691 126.96 105.852 126.96 106.101C126.96 106.35 127.13 106.513 127.356 106.513C127.581 106.513 127.749 106.35 127.749 106.101Z" fill="#FF735D"/>
<path d="M128.92 106.615C128.856 106.67 128.759 106.697 128.664 106.697C128.427 106.697 128.293 106.567 128.293 106.331V105.69H128.094V105.516H128.293V105.26H128.505V105.516H128.841V105.69H128.505V106.322C128.505 106.448 128.571 106.518 128.688 106.518C128.75 106.518 128.809 106.498 128.854 106.463L128.92 106.615H128.92Z" fill="#FF735D"/>
<path d="M131.053 105.678C131.053 106.013 130.81 106.216 130.408 106.216H130.026V106.683H129.805V105.141H130.408C130.81 105.141 131.053 105.343 131.053 105.678V105.678ZM130.832 105.678C130.832 105.458 130.684 105.332 130.401 105.332H130.026V106.024H130.401C130.684 106.024 130.832 105.899 130.832 105.678V105.678Z" fill="#FF735D"/>
<path d="M132.265 105.98V106.685H132.064V106.53C131.993 106.636 131.863 106.698 131.679 106.698C131.414 106.698 131.246 106.557 131.246 106.354C131.246 106.167 131.368 106.013 131.717 106.013H132.053V105.971C132.053 105.792 131.949 105.689 131.739 105.689C131.6 105.689 131.458 105.737 131.368 105.814L131.279 105.656C131.401 105.559 131.576 105.506 131.763 105.506C132.084 105.506 132.265 105.66 132.265 105.98V105.98ZM132.053 106.328V106.165H131.726C131.516 106.165 131.456 106.246 131.456 106.345C131.456 106.462 131.553 106.535 131.715 106.535C131.874 106.535 132 106.462 132.053 106.328Z" fill="#FF735D"/>
<path d="M132.51 106.561L132.598 106.394C132.698 106.464 132.857 106.515 133.009 106.515C133.206 106.515 133.288 106.456 133.288 106.357C133.288 106.094 132.548 106.321 132.548 105.856C132.548 105.647 132.735 105.506 133.036 105.506C133.188 105.506 133.361 105.545 133.462 105.611L133.372 105.779C133.266 105.711 133.148 105.686 133.034 105.686C132.848 105.686 132.757 105.755 132.757 105.847C132.757 106.123 133.5 105.898 133.5 106.352C133.5 106.564 133.305 106.698 132.994 106.698C132.799 106.698 132.607 106.639 132.51 106.561V106.561Z" fill="#FF735D"/>
<path d="M133.619 106.561L133.708 106.394C133.807 106.464 133.966 106.515 134.119 106.515C134.315 106.515 134.397 106.456 134.397 106.357C134.397 106.094 133.657 106.321 133.657 105.856C133.657 105.647 133.845 105.506 134.145 105.506C134.298 105.506 134.47 105.545 134.572 105.611L134.481 105.779C134.375 105.711 134.258 105.686 134.143 105.686C133.957 105.686 133.867 105.755 133.867 105.847C133.867 106.123 134.609 105.898 134.609 106.352C134.609 106.564 134.415 106.698 134.103 106.698C133.909 106.698 133.716 106.639 133.619 106.561V106.561Z" fill="#FF735D"/>
<path d="M136.628 105.514L136.19 106.682H135.987L135.649 105.796L135.307 106.682H135.103L134.668 105.514H134.869L135.209 106.443L135.563 105.514H135.742L136.089 106.448L136.438 105.514H136.628V105.514Z" fill="#FF735D"/>
<path d="M136.701 106.101C136.701 105.753 136.96 105.506 137.311 105.506C137.662 105.506 137.919 105.753 137.919 106.101C137.919 106.449 137.662 106.698 137.311 106.698C136.96 106.698 136.701 106.449 136.701 106.101ZM137.705 106.101C137.705 105.852 137.536 105.691 137.311 105.691C137.085 105.691 136.916 105.852 136.916 106.101C136.916 106.35 137.085 106.513 137.311 106.513C137.536 106.513 137.705 106.35 137.705 106.101Z" fill="#FF735D"/>
<path d="M138.847 105.506V105.711C138.829 105.709 138.814 105.709 138.798 105.709C138.57 105.709 138.429 105.847 138.429 106.103V106.685H138.217V105.517H138.42V105.713C138.495 105.576 138.641 105.506 138.847 105.506V105.506Z" fill="#FF735D"/>
<path d="M140.204 105.049V106.684H140V106.499C139.905 106.631 139.755 106.697 139.582 106.697C139.24 106.697 138.99 106.457 138.99 106.1C138.99 105.743 139.24 105.505 139.582 105.505C139.748 105.505 139.894 105.567 139.991 105.692V105.049H140.204V105.049ZM139.993 106.1C139.993 105.851 139.823 105.69 139.6 105.69C139.375 105.69 139.205 105.851 139.205 106.1C139.205 106.349 139.375 106.512 139.6 106.512C139.823 106.512 139.993 106.349 139.993 106.1Z" fill="#FF735D"/>
<path d="M141.295 105.548C141.295 105.407 141.178 105.31 140.979 105.31C140.8 105.31 140.671 105.372 140.583 105.485L140.422 105.37C140.543 105.214 140.735 105.123 140.994 105.123C141.312 105.123 141.518 105.271 141.518 105.516C141.518 105.883 141.127 105.908 141.127 106.196H140.906C140.906 105.85 141.295 105.802 141.295 105.548V105.548ZM140.875 106.556C140.875 106.476 140.934 106.415 141.018 106.415C141.1 106.415 141.16 106.476 141.16 106.556C141.16 106.633 141.1 106.697 141.018 106.697C140.934 106.697 140.875 106.633 140.875 106.556Z" fill="#FF735D"/>
<path d="M86.9318 106.524C86.8999 106.524 86.8681 106.514 86.8416 106.492L86.4388 106.163C86.378 106.113 86.3692 106.024 86.4189 105.963C86.4691 105.903 86.5587 105.894 86.6191 105.943L86.9179 106.188L87.6111 105.434C87.6648 105.377 87.754 105.373 87.8122 105.426C87.8699 105.479 87.8737 105.568 87.8207 105.626L87.0365 106.479C87.0086 106.509 86.9702 106.524 86.9318 106.524V106.524Z" fill="#1A2E35"/>
<path d="M137.419 66.9446C137.829 66.7729 138.121 66.3509 138.124 65.8537C138.126 65.2022 137.632 64.6718 137.019 64.669C136.407 64.6661 135.908 65.1919 135.906 65.8434C135.903 66.3453 136.197 66.7724 136.612 66.9446C134.906 67.201 134.983 69.0509 134.983 69.0509L139.019 69.0694C139.019 69.0694 139.111 67.1995 137.419 66.9446V66.9446Z" fill="#33535F"/>
<path d="M146.213 18.0595H150.274C150.579 18.0595 150.579 17.5869 150.274 17.5869H146.213C145.908 17.5869 145.908 18.0595 146.213 18.0595Z" fill="#1A2E35"/>
<path d="M146.213 19.333H150.274C150.579 19.333 150.579 18.8604 150.274 18.8604H146.213C145.908 18.8604 145.908 19.333 146.213 19.333Z" fill="#1A2E35"/>
<path d="M146.213 20.6103H150.274C150.579 20.6103 150.579 20.1377 150.274 20.1377H146.213C145.908 20.1377 145.908 20.6103 146.213 20.6103Z" fill="#1A2E35"/>
<path d="M38.0664 66.8643V76.4451L44.1154 84.855L49.168 76.1435L47.8871 75.7897L47.9227 71.1579L38.0664 66.8643Z" fill="#FBB273"/>
<path d="M54.5331 61.3066C55.6878 61.3066 56.6239 62.2402 56.6239 63.3917C56.6239 64.9111 55.0727 65.6994 53.918 65.6994" fill="#FBB273"/>
<path d="M37.0561 57.2901C36.476 63.5367 36.0928 66.1672 38.7309 69.8256C42.6997 75.3318 50.5161 74.6802 52.9607 68.7342C55.1596 63.3823 55.7423 54.0737 50.0575 50.6711C46.0078 48.2192 40.7319 49.5056 38.2734 53.544C37.5811 54.6813 37.1641 55.964 37.0561 57.2901V57.2901Z" fill="#FBB273"/>
<path d="M36.4795 65.4768C37.6342 65.4768 38.5702 64.5433 38.5702 63.3917C38.5702 62.2402 37.6342 61.3066 36.4795 61.3066C35.3247 61.3066 34.3887 62.2402 34.3887 63.3917C34.3887 64.5433 35.3247 65.4768 36.4795 65.4768Z" fill="#FBB273"/>
<path d="M54.4539 58.8414C54.4539 58.8414 53.7716 56.8408 50.5659 56.259C50.5659 56.259 48.026 52.9943 46.8927 51.8552C46.8927 51.8552 49.0009 54.9668 49.2103 56.0893C49.2103 56.0893 39.7479 60.3985 39.7266 63.95C39.7266 63.95 39.7423 64.5874 39.3422 64.5802C39.0487 64.575 38.9414 64.394 38.9146 64.1594C38.9146 64.1594 38.5872 61.3863 36.6753 61.3128C36.6753 61.3128 35.0083 51.11 44.3813 49.5087C44.3813 49.5087 53.2975 47.8454 54.4539 58.8414V58.8414Z" fill="#1A2E35"/>
<path d="M35.0746 74.139C36.2053 74.139 37.1219 73.2249 37.1219 72.0973C37.1219 70.9697 36.2053 70.0557 35.0746 70.0557C33.9439 70.0557 33.0273 70.9697 33.0273 72.0973C33.0273 73.2249 33.9439 74.139 35.0746 74.139Z" fill="#1A2E35"/>
<path d="M34.0983 76.5461C35.0921 76.5461 35.8978 75.7427 35.8978 74.7516C35.8978 73.7605 35.0921 72.957 34.0983 72.957C33.1045 72.957 32.2988 73.7605 32.2988 74.7516C32.2988 75.7427 33.1045 76.5461 34.0983 76.5461Z" fill="#1A2E35"/>
<path d="M29.6028 69.6614C29.6028 70.5207 28.9043 71.2173 28.0426 71.2173C27.1809 71.2173 26.4824 70.5207 26.4824 69.6614C26.4824 68.8021 27.1809 68.1055 28.0426 68.1055C28.9043 68.1055 29.6028 68.8021 29.6028 69.6614Z" fill="white"/>
<path d="M29.604 69.6625C29.5855 69.6632 29.5858 69.524 29.5179 69.2919C29.4508 69.0641 29.2906 68.7332 28.9454 68.4811C28.6117 68.2281 28.0673 68.0894 27.5433 68.2864C27.0236 68.4674 26.5766 69.0191 26.5823 69.6623C26.5763 70.3057 27.0235 70.8575 27.5433 71.0386C28.0674 71.2356 28.6118 71.0969 28.9455 70.8438C29.2906 70.5917 29.4508 70.2608 29.5179 70.033C29.5858 69.801 29.5855 69.6618 29.604 69.6625C29.6125 69.6616 29.64 69.8017 29.5924 70.0517C29.5453 70.2963 29.396 70.6635 29.0301 70.9545C28.677 71.2458 28.0748 71.4206 27.4813 71.2091C26.8931 71.0166 26.3777 70.3935 26.3848 69.6622C26.3779 68.9313 26.8931 68.3083 27.4813 68.1159C28.0748 67.9044 28.6768 68.0791 29.03 68.3703C29.396 68.6614 29.5452 69.0286 29.5924 69.2733C29.64 69.5232 29.6125 69.6634 29.604 69.6625V69.6625Z" fill="#1A2E35"/>
<path d="M18.0763 71.5669C22.9847 71.124 26.6038 66.7967 26.1596 61.9017C25.7155 57.0067 21.3764 53.3976 16.4679 53.8405C11.5595 54.2833 7.94042 58.6106 8.38453 63.5057C8.82864 68.4007 13.1678 72.0098 18.0763 71.5669V71.5669Z" fill="white"/>
<path d="M18.0763 71.5655C18.0766 71.5689 18.0279 71.5741 17.9324 71.5812C17.827 71.5879 17.6865 71.5967 17.5078 71.6079C17.4132 71.6131 17.3088 71.6188 17.1943 71.6251C17.079 71.6259 16.9528 71.6152 16.8161 71.6098C16.5425 71.5967 16.2256 71.5893 15.8751 71.5219C15.1683 71.4363 14.3185 71.1962 13.4002 70.7718C12.4853 70.343 11.5087 69.6884 10.6427 68.7493C9.78431 67.813 9.01377 66.5982 8.61171 65.1479C8.21969 63.7071 8.10967 62.0477 8.56295 60.4133C8.65474 59.9997 8.81814 59.6035 8.96919 59.1981C9.1575 58.8095 9.32765 58.4032 9.57469 58.0349C9.79181 57.648 10.0754 57.3006 10.3469 56.9397C10.6531 56.6075 10.9515 56.2612 11.307 55.9665C12.0002 55.3653 12.7831 54.8248 13.6648 54.4602C14.5401 54.086 15.4841 53.8418 16.4576 53.7412C17.4338 53.6658 18.4067 53.7365 19.3355 53.9479C20.2689 54.1486 21.1365 54.5403 21.927 55.0076C22.3298 55.2339 22.686 55.521 23.047 55.7931C23.3792 56.0996 23.7208 56.3906 24.0041 56.7325C24.3134 57.0506 24.5541 57.4199 24.8093 57.7685C25.0309 58.1404 25.263 58.501 25.4278 58.8914C26.168 60.4184 26.3584 62.0708 26.232 63.5585C26.0973 65.0572 25.5579 66.3902 24.8819 67.465C24.1989 68.5437 23.3559 69.3625 22.5331 69.948C21.7062 70.5297 20.9134 70.9181 20.2335 71.1287C19.9009 71.2577 19.5906 71.3216 19.3239 71.3836C19.1903 71.4133 19.0681 71.4465 18.9545 71.4663C18.8408 71.4806 18.737 71.4936 18.6431 71.5055C18.4653 71.5264 18.3255 71.5429 18.2206 71.5553C18.1254 71.5654 18.0766 71.5689 18.0763 71.5655C18.076 71.5621 18.1242 71.5519 18.2185 71.5352C18.3224 71.5181 18.4609 71.4953 18.637 71.4663C18.73 71.4517 18.8327 71.4356 18.9453 71.4179C19.0577 71.3952 19.1785 71.3592 19.3104 71.3266C19.574 71.259 19.8804 71.1899 20.2082 71.0564C20.8784 70.8366 21.6576 70.4418 22.4683 69.8589C23.2749 69.2722 24.0989 68.4576 24.7637 67.3909C25.4217 66.3279 25.9439 65.015 26.069 63.543C26.1857 62.0818 25.993 60.4617 25.263 58.9684C25.1008 58.5863 24.8719 58.2339 24.6544 57.8701C24.4031 57.5296 24.1672 57.1682 23.8633 56.8576C23.5854 56.5232 23.2499 56.2394 22.9246 55.9396C22.5703 55.6742 22.2217 55.3934 21.827 55.1727C21.0527 54.7167 20.2037 54.3338 19.2906 54.1386C18.382 53.9326 17.4307 53.8638 16.4755 53.9373C15.5229 54.0361 14.5998 54.2745 13.7434 54.6397C12.8805 54.9954 12.1145 55.5238 11.4352 56.111C11.0866 56.3987 10.7944 56.7375 10.4937 57.0618C10.2277 57.4149 9.94885 57.7542 9.73574 58.1327C9.49268 58.4927 9.32575 58.8904 9.13991 59.2703C8.99136 59.6671 8.82967 60.0546 8.73887 60.4595C8.2896 62.059 8.39151 63.6871 8.76927 65.1036C9.15704 66.5292 9.9071 67.7273 10.7457 68.6553C11.5916 69.5858 12.5488 70.2397 13.448 70.6726C14.3504 71.101 15.1881 71.35 15.8871 71.4462C16.2336 71.5189 16.5475 71.5321 16.819 71.5513C16.9547 71.5598 17.08 71.5736 17.1947 71.5759C17.3086 71.5731 17.4126 71.5705 17.5067 71.5682C17.6853 71.5652 17.8256 71.5629 17.9309 71.5612C18.0267 71.5607 18.076 71.5621 18.0763 71.5655L18.0763 71.5655Z" fill="#1A2E35"/>
<path d="M14.1254 67.837L10.5859 63.6171L12.0626 62.3854L14.436 65.215L22.8048 58.8643L23.9528 60.4052L14.1254 67.837Z" fill="#042CAF"/>
<path d="M20.0443 142.462L18.1113 158.811H21.0798L26.3956 142.462H20.0443Z" fill="#E1E1E1"/>
<path d="M30.8822 136.202L28.9492 152.551H31.9178L37.2335 136.202H30.8822Z" fill="#E1E1E1"/>
<path d="M71.0159 142.462L73.1232 158.811H69.8869L64.0918 142.462H71.0159Z" fill="#E1E1E1"/>
<path d="M60.9417 136.602L63.049 152.951H59.8127L54.0176 136.602H60.9417Z" fill="#E1E1E1"/>
<path d="M28.9255 82.3395C28.9255 82.3395 20.8129 82.911 15.3733 85.704C11.1028 87.8967 9.02786 90.9694 8.18958 98.6963C7.35133 106.423 1.90255 108.01 1.76284 110.655C1.62654 113.236 2.95325 124.272 12.491 146.358C12.9293 147.373 13.9332 148.029 15.0413 148.029H48.0997V81.8223L28.9255 82.3395V82.3395Z" fill="#CCCCCC"/>
<path d="M60.4282 82.3395C60.4282 82.3395 68.5407 82.911 73.9803 85.704C78.2508 87.8967 80.3257 90.9694 81.164 98.6963C82.0023 106.423 87.451 108.01 87.5908 110.655C87.7275 113.245 86.3913 124.347 76.765 146.584C76.3854 147.461 75.5176 148.029 74.5597 148.029H41.2539V81.8223L60.4282 82.3395V82.3395Z" fill="#CCCCCC"/>
<path d="M68.6035 136.927C68.6014 136.915 68.8092 136.874 69.1902 136.819C69.5716 136.79 70.1368 136.748 70.8185 136.893C71.4957 137.032 72.2846 137.39 72.9339 138.051C73.5824 138.707 74.0836 139.609 74.4184 140.602C74.7611 141.597 74.9391 142.584 75.0532 143.481C75.1669 144.38 75.2124 145.194 75.233 145.877C75.2533 146.56 75.2503 147.112 75.2411 147.494C75.2324 147.876 75.2185 148.086 75.2054 148.087C75.1913 148.087 75.1792 147.876 75.1643 147.495C75.1498 147.114 75.1315 146.562 75.0936 145.883C75.0552 145.203 74.9954 144.395 74.8729 143.505C74.75 142.617 74.568 141.642 74.2318 140.666C73.903 139.691 73.4201 138.816 72.8039 138.178C72.187 137.536 71.4408 137.181 70.7875 137.029C69.4606 136.744 68.6024 136.989 68.6035 136.927H68.6035Z" fill="#1A2E35"/>
<path d="M71.9052 127.516C71.9052 127.571 59.6316 127.615 44.4949 127.615C29.353 127.615 17.082 127.571 17.082 127.516C17.082 127.462 29.353 127.418 44.4949 127.418C59.6316 127.418 71.9052 127.462 71.9052 127.516Z" fill="#1A2E35"/>
<path d="M19.5104 136.457C19.5104 136.471 19.3086 136.493 18.9464 136.523C18.7649 136.534 18.5481 136.589 18.2943 136.628C18.1674 136.649 18.038 136.698 17.8975 136.735C17.7563 136.771 17.6105 136.819 17.4642 136.887C16.8669 137.122 16.2102 137.553 15.6754 138.212C15.1375 138.868 14.7455 139.74 14.4951 140.69C14.2481 141.644 14.1468 142.586 14.1146 143.442C14.0804 144.299 14.1082 145.074 14.1544 145.722C14.2 146.37 14.2609 146.893 14.3053 147.255C14.35 147.616 14.3785 147.816 14.3651 147.818C14.3518 147.821 14.2977 147.626 14.2294 147.267C14.1614 146.908 14.079 146.384 14.0152 145.733C13.9509 145.082 13.9083 144.303 13.9328 143.436C13.9554 142.57 14.052 141.614 14.3041 140.64C14.5596 139.67 14.9679 138.773 15.5345 138.098C16.0976 137.419 16.7918 136.982 17.4133 136.757C17.566 136.691 17.7172 136.647 17.8632 136.615C18.0085 136.582 18.1425 136.537 18.2728 136.52C18.5334 136.49 18.7556 136.446 18.94 136.446C19.3083 136.44 19.5105 136.444 19.5104 136.457V136.457Z" fill="#1A2E35"/>
<path d="M19.509 136.459C19.5058 136.46 19.4923 136.43 19.4691 136.371C19.4428 136.301 19.4104 136.214 19.3705 136.106C19.285 135.873 19.1608 135.528 19.0265 135.076C18.7411 134.177 18.3817 132.861 17.9524 131.232C17.5307 129.595 17.0305 127.655 16.4755 125.501C15.9144 123.346 15.2946 120.978 14.5447 118.522C14.1551 117.3 13.7777 116.102 13.2963 114.996C13.1886 114.713 13.0536 114.448 12.9164 114.188C12.7879 113.924 12.6438 113.668 12.4931 113.416C12.2017 112.91 11.9241 112.412 11.6325 111.94C11.0556 110.997 10.3935 110.158 9.58168 109.606C8.77441 109.053 7.87494 108.779 7.05227 108.657C5.38397 108.431 4.01901 108.822 3.1778 109.214C2.32375 109.609 1.93658 109.977 1.92006 109.952C1.91789 109.949 1.94189 109.927 1.99091 109.886C2.04976 109.839 2.1224 109.781 2.21191 109.709C2.41163 109.56 2.71868 109.354 3.14493 109.145C3.98621 108.727 5.36615 108.306 7.07119 108.519C7.91266 108.635 8.83481 108.905 9.67442 109.471C10.517 110.035 11.2007 110.895 11.7872 111.844C12.0838 112.32 12.3643 112.818 12.6564 113.322C12.8063 113.571 12.9518 113.827 13.0854 114.099C13.2266 114.365 13.3648 114.635 13.4739 114.919C13.9632 116.037 14.3424 117.238 14.7334 118.464C15.4852 120.926 16.1001 123.298 16.6517 125.456C17.1913 127.613 17.6776 129.558 18.0876 131.197C18.4994 132.83 18.838 134.15 19.1001 135.054C19.2231 135.509 19.335 135.857 19.4081 136.094C19.4405 136.203 19.4668 136.292 19.4881 136.364C19.5051 136.426 19.5122 136.458 19.509 136.459L19.509 136.459Z" fill="#1A2E35"/>
<path d="M62.5187 120.312C62.5187 120.312 62.4037 120.318 62.1792 120.321C61.9496 120.322 61.6172 120.324 61.1829 120.327C60.3019 120.329 59.012 120.331 57.3522 120.333C54.0204 120.33 49.2084 120.325 43.2634 120.319C40.2889 120.313 37.0312 120.306 33.5343 120.299C31.7857 120.288 29.9773 120.276 28.1145 120.264C27.1842 120.266 26.2382 120.266 25.2859 120.313C25.0536 120.329 24.7988 120.338 24.5939 120.388C24.3787 120.459 24.1622 120.576 23.9503 120.685C23.5262 120.913 23.1096 121.165 22.6965 121.427C21.871 121.954 21.0578 122.524 20.2595 123.131C19.4637 123.741 18.6762 124.385 17.9581 125.11C17.6102 125.476 17.2507 125.859 17.0357 126.305C16.9846 126.416 16.9496 126.531 16.9442 126.64C16.9428 126.735 16.9872 126.877 17.0142 126.999L17.2 127.76C17.4529 128.776 17.7189 129.799 17.9914 130.83C18.2703 131.86 18.5518 132.898 18.8355 133.945C18.9853 134.466 19.1356 134.989 19.2866 135.514C19.3649 135.775 19.445 136.038 19.536 136.289C19.5474 136.325 19.5577 136.335 19.566 136.361C19.5703 136.369 19.5739 136.389 19.578 136.389C19.5821 136.383 19.5799 136.38 19.5813 136.382C19.6441 136.392 19.7067 136.402 19.7756 136.407C19.9094 136.422 20.0476 136.429 20.1843 136.437C22.3862 136.542 24.6307 136.562 26.8981 136.598C35.9749 136.706 44.6234 136.715 52.4885 136.698C56.421 136.686 60.158 136.665 63.6546 136.618C65.4028 136.593 67.0914 136.565 68.7123 136.506C69.1172 136.489 69.5185 136.472 69.9126 136.442C70.0114 136.435 70.1089 136.426 70.2051 136.414C70.2546 136.41 70.2986 136.4 70.3445 136.392C70.3927 136.382 70.3987 136.373 70.4342 136.34C70.5498 136.218 70.6298 136.029 70.7033 135.857C70.9878 135.143 71.1786 134.405 71.3662 133.69C71.7309 132.255 72.0255 130.873 72.3001 129.566C72.3679 129.239 72.4347 128.917 72.5005 128.599C72.5547 128.28 72.6644 127.968 72.6334 127.672C72.5521 127.065 72.1725 126.553 71.8058 126.108C71.0375 125.221 70.1749 124.531 69.3852 123.906C68.5887 123.285 67.8398 122.744 67.1709 122.251C66.498 121.763 65.9344 121.282 65.3557 121.009C64.7874 120.719 64.2657 120.564 63.8403 120.47C63.4138 120.377 63.0806 120.346 62.8573 120.332C62.7457 120.322 62.6608 120.323 62.6041 120.319C62.5474 120.316 62.5187 120.312 62.5187 120.312C62.5187 120.312 62.6337 120.304 62.8584 120.312C63.0827 120.319 63.418 120.344 63.8485 120.431C64.2779 120.519 64.8056 120.67 65.3821 120.956C65.9706 121.228 66.5434 121.708 67.2163 122.19C67.8884 122.678 68.6412 123.214 69.443 123.831C70.2385 124.455 71.1068 125.141 71.89 126.037C72.2631 126.489 72.6582 127.003 72.7508 127.66C72.7841 127.996 72.6711 128.306 72.6199 128.623C72.5553 128.941 72.4897 129.264 72.4231 129.592C72.1531 130.901 71.8629 132.284 71.5015 133.725C71.3149 134.444 71.1275 135.181 70.8384 135.912C70.7586 136.094 70.6911 136.278 70.5379 136.445C70.508 136.484 70.4263 136.531 70.3771 136.536C70.3259 136.545 70.2733 136.556 70.2241 136.561C70.124 136.573 70.0242 136.583 69.9247 136.59C69.5261 136.622 69.1244 136.64 68.7184 136.658C67.0947 136.721 65.4059 136.752 63.657 136.781C60.1594 136.835 56.4221 136.862 52.4891 136.879C44.6231 136.906 35.9745 136.903 26.8955 136.794C24.626 136.759 22.3854 136.739 20.1727 136.633C20.0338 136.624 19.8962 136.617 19.7558 136.602C19.6872 136.597 19.6137 136.586 19.5404 136.574C19.5093 136.566 19.4747 136.551 19.4463 136.534C19.4231 136.516 19.4207 136.495 19.4074 136.476C19.388 136.438 19.3618 136.39 19.3527 136.359C19.2571 136.095 19.178 135.833 19.099 135.57C18.9479 135.044 18.7974 134.519 18.6475 133.997C18.3641 132.949 18.083 131.91 17.8043 130.879C17.5323 129.847 17.2668 128.823 17.0144 127.806L16.8287 127.043C16.8021 126.912 16.7582 126.805 16.7539 126.637C16.7611 126.487 16.8059 126.351 16.8628 126.227C17.1026 125.734 17.468 125.354 17.8233 124.978C18.5535 124.243 19.3459 123.597 20.1469 122.984C20.9503 122.375 21.7674 121.803 22.5988 121.274C23.015 121.011 23.4347 120.758 23.8656 120.527C24.0845 120.415 24.2961 120.299 24.5374 120.219C24.8016 120.154 25.0318 120.154 25.276 120.135C26.2375 120.09 27.1825 120.091 28.1148 120.091C29.9776 120.106 31.786 120.121 33.5346 120.136C37.0315 120.151 40.2891 120.166 43.2636 120.179C49.2086 120.212 54.0205 120.238 57.3523 120.257C59.0121 120.27 60.302 120.281 61.183 120.288C61.6173 120.293 61.9496 120.298 62.1792 120.301C62.4037 120.305 62.5187 120.312 62.5187 120.312H62.5187Z" fill="#1A2E35"/>
<path d="M70.7137 136.458C70.7105 136.457 70.7172 136.425 70.7334 136.364C70.7538 136.292 70.7789 136.203 70.8099 136.094C70.8804 135.858 70.9888 135.511 71.0972 135.056C71.3374 134.152 71.6237 132.827 71.9619 131.188C72.292 129.541 72.6836 127.587 73.118 125.419C73.563 123.25 74.0541 120.863 74.7076 118.388C75.0507 117.155 75.3972 115.951 75.8698 114.83C75.9923 114.552 76.139 114.286 76.2707 114.017C76.4096 113.753 76.5723 113.509 76.7256 113.261C77.0384 112.769 77.367 112.301 77.7153 111.865C78.4096 110.992 79.1964 110.252 80.0497 109.731C80.9019 109.209 81.811 108.923 82.651 108.819C84.347 108.613 85.7169 109.038 86.5533 109.452C86.9766 109.662 87.282 109.866 87.4803 110.014C87.5693 110.086 87.6415 110.144 87.7 110.191C87.7488 110.231 87.7726 110.253 87.7705 110.256C87.7541 110.28 87.3687 109.916 86.5204 109.521C85.6839 109.133 84.3288 108.737 82.6693 108.958C81.8465 109.068 80.9651 109.354 80.1358 109.87C79.3059 110.385 78.5387 111.114 77.8578 111.978C77.5164 112.409 77.1933 112.873 76.8848 113.361C76.7342 113.607 76.5718 113.852 76.4367 114.112C76.3092 114.375 76.1673 114.633 76.0475 114.907C75.5844 116.011 75.2398 117.211 74.8984 118.439C74.247 120.906 73.7507 123.29 73.2963 125.456C72.8462 127.623 72.4544 129.579 72.0985 131.216C71.7425 132.853 71.4351 134.175 71.1714 135.076C71.0513 135.529 70.9305 135.873 70.8476 136.106C70.8091 136.213 70.7778 136.3 70.7524 136.37C70.7299 136.429 70.7169 136.459 70.7137 136.458V136.458Z" fill="#1A2E35"/>
<path d="M71.6045 87.8125C71.6574 87.8254 69.9274 95.1178 67.7408 104.099C65.5534 113.083 63.7378 120.353 63.6848 120.34C63.6318 120.327 65.3615 113.036 67.5489 104.052C69.7355 95.0714 71.5515 87.7997 71.6045 87.8125Z" fill="#1A2E35"/>
<path d="M17.3214 90.1348C17.3279 90.1329 17.3649 90.2362 17.4292 90.4347C17.4968 90.6507 17.5875 90.9408 17.7015 91.3055C17.934 92.0833 18.2608 93.1769 18.6623 94.5203C19.4617 97.2384 20.5403 101.001 21.6921 105.167C22.8439 109.335 23.8507 113.117 24.5607 115.86C24.9061 117.219 25.1873 118.325 25.3873 119.111C25.4767 119.483 25.5479 119.778 25.6008 119.998C25.6476 120.202 25.6689 120.309 25.6623 120.311C25.6557 120.313 25.6215 120.208 25.5623 120.008C25.5005 119.791 25.4174 119.498 25.313 119.131C25.0983 118.348 24.7965 117.248 24.4257 115.896C23.6731 113.147 22.6416 109.381 21.5018 105.219C20.3428 101.064 19.2937 97.3033 18.5281 94.5587C18.1518 93.2081 17.8455 92.1088 17.6277 91.3269C17.5286 90.9579 17.4497 90.6643 17.391 90.4457C17.339 90.2437 17.3148 90.1367 17.3214 90.1348V90.1348Z" fill="#1A2E35"/>
<path d="M53.1094 97.1557C53.2285 97.3343 57.4592 103.002 57.4592 103.002L62.5781 98.2616L59.3022 90.0304L57.3367 86.6738L53.1094 97.1557V97.1557Z" fill="#ED7E21"/>
<g opacity="0.3">
<path d="M36.4495 148.034L34.3125 147.992L33.5539 129.484L28.916 127.521L37.3448 122.344L59.8264 138.191L64.3141 148.034H36.4495Z" fill="black"/>
</g>
<path d="M51.754 141.101C51.7374 141.11 55.2299 149.167 55.2299 149.167L61.1202 145.896L57.4209 138.065L51.754 141.101V141.101Z" fill="#FBB273"/>
<path d="M54.5881 147.678C54.5881 147.678 60.2633 148.249 60.3955 144.354L61.0772 145.222L70.1231 151.153C71.5619 152.173 71.4474 153.342 71.0679 153.94C70.7757 154.401 70.257 154.642 69.7317 154.575C66.9182 154.217 56.5752 152.848 56.0541 152.017L55.5154 151.291C54.6533 150.273 54.369 149.024 54.6581 148.569L54.5881 147.678V147.678Z" fill="#333333"/>
<g opacity="0.6">
<path d="M70.9148 154.143L55.5176 151.292L55.8558 151.747C56.1773 152.274 56.5383 152.311 57.0076 152.456C58.3984 152.884 61.8815 153.569 69.7016 154.6C70.1564 154.66 70.6136 154.489 70.9148 154.143V154.143Z" fill="white"/>
</g>
<g opacity="0.6">
<path d="M56.5968 149.338C57.0051 149.325 57.3959 149.667 57.4259 150.073C57.4561 150.479 57.1105 150.879 56.7025 150.899C56.2946 150.92 55.8127 150.523 55.8285 150.116C55.8442 149.709 56.2755 149.262 56.6766 149.34" fill="white"/>
</g>
<path d="M63.72 150.547C63.8031 150.531 63.628 149.789 64.0442 149.012C64.4371 148.224 65.1451 147.935 65.1093 147.859C65.0992 147.826 64.9006 147.843 64.6221 147.994C64.3447 148.142 64.0064 148.446 63.7823 148.878C63.5599 149.31 63.5073 149.761 63.5475 150.073C63.5857 150.386 63.6869 150.558 63.72 150.547V150.547Z" fill="white"/>
<path d="M65.4402 151.19C65.5258 151.198 65.6123 150.593 66.0514 150.022C66.4781 149.441 67.0359 149.189 67.0036 149.109C66.9941 149.031 66.3058 149.186 65.8157 149.846C65.3188 150.5 65.3625 151.202 65.4402 151.19V151.19Z" fill="white"/>
<path d="M61.7726 149.836C61.8493 149.848 61.9606 149.04 62.4852 148.218C62.9972 147.388 63.6767 146.935 63.6324 146.871C63.6107 146.811 62.82 147.194 62.2686 148.083C61.7084 148.966 61.7082 149.843 61.7726 149.836V149.836Z" fill="white"/>
<path d="M61.9832 147.451C61.9951 147.438 61.884 147.293 61.6252 147.092C61.3678 146.892 60.9542 146.635 60.3794 146.48C60.0985 146.416 59.7613 146.307 59.3766 146.459C59.1842 146.534 59.0198 146.76 59.0409 146.997C59.0593 147.229 59.186 147.416 59.3382 147.564C59.9695 148.134 61.0701 148.163 61.8138 147.549C62.5479 146.92 62.7421 145.912 62.4655 145.134C62.3835 144.943 62.2525 144.742 62.0158 144.664C61.7789 144.582 61.5263 144.719 61.419 144.881C61.1903 145.212 61.1862 145.551 61.1507 145.838C61.1062 146.428 61.1961 146.902 61.2862 147.214C61.3772 147.529 61.4678 147.686 61.4837 147.68C61.5416 147.67 61.2343 146.985 61.3578 145.858C61.4 145.585 61.4358 145.257 61.6123 145.03C61.6977 144.919 61.8204 144.869 61.9368 144.91C62.0509 144.946 62.1546 145.081 62.2142 145.236C62.4336 145.88 62.2539 146.802 61.6251 147.323C61.0037 147.847 60.036 147.82 59.5237 147.366C59.402 147.255 59.3107 147.11 59.2995 146.979C59.2883 146.85 59.3593 146.736 59.4803 146.68C59.7355 146.561 60.0608 146.626 60.3298 146.682C61.4351 146.941 61.9523 147.503 61.9832 147.451V147.451Z" fill="white"/>
<path d="M39.7305 151.682C39.5282 153.178 38.5586 160.756 38.5586 160.756C38.5586 160.756 44.9767 161.76 44.9767 161.596C44.9767 161.432 46.1346 152.378 46.1346 152.378L39.7305 151.682V151.682Z" fill="#FBB273"/>
<path d="M45.3057 158.879C45.3057 158.879 40.8275 162.533 38.5422 159.372L38.4518 160.215L34.2525 170.166C33.6277 171.813 34.3755 172.72 35.0249 173.006C35.525 173.226 36.0903 173.138 36.4892 172.791C38.6256 170.93 46.4506 164.048 46.4189 163.068L46.4612 162.166C46.6083 160.841 46.1467 159.646 45.6527 159.429L45.3057 158.879V158.879Z" fill="#333333"/>
<g opacity="0.6">
<path d="M35.2695 173.092L46.4638 162.17L46.4373 162.736C46.4646 163.352 46.1854 163.583 45.8764 163.964C44.9605 165.092 42.4509 167.597 36.5324 172.797C36.1882 173.1 35.7125 173.211 35.2695 173.092Z" fill="white"/>
</g>
<g opacity="0.6">
<path d="M44.4783 161.143C44.1319 161.358 43.9983 161.86 44.2003 162.214C44.4023 162.568 44.9124 162.708 45.2626 162.498C45.6128 162.288 45.7916 161.691 45.551 161.362C45.3106 161.033 44.7028 160.901 44.4132 161.189" fill="white"/>
</g>
<path d="M39.2317 166.107C39.1541 166.14 38.8847 165.426 38.1055 165.013C37.3387 164.576 36.5897 164.73 36.5766 164.646C36.5665 164.613 36.741 164.517 37.0566 164.488C37.3695 164.457 37.8206 164.522 38.2477 164.755C38.6738 164.991 38.9697 165.336 39.1101 165.617C39.2537 165.899 39.2653 166.097 39.2317 166.107V166.107Z" fill="white"/>
<path d="M38.163 167.594C38.0966 167.649 37.6869 167.195 37.0032 166.964C36.3244 166.719 35.7203 166.819 35.7025 166.735C35.667 166.665 36.3252 166.412 37.1006 166.687C37.8785 166.954 38.2344 167.561 38.163 167.594V167.594Z" fill="white"/>
<path d="M40.4486 164.437C40.3915 164.49 39.848 163.881 38.9532 163.49C38.0643 163.085 37.247 163.086 37.2483 163.009C37.2323 162.946 38.1032 162.825 39.0576 163.257C40.0161 163.679 40.5061 164.408 40.4486 164.437V164.437Z" fill="white"/>
<path d="M38.9435 162.572C38.9268 162.568 38.938 162.386 39.0402 162.075C39.1425 161.766 39.3423 161.322 39.7331 160.875C39.9305 160.665 40.1499 160.388 40.5545 160.3C40.756 160.256 41.0185 160.352 41.1334 160.56C41.2479 160.763 41.2469 160.989 41.2032 161.196C40.9973 162.02 40.0994 162.656 39.1388 162.559C38.1783 162.445 37.4537 161.715 37.2488 160.916C37.2105 160.712 37.207 160.472 37.3597 160.275C37.511 160.076 37.7971 160.049 37.9768 160.124C38.3514 160.272 38.5444 160.552 38.7339 160.77C39.1004 161.235 39.2906 161.679 39.3904 161.988C39.4903 162.3 39.5032 162.481 39.4865 162.485C39.4327 162.508 39.305 161.769 38.5734 160.902C38.3856 160.698 38.1728 160.446 37.8995 160.356C37.7665 160.311 37.6368 160.338 37.5627 160.436C37.4884 160.529 37.4777 160.699 37.5146 160.861C37.6923 161.518 38.3562 162.183 39.1696 162.267C39.9782 162.357 40.7668 161.797 40.9388 161.135C40.9778 160.975 40.9726 160.804 40.9087 160.689C40.846 160.576 40.7232 160.52 40.5915 160.541C40.3134 160.585 40.0794 160.819 39.887 161.014C39.1141 161.844 38.9984 162.598 38.9435 162.572V162.572Z" fill="white"/>
<path d="M30.0859 78.443L38.0896 75.3711C38.0896 75.3711 40.2568 81.5266 43.8107 81.2234C47.4471 80.9131 47.8914 75.7871 47.8914 75.7871L57.2411 78.4331C57.2411 78.4331 57.9036 91.9959 57.2411 94.115C56.5786 96.2342 54.693 98.9891 54.693 98.9891C54.693 98.9891 56.6805 103.598 56.7315 104.87C56.7824 106.141 56.2218 105.823 56.2218 105.823L31.9547 106.114L30.0859 78.443V78.443Z" fill="#ED7E21"/>
<path d="M51.4313 92.3411C51.1207 92.0612 50.631 92.2487 50.2626 92.4471C48.171 93.5738 46.0762 94.7025 44.0917 96.0079C41.5886 97.6544 39.2767 99.572 36.8259 101.295C35.3815 102.311 33.8891 103.258 32.3554 104.134L31.834 105.039C32.3859 105.935 33.529 106.34 34.5801 106.258C35.6312 106.175 36.6055 105.683 37.4963 105.121C41.6156 102.52 44.516 98.3117 48.6357 95.7115C49.6548 95.0683 50.7888 94.4831 51.4069 93.4504C51.6133 93.1054 51.7301 92.6104 51.4313 92.3411H51.4313Z" fill="#FBB273"/>
<path d="M52.3692 98.763C52.3682 98.7916 51.9856 98.7998 51.3689 98.8162C50.7521 98.8324 49.9011 98.863 48.9636 98.9327C48.0258 99.0033 47.1796 99.0995 46.5674 99.1753C45.9551 99.2508 45.5756 99.2996 45.5704 99.2714C45.5656 99.2462 45.9367 99.1488 46.5464 99.0376C47.1558 98.9262 48.005 98.8074 48.9488 98.7364C49.8923 98.6662 50.7497 98.6575 51.369 98.677C51.9886 98.6962 52.3701 98.7374 52.3692 98.763V98.763Z" fill="#1A2E35"/>
<path d="M26.4414 94.8705C26.4414 94.8705 28.6823 101.176 29.6748 102.783C30.6672 104.39 31.0913 106.463 34.272 105.617C37.4527 104.771 39.0682 102.705 42.5457 99.8597C46.0233 97.0147 48.2671 94.8705 48.2671 94.8705L45.8184 91.914L35.6716 96.5239L33.2542 91.2373L26.4414 94.8705V94.8705Z" fill="#FBB273"/>
<path d="M57.1238 85.4033L50.1506 89.07L44.4453 92.6945C44.4453 92.6945 47.2798 95.196 48.0786 95.1347C48.8774 95.0734 49.963 93.9704 49.963 93.9704C49.963 93.9704 50.0859 94.2973 50.4341 94.4198C50.7822 94.5424 51.1918 94.1339 51.1918 94.1339C51.1918 94.1339 51.6015 94.2973 51.9497 94.2973C52.2979 94.2973 52.7032 92.9654 52.908 92.0871C53.1128 91.2088 52.769 90.784 52.769 90.784L53.0411 90.6272L53.4255 91.2982L52.8304 93.419C52.5151 94.5828 53.6428 94.4249 53.6428 94.4249C53.6428 94.4249 54.8839 92.2731 55.0107 91.0509C55.1375 89.8286 53.9119 89.0489 53.9119 89.0489C53.9119 89.0489 56.4898 86.8363 57.1238 86.4148C57.7577 85.9934 57.1238 85.4033 57.1238 85.4033H57.1238Z" fill="#FBB273"/>
<path d="M34.8316 101.154C34.8111 101.162 34.6897 100.905 34.6034 100.458C34.516 100.012 34.4885 99.3712 34.6333 98.6874C34.7807 98.004 35.0681 97.4297 35.3302 97.0585C35.592 96.6849 35.8076 96.5004 35.8233 96.5155C35.8782 96.5499 35.0996 97.3951 34.8264 98.7285C34.5307 100.057 34.8958 101.145 34.8316 101.154V101.154Z" fill="#7C4236"/>
<path d="M30.4965 78.2832C30.4965 78.2832 26.015 79.6032 25.1487 84.3183C24.6323 87.1289 25.8795 96.2532 25.8795 96.2532L34.5419 93.0392L30.4965 78.2832V78.2832Z" fill="#ED7E21"/>
<path d="M31.9544 84.5518C31.9812 84.5463 32.1066 85.0338 32.2979 85.8239C32.5009 86.6671 32.7575 87.7324 33.0413 88.9107C33.336 90.115 33.6159 91.2015 33.8342 91.9832C34.0512 92.7652 34.2067 93.2427 34.1784 93.2534C34.1657 93.2581 34.112 93.1438 34.0257 92.9325C33.9365 92.722 33.8293 92.4101 33.7005 92.0233C33.447 91.2485 33.1448 90.1641 32.8495 88.9574C32.5536 87.7513 32.318 86.6521 32.1615 85.8536C32.0049 85.0551 31.9277 84.5572 31.9544 84.5518V84.5518Z" fill="#1A2E35"/>
<path d="M32.2159 106.118C32.2159 106.118 26.4918 112.809 26.6274 118.214C26.763 123.618 29.1817 127.523 29.1817 127.523L36.7709 127.968C36.7709 127.968 37.4453 124.358 40.1588 124.358C40.7467 124.358 50.6415 143.26 50.6415 143.26L60.3354 138.841C60.3354 138.841 53.96 122.139 52.4001 118.214C50.8402 114.288 49.3786 112.394 47.2947 111.833L44.9727 105.974L32.2159 106.118H32.2159Z" fill="#042CB0"/>
<path d="M33.8207 112.587C33.8115 112.62 33.4627 112.524 32.889 112.48C32.3182 112.433 31.5116 112.464 30.6828 112.741C29.8495 113.009 29.2006 113.49 28.7957 113.891C28.3923 114.298 28.2015 114.606 28.1699 114.586C28.1583 114.579 28.1981 114.498 28.2811 114.356C28.3589 114.21 28.5021 114.019 28.6944 113.795C29.0847 113.357 29.7528 112.833 30.6203 112.554C31.483 112.266 32.3223 112.257 32.9036 112.341C33.4892 112.423 33.8275 112.569 33.8207 112.587V112.587Z" fill="white"/>
<path d="M43.1007 111.183C43.0461 111.183 43.002 110.021 43.002 108.589C43.002 107.157 43.0461 105.996 43.1007 105.996C43.1552 105.996 43.1994 107.157 43.1994 108.589C43.1994 110.021 43.1552 111.183 43.1007 111.183Z" fill="white"/>
<path d="M36.4148 105.974C36.4262 105.979 36.3947 106.088 36.3146 106.277C36.2349 106.465 36.0991 106.731 35.8962 107.038C35.4964 107.651 34.7793 108.422 33.7725 108.948C32.7655 109.474 31.7214 109.623 30.9886 109.602C30.62 109.594 30.3239 109.554 30.123 109.512C29.9218 109.47 29.814 109.434 29.8164 109.422C29.8222 109.387 30.2668 109.481 30.988 109.463C31.7044 109.448 32.7086 109.281 33.6809 108.773C34.6528 108.265 35.3617 107.537 35.7818 106.958C36.2076 106.377 36.383 105.959 36.4148 105.974V105.974Z" fill="white"/>
<path d="M56.428 105.829C56.428 105.829 59.5509 108.922 60.3361 113.608C61.1213 118.292 61.169 124.405 59.8319 126.666L56.0033 127.524L52.6338 130.931L47.8605 156.846L37.0218 155.362C37.0218 155.362 36.0074 132.844 36.3562 130.699C36.705 128.554 36.7716 127.969 36.7716 127.969C36.7716 127.969 36.5306 124.438 39.0885 121.887C41.6464 119.336 45.3089 116.669 45.3089 116.669L44.9734 105.975L56.428 105.829V105.829Z" fill="#042CB0"/>
<path d="M58.7923 109.507C58.7967 109.52 58.6713 109.572 58.4388 109.656C58.2036 109.728 57.8583 109.829 57.4179 109.884C56.5506 110 55.2608 109.973 54.0365 109.336C53.7345 109.179 53.4573 108.978 53.2176 108.775C52.9733 108.572 52.7457 108.367 52.5359 108.164C52.1158 107.76 51.7689 107.366 51.487 107.03C51.2053 106.693 50.988 106.413 50.8406 106.217C50.6934 106.021 50.6175 105.909 50.6279 105.9C50.6508 105.881 51.0077 106.29 51.5923 106.939C51.8861 107.261 52.2402 107.641 52.6613 108.033C53.0878 108.414 53.5541 108.859 54.1291 109.163C55.2999 109.772 56.5495 109.825 57.4023 109.745C58.2686 109.667 58.7811 109.468 58.7923 109.507V109.507Z" fill="white"/>
<path d="M36.7685 127.97C36.7685 127.97 36.7841 127.845 36.8274 127.604C36.8488 127.483 36.871 127.332 36.9328 127.16C36.9874 126.986 37.0424 126.781 37.1533 126.567C37.3472 126.133 37.6754 125.612 38.2312 125.174C38.7798 124.735 39.5396 124.371 40.4584 124.273L40.4885 124.27L40.5041 124.299C42.7474 128.453 46.3639 135.151 50.7204 143.219L50.6008 143.179C53.612 141.804 56.8856 140.309 60.2922 138.754L60.2416 138.879C59.7463 137.619 59.2206 136.283 58.6887 134.93C56.8516 130.252 55.0901 125.767 53.4629 121.623C52.6509 119.551 51.8725 117.565 51.1349 115.683C50.7893 114.741 50.2415 113.914 49.5473 113.28C48.8576 112.646 48.0248 112.195 47.1839 111.985L47.1768 111.983C44.8773 111.322 42.6846 111.135 40.7773 111.223C38.8646 111.297 37.2358 111.651 35.9377 112.023C34.6384 112.405 33.6685 112.828 33.0184 113.127C32.6941 113.279 32.4537 113.41 32.2876 113.49C32.1227 113.571 32.0352 113.608 32.0352 113.608C32.0352 113.608 32.1152 113.558 32.2768 113.469C32.4395 113.383 32.6769 113.246 32.9989 113.087C33.6442 112.774 34.6118 112.337 35.913 111.941C37.213 111.554 38.8478 111.187 40.7716 111.101C42.6899 111.001 44.899 111.179 47.2198 111.837L47.2129 111.835C48.0988 112.052 48.9412 112.509 49.6572 113.16C50.3727 113.808 50.9416 114.665 51.2946 115.62C52.0363 117.5 52.8191 119.485 53.6357 121.555C55.2663 125.697 57.0316 130.182 58.8725 134.859C59.4041 136.211 59.9294 137.548 60.4245 138.807L60.4584 138.894L60.3738 138.932C56.9655 140.484 53.6903 141.975 50.6775 143.346L50.5986 143.382L50.5578 143.306C46.2338 135.221 42.6443 128.509 40.4178 124.345L40.4633 124.371C39.5746 124.458 38.8179 124.809 38.2781 125.233C37.7284 125.656 37.3989 126.163 37.1999 126.589C37.0866 126.799 37.0283 127 36.9702 127.171C36.9048 127.34 36.8786 127.49 36.8531 127.609C36.8016 127.848 36.7685 127.97 36.7685 127.97V127.97Z" fill="white"/>
<path d="M58.7925 113.984C58.7712 114.016 58.355 113.721 57.6077 113.403C57.2359 113.241 56.7749 113.092 56.254 112.97C55.7304 112.859 55.1452 112.781 54.5271 112.773C53.9087 112.773 53.3225 112.844 52.7975 112.948C52.2749 113.064 51.8121 113.207 51.4383 113.365C50.6872 113.674 50.2674 113.963 50.2465 113.931C50.2388 113.92 50.3394 113.842 50.5291 113.711C50.6229 113.644 50.7408 113.566 50.8864 113.49C51.0308 113.413 51.1911 113.315 51.3829 113.237C51.7569 113.06 52.2255 112.899 52.7584 112.771C53.2936 112.654 53.8945 112.576 54.5283 112.576C55.1619 112.584 55.7616 112.669 56.2953 112.793C56.8264 112.928 57.293 113.094 57.6647 113.276C57.8556 113.356 58.0146 113.456 58.158 113.535C58.3027 113.613 58.4196 113.692 58.5126 113.76C58.7008 113.894 58.8003 113.973 58.7925 113.984V113.984Z" fill="white"/>
<g opacity="0.3">
<path d="M40.4648 124.322C40.4648 124.322 43.3318 136.547 46.4613 139.968C49.5908 143.389 50.4281 144.109 50.4281 144.109L50.6431 143.263L40.4648 124.322V124.322Z" fill="black"/>
</g>
<path d="M57.3867 102.899C57.3867 102.899 57.7018 100.992 58.6314 99.9157C59.561 98.8391 61.2703 97.5531 61.2703 97.5531H61.7501L63.0097 94.7398L66.5456 94.5693C66.5456 94.5693 65.7985 101.441 64.0892 103.534C62.3799 105.628 60.6536 105.513 59.9339 105.304C59.2142 105.094 57.3867 102.899 57.3867 102.899V102.899Z" fill="#FBB273"/>
<path d="M51.2883 76.3482L48.4974 90.0848C48.3439 90.8408 48.9233 91.5475 49.6968 91.5475H68.9025C69.4752 91.5475 69.9713 91.1513 70.0966 90.594L73.1831 76.8574C73.3545 76.0946 72.7728 75.3701 71.989 75.3701H52.4877C51.9055 75.3701 51.4039 75.7791 51.2883 76.3482V76.3482Z" fill="#1A2E35"/>
<path d="M51.2903 76.3473C51.2903 76.3473 51.2924 76.2807 51.3344 76.1596C51.3753 76.0394 51.4587 75.8603 51.6409 75.6842C51.8194 75.5101 52.1135 75.3463 52.4887 75.34C52.8532 75.3373 53.272 75.3343 53.7424 75.3309C55.6376 75.3235 58.3654 75.3128 61.7324 75.2996C63.4199 75.2959 65.2672 75.2919 67.2499 75.2876C68.2418 75.286 69.2674 75.2843 70.3237 75.2827C70.852 75.2819 71.3879 75.2812 71.9312 75.2805C72.5096 75.245 73.1052 75.654 73.2572 76.2401C73.349 76.5259 73.2904 76.851 73.222 77.1114C73.1605 77.3861 73.0988 77.6623 73.0366 77.9402C72.9123 78.496 72.7865 79.0581 72.6594 79.6262C72.4049 80.7623 72.1451 81.9224 71.8806 83.1032C71.3506 85.465 70.8019 87.9101 70.2398 90.4145C70.2052 90.5657 70.1747 90.7377 70.0965 90.8951C70.0224 91.0514 69.9168 91.1925 69.7874 91.3068C69.5334 91.5401 69.1767 91.659 68.8432 91.6449C68.2077 91.6448 67.5763 91.6447 66.9496 91.6445C65.6961 91.644 64.4609 91.6435 63.2473 91.643C60.8201 91.6411 58.4789 91.6391 56.2483 91.6373C54.0183 91.6341 51.8989 91.6311 49.915 91.6282C49.6761 91.6362 49.3936 91.6249 49.1601 91.51C48.9236 91.4031 48.7239 91.2237 48.591 91.0078C48.4576 90.7916 48.3886 90.5385 48.3996 90.2893C48.4142 90.0339 48.4814 89.8209 48.5216 89.5922C48.7066 88.693 48.8841 87.8298 49.0536 87.0058C49.7352 83.7174 50.2873 81.0537 50.6709 79.203C50.8647 78.2893 51.0158 77.5766 51.1204 77.0836C51.1726 76.848 51.213 76.6652 51.2422 76.5334C51.2707 76.4096 51.2903 76.3473 51.2903 76.3473C51.2903 76.3473 51.284 76.4123 51.262 76.5374C51.2374 76.6701 51.2033 76.8542 51.1594 77.0914C51.0633 77.5862 50.9244 78.3013 50.7462 79.2182C50.3772 81.0718 49.8461 83.7398 49.1904 87.0334C49.0249 87.8583 48.8515 88.7223 48.6709 89.6224C48.6319 89.8452 48.5642 90.0812 48.5548 90.294C48.5458 90.5134 48.6076 90.735 48.7256 90.9248C48.8431 91.1142 49.0194 91.2712 49.2267 91.3638C49.438 91.4633 49.6605 91.4729 49.915 91.465C51.8989 91.4621 54.0183 91.4591 56.2483 91.4559C58.4789 91.4541 60.8201 91.4521 63.2473 91.4502C64.461 91.4496 65.6961 91.4492 66.9496 91.4487C67.5763 91.4485 68.2077 91.4484 68.8432 91.4483C69.1455 91.4599 69.4352 91.3591 69.6556 91.1603C69.7658 91.0632 69.8555 90.943 69.9184 90.8101C69.984 90.6795 70.0105 90.5323 70.0472 90.3715C70.6105 87.8674 71.1606 85.4226 71.6919 83.0611C71.958 81.8806 72.2194 80.7208 72.4754 79.585C72.6035 79.0172 72.7303 78.4553 72.8557 77.8998C72.9184 77.622 72.9807 77.3459 73.0427 77.0714C73.1148 76.7911 73.1582 76.5432 73.0819 76.2887C72.9479 75.7832 72.4478 75.4289 71.9312 75.4579C71.3879 75.4572 70.852 75.4565 70.3237 75.4558C69.2674 75.4541 68.2418 75.4525 67.2499 75.4508C65.2672 75.4465 63.4199 75.4425 61.7324 75.4388C58.3654 75.4257 55.6376 75.415 53.7424 75.4075C53.272 75.4041 52.8533 75.4012 52.4887 75.3985C52.1311 75.3985 51.8453 75.549 51.6681 75.7132C51.3093 76.0581 51.311 76.3616 51.2903 76.3473H51.2903Z" fill="#375A64"/>
<path d="M62.7258 82.6088C62.7258 82.6088 65.0433 86.5402 65.2823 87.0644C65.5212 87.5886 66.2141 88.3867 66.2619 88.8812C66.3096 89.3757 66.8592 92.2111 66.8114 93.2356C66.7636 94.2602 66.1945 95.5245 66.1945 95.5245L63.0125 94.7368C63.0125 94.7368 62.2606 94.0934 61.8242 93.1165C61.3878 92.1396 61.0055 91.7822 60.5993 91.4724C60.1932 91.1627 58.5925 90.1591 58.4028 89.7979C58.1727 89.3599 58.4028 89.0239 58.4028 89.0239C58.4028 89.0239 57.6624 88.668 57.5411 88.2558C57.4119 87.8166 57.5411 87.2312 58.3773 87.6125C59.2136 87.9937 62.2957 90.1858 62.6063 89.9475C62.9169 89.7092 62.5346 89.1331 62.5346 89.1331C62.5346 89.1331 59.2614 86.159 59.0941 85.6348C58.9269 85.1106 59.4047 84.3719 60.1693 85.0153C60.9338 85.6586 63.4426 88.1843 63.7054 88.1843C63.9682 88.1843 63.6815 87.4457 63.6815 87.4457C63.6815 87.4457 62.3936 84.6817 62.1774 83.9431C61.9612 83.2045 62.0807 82.2275 62.7258 82.6088V82.6088Z" fill="#FBB273"/>
<path d="M73.3266 76.1808C73.3266 76.1842 73.2949 76.1876 73.233 76.1909C73.1594 76.1935 73.0692 76.1967 72.9583 76.2006C72.7007 76.2051 72.348 76.2113 71.902 76.2191C70.9676 76.2267 69.6448 76.2373 68.0173 76.2504C64.7224 76.2578 60.1983 76.268 55.2007 76.2792C54.5749 76.2791 53.9566 76.2789 53.347 76.2788C53.0475 76.2577 52.7809 76.3408 52.5805 76.532C52.4825 76.625 52.4078 76.7402 52.3638 76.8659C52.3236 76.9861 52.2962 77.1478 52.2619 77.2857C52 78.4327 51.7579 79.5415 51.5318 80.5989C51.0855 82.7118 50.6832 84.6159 50.3441 86.2215C50.0009 87.8212 49.7078 89.1127 49.4945 90.0025C49.3878 90.4345 49.3034 90.776 49.2418 91.0255C49.2131 91.1324 49.1897 91.2193 49.1706 91.2902C49.1535 91.3496 49.1432 91.3797 49.1398 91.3789C49.1365 91.3781 49.1404 91.3466 49.151 91.2857C49.1649 91.2136 49.1821 91.1252 49.2031 91.0166C49.2558 90.7652 49.3281 90.421 49.4195 89.9857C49.609 89.0735 49.8773 87.7821 50.2074 86.1931C50.5347 84.5849 50.923 82.6778 51.3538 80.5615C51.5751 79.5025 51.8136 78.3919 52.0732 77.2431C52.1099 77.0957 52.1283 76.9639 52.1804 76.8018C52.2344 76.6469 52.326 76.5053 52.4453 76.3917C52.677 76.1582 53.0395 76.0577 53.3471 76.0829C53.9566 76.0827 54.5749 76.0825 55.2007 76.0823C60.1983 76.0936 64.7224 76.1038 68.0173 76.1112C69.6448 76.1243 70.9676 76.1349 71.902 76.1425C72.348 76.1503 72.7007 76.1564 72.9583 76.1609C73.0692 76.1649 73.1594 76.1681 73.233 76.1707C73.2949 76.174 73.3266 76.1774 73.3266 76.1808V76.1808Z" fill="#375A64"/>
<path d="M57.8501 100.398C57.8378 100.393 57.8721 100.283 57.9487 100.089C58.0373 99.9018 58.1668 99.6258 58.3923 99.3257C58.8241 98.7241 59.6398 97.9837 60.769 97.6844C61.0615 97.6025 61.3573 97.5704 61.64 97.5533L61.5625 97.5974C61.995 96.8108 62.3286 96.0636 62.5859 95.5553C62.839 95.0397 62.9945 94.7335 63.0124 94.7403C63.0388 94.7506 62.9218 95.077 62.6996 95.6067C62.4688 96.137 62.1707 96.872 61.7249 97.7014L61.7034 97.7416L61.6473 97.7456C61.3788 97.7651 61.0982 97.7966 60.8198 97.8747C59.7461 98.1589 58.9506 98.8475 58.5031 99.4105C58.0466 99.9797 57.8838 100.414 57.8501 100.398V100.398Z" fill="#7C4236"/>
<path d="M61.9669 91.1439C61.9385 91.1903 61.1229 90.7464 60.1454 90.1524C59.1676 89.5582 58.3981 89.039 58.4265 88.9926C58.4549 88.9462 59.2703 89.39 60.2482 89.9842C61.2257 90.5782 61.9952 91.0975 61.9669 91.1439V91.1439Z" fill="#7C4236"/>
<path d="M62.9947 79.4969C62.8796 79.87 62.5173 80.0899 62.1855 79.9881C61.8537 79.8863 61.678 79.5014 61.7931 79.1283C61.9082 78.7553 62.2704 78.5354 62.6022 78.6372C62.934 78.739 63.1097 79.1239 62.9947 79.4969Z" fill="#E1E1E1"/>
<path d="M34.0975 78.9639C34.9474 78.9639 35.6364 78.2768 35.6364 77.4292C35.6364 76.5816 34.9474 75.8945 34.0975 75.8945C33.2476 75.8945 32.5586 76.5816 32.5586 77.4292C32.5586 78.2768 33.2476 78.9639 34.0975 78.9639Z" fill="#1A2E35"/>
<path d="M34.541 81.2438C35.3597 81.2438 36.0234 80.5819 36.0234 79.7654C36.0234 78.949 35.3597 78.2871 34.541 78.2871C33.7223 78.2871 33.0586 78.949 33.0586 79.7654C33.0586 80.5819 33.7223 81.2438 34.541 81.2438Z" fill="#1A2E35"/>
<path d="M35.3941 83.046C36.1759 83.046 36.8096 82.414 36.8096 81.6343C36.8096 80.8547 36.1759 80.2227 35.3941 80.2227C34.6123 80.2227 33.9785 80.8547 33.9785 81.6343C33.9785 82.414 34.6123 83.046 35.3941 83.046Z" fill="#1A2E35"/>
<path d="M36.6496 84.6301C37.3438 84.6301 37.9065 84.0689 37.9065 83.3766C37.9065 82.6843 37.3438 82.123 36.6496 82.123C35.9554 82.123 35.3926 82.6843 35.3926 83.3766C35.3926 84.0689 35.9554 84.6301 36.6496 84.6301Z" fill="#1A2E35"/>
<path d="M37.6671 86.3733C38.3613 86.3733 38.9241 85.8121 38.9241 85.1198C38.9241 84.4274 38.3613 83.8662 37.6671 83.8662C36.9729 83.8662 36.4102 84.4274 36.4102 85.1198C36.4102 85.8121 36.9729 86.3733 37.6671 86.3733Z" fill="#1A2E35"/>
<path d="M38.6085 87.9143C39.3028 87.9143 39.8655 87.3531 39.8655 86.6608C39.8655 85.9685 39.3028 85.4072 38.6085 85.4072C37.9143 85.4072 37.3516 85.9685 37.3516 86.6608C37.3516 87.3531 37.9143 87.9143 38.6085 87.9143Z" fill="#1A2E35"/>
<path d="M38.9663 87.8773C38.9663 87.8773 37.9897 88.5249 38.8398 89.9793C39.5009 91.1102 40.5222 91.0387 40.7841 91.234C41.3623 91.6653 41.8338 92.6534 41.5847 93.3454C41.3356 94.0373 42.8367 92.5959 42.6166 90.5653C42.3675 88.2676 41.4814 87.7478 40.9976 87.4726C40.0401 86.9281 39.162 87.5634 38.9663 87.8773Z" fill="#1A2E35"/>
<path d="M38.1816 87.9447C38.1816 87.9447 38.7835 86.9537 39.8148 86.9258L40.1611 87.3858C40.1611 87.3858 39.3011 87.6874 38.5703 88.4592L38.1816 87.9447V87.9447Z" fill="#375A64"/>
<g style="mix-blend-mode:multiply" opacity="0.3">
<path d="M38.0664 69.1123V69.8801C38.0664 69.8801 40.1351 74.1255 44.095 74.5725C47.3018 74.9345 47.8986 74.7517 47.8986 74.7517V73.3164C47.8986 73.3164 41.9779 74.0979 38.0664 69.1123V69.1123Z" fill="#FBB273"/>
</g>
</svg>
