<?xml version="1.0" encoding="UTF-8" standalone="no" ?>
<!DOCTYPE svg PUBLIC "-//W3C//DTD SVG 1.1//EN" "http://www.w3.org/Graphics/SVG/1.1/DTD/svg11.dtd">
<svg xmlns="http://www.w3.org/2000/svg" xmlns:xlink="http://www.w3.org/1999/xlink" version="1.1" width="1080" height="1080" viewBox="0 0 1080 1080" xml:space="preserve">
<desc>Created with Fabric.js 5.2.4</desc>
<defs>
</defs>
<g transform="matrix(0 0 0 0 0 0)" id="40cacd68-cf79-45f8-9011-a039dfaba456"  >
</g>
<g transform="matrix(1 0 0 1 540 540)" id="02549689-03d7-447e-889d-78e410fddeab"  >
<rect style="stroke: none; stroke-width: 1; stroke-dasharray: none; stroke-linecap: butt; stroke-dashoffset: 0; stroke-linejoin: miter; stroke-miterlimit: 4; fill: rgb(255,255,255); fill-rule: nonzero; opacity: 1; visibility: hidden;" vector-effect="non-scaling-stroke"  x="-540" y="-540" rx="0" ry="0" width="1080" height="1080" />
</g>
<g transform="matrix(1 0 0 1 540.01 535.96)"  >
<path style="stroke: none; stroke-width: 1; stroke-dasharray: none; stroke-linecap: butt; stroke-dashoffset: 0; stroke-linejoin: miter; stroke-miterlimit: 4; fill: rgb(255,255,255); fill-rule: evenodd; opacity: 1;" vector-effect="non-scaling-stroke"  transform=" translate(-13.85, -11.2)" d="M 9.51127 14.1541 C 8.62551 14.1541 8.62551 12.7912 9.51127 12.7912 C 10.397 12.7912 10.3891 14.1541 9.51127 14.1541 Z M 25.3285 0.617188 L 2.36451 0.617188 C 2.14497 0.617188 1.93443 0.704401 1.77919 0.859638 C 1.62395 1.01487 1.53674 1.22542 1.53674 1.44496 L 1.53674 20.9529 C 1.53744 21.1722 1.62487 21.3824 1.77996 21.5375 C 1.93505 21.6925 2.14519 21.78 2.36451 21.7807 L 25.3285 21.7807 C 25.5474 21.7793 25.7569 21.6915 25.9114 21.5365 C 26.0659 21.3815 26.153 21.1718 26.1537 20.9529 L 26.1537 1.44496 C 26.1537 1.22587 26.0668 1.01573 25.9121 0.860567 C 25.7575 0.705406 25.5476 0.617885 25.3285 0.617188" stroke-linecap="round" />
</g>
<g transform="matrix(1 0 0 1 539.9 536.39)"  >
<path style="stroke: none; stroke-width: 1; stroke-dasharray: none; stroke-linecap: butt; stroke-dashoffset: 0; stroke-linejoin: miter; stroke-miterlimit: 4; fill: rgb(30,38,84); fill-rule: evenodd; opacity: 1;" vector-effect="non-scaling-stroke"  transform=" translate(-13.74, -11.63)" d="M 9.51132 14.1554 C 8.62556 14.1554 8.62556 12.7925 9.51132 12.7925 C 10.3971 12.7925 10.3892 14.1554 9.51132 14.1554 Z M 13.7583 3.51565 C 12.1532 3.51148 10.5829 3.9836 9.24623 4.87226 C 7.90957 5.76092 6.8666 7.02616 6.24934 8.50784 C 5.63207 9.98951 5.46827 11.621 5.77866 13.1958 C 6.08905 14.7706 6.85968 16.218 7.993 17.3546 C 9.12632 18.4913 10.5714 19.2661 12.1453 19.5811 C 13.7192 19.8961 15.3512 19.7371 16.8346 19.1242 C 18.3181 18.5113 19.5864 17.472 20.479 16.1379 C 21.3715 14.8039 21.8483 13.235 21.8488 11.6299 C 21.8505 10.5658 21.6426 9.51185 21.2369 8.52815 C 20.8312 7.54444 20.2357 6.6503 19.4844 5.89679 C 18.7331 5.14328 17.8407 4.54516 16.8582 4.1366 C 15.8757 3.72803 14.8223 3.51704 13.7583 3.51565" stroke-linecap="round" />
</g>
<g transform="matrix(1 0 0 1 543.5 529.95)"  >
<path style="stroke: none; stroke-width: 1; stroke-dasharray: none; stroke-linecap: butt; stroke-dashoffset: 0; stroke-linejoin: miter; stroke-miterlimit: 4; fill: rgb(239,126,34); fill-rule: evenodd; opacity: 1;" vector-effect="non-scaling-stroke"  transform=" translate(-17.34, -5.18)" d="M 16.2837 8.18579 L 17.2591 7.08121 L 17.5412 6.75433 C 17.8929 6.91415 18.2878 6.95218 18.6635 6.86243 C 19.0393 6.77267 19.3744 6.56024 19.6159 6.25872 C 19.8989 5.92784 20.0935 5.53068 20.1815 5.10428 C 20.2695 4.67788 20.2482 4.23613 20.1194 3.82023 L 18.9436 5.15679 L 17.7626 4.84308 L 17.4199 3.58824 L 18.5904 2.25432 C 18.1979 2.14256 17.7818 2.14446 17.3903 2.2598 C 16.9989 2.37514 16.6482 2.59919 16.379 2.90591 C 16.1098 3.21263 15.9332 3.58943 15.8697 3.99253 C 15.8061 4.39564 15.8583 4.8085 16.0201 5.18314 L 16.0675 5.13306 L 14.441 6.9784 L 16.2837 8.18579 Z" stroke-linecap="round" />
</g>
<g transform="matrix(1 0 0 1 543.51 529.92)"  >
<path style="stroke: none; stroke-width: 1; stroke-dasharray: none; stroke-linecap: butt; stroke-dashoffset: 0; stroke-linejoin: miter; stroke-miterlimit: 4; fill: rgb(20,69,117); fill-rule: evenodd; opacity: 1;" vector-effect="non-scaling-stroke"  transform=" translate(-17.35, -5.16)" d="M 16.3653 8.27087 L 16.194 8.10215 L 17.5121 6.59951 L 17.5885 6.63906 C 17.9194 6.78616 18.2895 6.82017 18.6417 6.73583 C 18.9938 6.65149 19.3084 6.45349 19.5367 6.17245 C 19.7817 5.88565 19.9569 5.54591 20.0483 5.17997 C 20.1398 4.81402 20.1452 4.43184 20.0639 4.06348 L 18.9857 5.29986 L 17.6676 4.95715 L 17.2827 3.55733 L 18.361 2.32622 C 18.0107 2.26199 17.6497 2.29102 17.3143 2.41041 C 16.9788 2.52979 16.6806 2.73532 16.4497 3.00636 C 16.1963 3.29194 16.0308 3.64471 15.9733 4.02217 C 15.9158 4.39963 15.9686 4.78567 16.1254 5.13378 L 16.0859 5.15224 L 16.1518 5.2155 L 15.9805 5.41849 L 14.52 7.08194 L 14.346 6.90268 L 15.875 5.16278 C 15.7217 4.7676 15.6811 4.33759 15.7579 3.92072 C 15.8347 3.50384 16.0257 3.11648 16.3098 2.80184 C 16.5938 2.48719 16.9596 2.25762 17.3665 2.13872 C 17.7734 2.01983 18.2053 2.0163 18.614 2.1285 L 18.8117 2.18386 L 17.5516 3.62587 L 17.8522 4.74099 L 18.9067 5.00461 L 20.1615 3.57051 L 20.2274 3.76823 C 20.3648 4.20662 20.3885 4.67276 20.2963 5.12283 C 20.2041 5.57291 19.9989 5.99215 19.7001 6.34116 C 19.451 6.64906 19.1093 6.86861 18.7257 6.96736 C 18.3422 7.06611 17.937 7.03881 17.5701 6.8895 L 17.3407 7.15312 L 16.3653 8.27087 Z" stroke-linecap="round" />
</g>
<g transform="matrix(1 0 0 1 533.55 540.97)"  >
<path style="stroke: none; stroke-width: 1; stroke-dasharray: none; stroke-linecap: butt; stroke-dashoffset: 0; stroke-linejoin: miter; stroke-miterlimit: 4; fill: rgb(239,126,34); fill-rule: evenodd; opacity: 1;" vector-effect="non-scaling-stroke"  transform=" translate(-7.39, -16.2)" d="M 6.39271 17.7268 C 6.35279 17.7435 6.30994 17.752 6.26668 17.7518 C 6.22343 17.7516 6.18064 17.7428 6.14085 17.7259 C 6.10105 17.7089 6.06505 17.6842 6.03496 17.6531 C 6.00487 17.622 5.9813 17.5853 5.96564 17.5449 C 5.93313 17.4637 5.93368 17.373 5.96718 17.2922 C 6.00068 17.2114 6.06447 17.147 6.14491 17.1126 C 6.18476 17.0957 6.22765 17.087 6.27095 17.0872 C 6.31425 17.0874 6.35706 17.0964 6.39677 17.1137 C 6.43648 17.1309 6.47226 17.1561 6.50193 17.1876 C 6.53159 17.2192 6.55453 17.2564 6.56934 17.2971 C 6.60191 17.3776 6.60166 17.4677 6.56865 17.548 C 6.53563 17.6283 6.47248 17.6925 6.39271 17.7268 Z M 8.01925 14.0625 L 5.60185 16.6407 L 5.58603 16.6407 C 5.40525 16.8356 5.30812 17.0936 5.31552 17.3592 C 5.32291 17.6249 5.43424 17.8771 5.62557 18.0616 C 5.7194 18.1528 5.83042 18.2243 5.95217 18.2721 C 6.07393 18.32 6.20398 18.3431 6.33475 18.3401 C 6.46552 18.3372 6.5944 18.3082 6.71388 18.255 C 6.83336 18.2018 6.94105 18.1253 7.03067 18.03 L 7.05176 18.0142 L 9.46126 15.436 L 8.01925 14.0625 Z" stroke-linecap="round" />
</g>
<g transform="matrix(1 0 0 1 533.57 540.94)"  >
<path style="stroke: none; stroke-width: 1; stroke-dasharray: none; stroke-linecap: butt; stroke-dashoffset: 0; stroke-linejoin: miter; stroke-miterlimit: 4; fill: rgb(20,69,117); fill-rule: evenodd; opacity: 1;" vector-effect="non-scaling-stroke"  transform=" translate(-7.41, -16.17)" d="M 6.26871 17.1991 L 6.18699 17.2122 L 6.06572 17.3309 L 6.06572 17.4996 C 6.07494 17.5284 6.09003 17.5549 6.11002 17.5776 C 6.13001 17.6002 6.15447 17.6185 6.18188 17.6312 C 6.20928 17.644 6.23902 17.6509 6.26923 17.6516 C 6.29944 17.6522 6.32946 17.6466 6.3574 17.6351 C 6.38534 17.6236 6.41059 17.6065 6.43157 17.5847 C 6.45255 17.563 6.46879 17.5371 6.47928 17.5088 C 6.48977 17.4804 6.49428 17.4502 6.49252 17.4201 C 6.49076 17.3899 6.48277 17.3604 6.46906 17.3335 C 6.45281 17.2937 6.42508 17.2597 6.38939 17.2357 C 6.3537 17.2118 6.31169 17.199 6.26871 17.1991 Z M 6.26871 17.8634 C 6.18164 17.8623 6.09685 17.8354 6.02505 17.7862 C 5.95326 17.7369 5.89769 17.6674 5.86537 17.5866 C 5.84186 17.5325 5.82973 17.4742 5.82973 17.4152 C 5.82973 17.3563 5.84186 17.298 5.86537 17.2439 C 5.91121 17.1374 5.99611 17.0525 6.10263 17.0066 L 6.26871 16.9724 C 6.35687 16.9717 6.44312 16.9981 6.51574 17.0481 C 6.58837 17.0981 6.64386 17.1692 6.67469 17.2518 C 6.71839 17.3599 6.71771 17.4808 6.6728 17.5884 C 6.62789 17.696 6.54237 17.7816 6.43479 17.8265 L 6.26871 17.8634 Z M 5.60966 16.8089 L 5.67293 16.7298 L 8.01915 14.2254 L 9.30035 15.4644 L 6.96994 17.9477 L 6.94885 17.9636 C 6.8683 18.0512 6.77053 18.1212 6.66166 18.1693 C 6.5528 18.2174 6.43517 18.2425 6.31616 18.243 C 6.20265 18.2443 6.09004 18.2228 5.98499 18.1797 C 5.87994 18.1367 5.78458 18.0731 5.70456 17.9926 C 5.54602 17.8414 5.44871 17.6372 5.4312 17.4189 C 5.4137 17.2005 5.47723 16.9834 5.60966 16.8089 M 6.31616 18.4513 C 6.03342 18.4521 5.76133 18.3435 5.55693 18.1481 C 5.34358 17.9427 5.21979 17.6614 5.21239 17.3654 C 5.20499 17.0693 5.31457 16.7822 5.51739 16.5664 L 5.51739 16.5532 L 8.01124 13.8906 L 9.61142 15.4302 L 7.13866 18.0927 L 7.12021 18.1112 C 7.01937 18.2202 6.89704 18.3072 6.76093 18.3667 C 6.62481 18.4261 6.47787 18.4567 6.32934 18.4565" stroke-linecap="round" />
</g>
<g transform="matrix(1 0 0 1 539.45 536.07)"  >
<path style="stroke: none; stroke-width: 1; stroke-dasharray: none; stroke-linecap: butt; stroke-dashoffset: 0; stroke-linejoin: miter; stroke-miterlimit: 4; fill: rgb(0,156,77); fill-rule: evenodd; opacity: 1;" vector-effect="non-scaling-stroke"  transform=" translate(-13.29, -11.3)" d="M 21.4849 6.99219 L 3.35046 14.0124 L 3.94888 15.6152 L 8.91023 13.7092 C 8.88947 13.6107 8.89163 13.5088 8.91657 13.4113 C 8.9415 13.3137 8.98853 13.2233 9.05402 13.1468 C 9.11951 13.0704 9.20171 13.01 9.29426 12.9704 C 9.3868 12.9308 9.48721 12.913 9.58773 12.9184 C 9.69346 12.9217 9.79678 12.9508 9.88868 13.0032 C 9.98058 13.0555 10.0583 13.1296 10.115 13.2189 L 22.0807 8.59236 L 23.238 7.21626 L 21.4849 6.99219 Z" stroke-linecap="round" />
</g>
<g transform="matrix(1 0 0 1 538.08 536)"  >
<path style="stroke: none; stroke-width: 1; stroke-dasharray: none; stroke-linecap: butt; stroke-dashoffset: 0; stroke-linejoin: miter; stroke-miterlimit: 4; fill: rgb(30,38,84); fill-rule: evenodd; opacity: 1;" vector-effect="non-scaling-stroke"  transform=" translate(-11.92, -11.23)" d="M 9.51126 14.1565 C 8.6255 14.1565 8.6255 12.7935 9.51126 12.7935 C 10.397 12.7935 10.3891 14.1565 9.51126 14.1565 Z M 16.2257 8.3568 L 13.3865 6.64062 L 10.9585 7.75047 L 9.13165 8.59406 L 6.90405 12.3665 L 8.40142 13.9166 L 10.2468 15.8199 L 16.9348 10.5238 C 16.977 8.80232 16.2389 8.3568 16.2389 8.3568" stroke-linecap="round" />
</g>
<g transform="matrix(1 0 0 1 549.02 532.15)"  >
<path style="stroke: none; stroke-width: 1; stroke-dasharray: none; stroke-linecap: butt; stroke-dashoffset: 0; stroke-linejoin: miter; stroke-miterlimit: 4; fill: rgb(30,38,84); fill-rule: evenodd; opacity: 1;" vector-effect="non-scaling-stroke"  transform=" translate(-22.86, -7.38)" d="M 22.5472 7.10156 L 22.7924 7.66044 L 23.172 7.15429 L 22.5472 7.10156 Z" stroke-linecap="round" />
</g>
<g transform="matrix(1 0 0 1 539.51 536.08)"  >
<path style="stroke: none; stroke-width: 1; stroke-dasharray: none; stroke-linecap: butt; stroke-dashoffset: 0; stroke-linejoin: miter; stroke-miterlimit: 4; fill: rgb(20,69,117); fill-rule: evenodd; opacity: 1;" vector-effect="non-scaling-stroke"  transform=" translate(-13.36, -11.32)" d="M 21.448 6.86719 L 3.18433 14.0192 L 3.94619 15.7749 L 8.75991 13.9428 C 8.72564 13.8584 8.52265 13.7978 8.52265 13.7081 L 4.107 15.4401 L 3.5534 14.1642 L 21.4796 7.13081 L 22.9796 7.28371 L 22.0359 8.40937 L 10.0385 13.1203 C 10.0991 13.1915 10.1861 13.2178 10.2151 13.3048 L 22.2151 8.62027 L 23.5332 7.07018 L 21.448 6.86719 Z" stroke-linecap="round" />
</g>
<g transform="matrix(1 0 0 1 548.28 532.54)"  >
<path style="stroke: none; stroke-width: 1; stroke-dasharray: none; stroke-linecap: butt; stroke-dashoffset: 0; stroke-linejoin: miter; stroke-miterlimit: 4; fill: rgb(255,255,255); fill-rule: evenodd; opacity: 1;" vector-effect="non-scaling-stroke"  transform=" translate(-22.13, -7.77)" d="M 22.6396 7.24617 L 21.485 7.13281 L 22.0412 8.41137 L 22.7741 7.53615 L 22.6396 7.24617 Z" stroke-linecap="round" />
</g>
<g transform="matrix(1 0 0 1 547.92 532.54)"  >
<path style="stroke: none; stroke-width: 1; stroke-dasharray: none; stroke-linecap: butt; stroke-dashoffset: 0; stroke-linejoin: miter; stroke-miterlimit: 4; fill: rgb(237,99,48); fill-rule: evenodd; opacity: 1;" vector-effect="non-scaling-stroke"  transform=" translate(-21.76, -7.77)" d="M 21.485 7.13281 L 22.0412 8.41401 L 21.485 7.13281 Z" stroke-linecap="round" />
</g>
<g transform="matrix(1 0 0 1 547.92 532.54)"  >
<path style="stroke: none; stroke-width: 1; stroke-dasharray: none; stroke-linecap: butt; stroke-dashoffset: 0; stroke-linejoin: miter; stroke-miterlimit: 4; fill: rgb(20,69,117); fill-rule: evenodd; opacity: 1;" vector-effect="non-scaling-stroke"  transform=" translate(-21.76, -7.78)" d="M 21.9041 8.46868 L 21.3505 7.18748 L 21.622 7.08203 L 22.1677 8.36323 L 21.9041 8.46868 Z" stroke-linecap="round" />
</g>
<g transform="matrix(1 0 0 1 540 553.5)"  >
<path style="stroke: none; stroke-width: 1; stroke-dasharray: none; stroke-linecap: butt; stroke-dashoffset: 0; stroke-linejoin: miter; stroke-miterlimit: 4; fill: rgb(30,38,84); fill-rule: evenodd; opacity: 1;" vector-effect="non-scaling-stroke"  transform=" translate(-13.84, -28.73)" d="M 25.2969 29.8049 L 25.1044 29.4359 L 26.1194 29.4359 L 26.3382 29.8049 L 25.2969 29.8049 Z M 24.6299 28.4868 L 25.5737 28.4868 L 25.7899 28.8559 L 24.8013 28.8559 L 24.6299 28.4868 Z M 23.2881 29.8049 L 23.1431 29.4359 L 24.1791 29.4359 L 24.3558 29.8049 L 23.2881 29.8049 Z M 22.7608 28.4868 L 23.7204 28.4868 L 23.9023 28.8559 L 22.9032 28.8559 L 22.7608 28.4868 Z M 22.3707 27.493 L 23.2565 27.493 L 23.4304 27.8673 L 22.5183 27.8673 L 22.3707 27.493 Z M 21.2767 29.8128 L 21.1712 29.4438 L 22.2257 29.4438 L 22.3575 29.8128 L 21.2767 29.8128 Z M 20.8997 28.4947 L 21.8751 28.4947 L 22.0095 28.8638 L 21.0025 28.8638 L 20.8997 28.4947 Z M 20.615 27.5009 L 21.5166 27.5009 L 21.6457 27.8752 L 20.7178 27.8752 L 20.615 27.5009 Z M 19.2731 29.8207 L 19.2046 29.4517 L 20.2591 29.4517 L 20.3619 29.8207 L 19.2731 29.8207 Z M 17.2696 29.8207 L 17.2433 29.4517 L 18.3136 29.4517 L 18.3689 29.8207 L 17.2696 29.8207 Z M 17.18 28.5026 L 19.0253 28.5026 L 18.8514 27.5088 L 19.7582 27.5088 L 20.1141 28.8717 L 17.2116 28.8717 L 17.18 28.5026 Z M 17.1088 27.5088 L 17.1352 27.8831 L 18.0816 27.8831 L 18.0262 27.5088 L 17.1088 27.5088 Z M 7.29685 29.8286 L 7.4682 29.4596 L 16.3654 29.4596 L 16.3812 29.8286 L 7.29685 29.8286 Z M 6.83024 28.8717 L 5.85748 28.8717 L 6.08419 28.471 L 7.02795 28.471 L 6.83024 28.8717 Z M 6.35836 29.8286 L 5.30387 29.8286 L 5.51741 29.4596 L 6.54025 29.4596 L 6.35836 29.8286 Z M 4.9269 28.8717 L 3.97522 28.8717 L 4.23884 28.5026 L 5.16415 28.5026 L 4.9269 28.8717 Z M 4.34957 29.8286 L 3.32144 29.8286 L 3.58507 29.4596 L 4.58419 29.4596 L 4.34957 29.8286 Z M 3.01564 28.8717 L 2.09033 28.8717 L 2.3935 28.471 L 3.29508 28.471 L 3.01564 28.8717 Z M 2.33814 29.8286 L 1.33902 29.8286 L 1.63163 29.4596 L 2.60967 29.4596 L 2.33814 29.8286 Z M 3.158 27.5088 L 3.97522 27.5088 L 3.7116 27.8831 L 2.86802 27.8831 L 3.158 27.5088 Z M 4.89262 27.5088 L 5.74412 27.5088 L 5.51741 27.8831 L 4.64482 27.8831 L 4.89262 27.5088 Z M 6.63252 27.5088 L 7.50247 27.5088 L 7.3153 27.8831 L 6.41899 27.8831 L 6.63252 27.5088 Z M 7.92954 28.471 L 8.89439 28.471 L 8.75204 28.8401 L 7.75027 28.8401 L 7.92954 28.471 Z M 8.39615 27.4772 L 9.27928 27.4772 L 9.13165 27.8515 L 8.20634 27.8515 L 8.39615 27.4772 Z M 9.77488 28.471 L 10.7503 28.471 L 10.6448 28.8401 L 9.63517 28.8401 L 9.77488 28.471 Z M 10.1255 27.4772 L 11.0271 27.4772 L 10.919 27.8515 L 9.99632 27.8515 L 10.1255 27.4772 Z M 11.6202 28.471 L 12.6088 28.471 L 12.5429 28.8401 L 11.5253 28.8401 L 11.6202 28.471 Z M 11.8839 27.4772 L 12.7881 27.4772 L 12.7248 27.8515 L 11.7731 27.8515 L 11.8839 27.4772 Z M 13.4656 28.471 L 14.4673 28.471 L 14.4436 28.8401 L 13.4181 28.8401 L 13.4656 28.471 Z M 13.6027 27.4772 L 14.5201 27.4772 L 14.4963 27.8515 L 13.5605 27.8515 L 13.6027 27.4772 Z M 15.3294 28.471 L 16.3206 28.471 L 16.3364 28.8401 L 15.3109 28.8401 L 15.3294 28.471 Z M 15.3636 27.4772 L 16.2837 27.4772 L 16.2837 27.8515 L 15.3531 27.8515 L 15.3636 27.4772 Z M 24.999 27.4772 L 25.2178 27.8515 L 24.3241 27.8515 L 24.1396 27.4772 L 24.999 27.4772 Z M 25.7213 27.1608 C 25.6863 27.1115 25.6401 27.0712 25.5864 27.0433 C 25.5328 27.0153 25.4733 27.0005 25.4129 27 L 2.65712 27 C 2.60135 27.0004 2.54634 27.0129 2.49584 27.0366 C 2.44534 27.0602 2.40054 27.0945 2.3645 27.1371 L 0.0920886 29.8366 C 0.0446792 29.8927 0.0140834 29.9611 0.00382308 30.0338 C -0.0064372 30.1066 0.00405482 30.1807 0.0340917 30.2478 C 0.0652909 30.313 0.114233 30.3682 0.175311 30.4069 C 0.236388 30.4456 0.307131 30.4663 0.379435 30.4666 L 27.3109 30.4666 C 27.3794 30.4654 27.4462 30.4459 27.5046 30.4102 C 27.563 30.3745 27.6108 30.3239 27.6431 30.2636 C 27.6763 30.2025 27.6917 30.1333 27.6875 30.0638 C 27.6833 29.9944 27.6597 29.9275 27.6194 29.8708 L 25.7213 27.1608 Z" stroke-linecap="round" />
</g>
<g transform="matrix(1 0 0 1 539.95 549.14)"  >
<path style="stroke: none; stroke-width: 1; stroke-dasharray: none; stroke-linecap: butt; stroke-dashoffset: 0; stroke-linejoin: miter; stroke-miterlimit: 4; fill: rgb(30,38,84); fill-rule: evenodd; opacity: 1;" vector-effect="non-scaling-stroke"  transform=" translate(-13.79, -24.38)" d="M 8.83901 25.818 C 8.47258 26.1818 9.042 26.39 9.042 26.39 L 18.5324 26.39 C 18.5324 26.39 19.107 26.1818 18.7432 25.818 C 18.3794 25.4542 17.3882 25.1879 17.2828 23.6167 C 17.2828 23.4981 17.2828 23.0078 17.2828 22.3672 L 10.3021 22.3672 C 10.3021 23.0078 10.3021 23.4981 10.3021 23.6167 C 10.2019 25.1985 9.20544 25.4621 8.84692 25.818" stroke-linecap="round" />
</g>
<g transform="matrix(1 0 0 1 540 535.97)"  >
<path style="stroke: none; stroke-width: 1; stroke-dasharray: none; stroke-linecap: butt; stroke-dashoffset: 0; stroke-linejoin: miter; stroke-miterlimit: 4; fill: rgb(30,38,84); fill-rule: evenodd; opacity: 1;" vector-effect="non-scaling-stroke"  transform=" translate(-13.84, -11.2)" d="M 2.51747 0.761864 C 2.30095 0.763257 2.09376 0.850249 1.94115 1.00385 C 1.78853 1.15745 1.70288 1.3652 1.70288 1.58173 L 1.70288 20.8102 C 1.70428 21.0251 1.7908 21.2307 1.94349 21.3819 C 2.09618 21.5331 2.30258 21.6176 2.51747 21.6169 L 25.1572 21.6169 C 25.2642 21.6169 25.3701 21.5958 25.469 21.5549 C 25.5678 21.514 25.6576 21.454 25.7332 21.3783 C 25.8089 21.3027 25.8689 21.2129 25.9098 21.1141 C 25.9507 21.0152 25.9718 20.9093 25.9718 20.8023 L 25.9718 1.58173 C 25.9698 1.36632 25.8833 1.16032 25.731 1.008 C 25.5786 0.855683 25.3726 0.769199 25.1572 0.767138 L 2.51747 0.761864 Z M 25.1572 22.4078 L 2.51747 22.4078 C 2.30842 22.4078 2.10144 22.3664 1.9085 22.2859 C 1.71555 22.2054 1.54048 22.0875 1.39339 21.9389 C 1.24631 21.7904 1.13013 21.6141 1.05158 21.4204 C 0.973026 21.2267 0.933658 21.0193 0.935748 20.8102 L 0.935748 1.58173 C 0.935748 1.16223 1.10239 0.759906 1.39902 0.463275 C 1.69566 0.166644 2.09797 0 2.51747 0 L 25.1572 0 C 25.5767 0 25.979 0.166644 26.2757 0.463275 C 26.5723 0.759906 26.739 1.16223 26.739 1.58173 L 26.739 20.8102 C 26.741 21.0193 26.7017 21.2267 26.6231 21.4204 C 26.5446 21.6141 26.4284 21.7904 26.2813 21.9389 C 26.1342 22.0875 25.9592 22.2054 25.7662 22.2859 C 25.5733 22.3664 25.3663 22.4078 25.1572 22.4078" stroke-linecap="round" />
</g>
<g transform="matrix(1 0 0 1 540 535.97)"  >
<path style="stroke: none; stroke-width: 1; stroke-dasharray: none; stroke-linecap: butt; stroke-dashoffset: 0; stroke-linejoin: miter; stroke-miterlimit: 4; fill: rgb(30,38,84); fill-rule: evenodd; opacity: 1;" vector-effect="non-scaling-stroke"  transform=" translate(-13.84, -11.2)" d="M 2.51747 0.761864 C 2.30095 0.763257 2.09376 0.850249 1.94115 1.00385 C 1.78853 1.15745 1.70288 1.3652 1.70288 1.58173 L 1.70288 20.8102 C 1.70428 21.0251 1.7908 21.2307 1.94349 21.3819 C 2.09618 21.5331 2.30258 21.6176 2.51747 21.6169 L 25.1572 21.6169 C 25.2642 21.6169 25.3701 21.5958 25.469 21.5549 C 25.5678 21.514 25.6576 21.454 25.7332 21.3783 C 25.8089 21.3027 25.8689 21.2129 25.9098 21.1141 C 25.9507 21.0152 25.9718 20.9093 25.9718 20.8023 L 25.9718 1.58173 C 25.9698 1.36632 25.8833 1.16032 25.731 1.008 C 25.5786 0.855683 25.3726 0.769199 25.1572 0.767138 L 2.51747 0.761864 Z M 25.1572 22.4078 L 2.51747 22.4078 C 2.30842 22.4078 2.10144 22.3664 1.9085 22.2859 C 1.71555 22.2054 1.54048 22.0875 1.39339 21.9389 C 1.24631 21.7904 1.13013 21.6141 1.05158 21.4204 C 0.973026 21.2267 0.933658 21.0193 0.935748 20.8102 L 0.935748 1.58173 C 0.935748 1.16223 1.10239 0.759906 1.39902 0.463275 C 1.69566 0.166644 2.09797 0 2.51747 0 L 25.1572 0 C 25.5767 0 25.979 0.166644 26.2757 0.463275 C 26.5723 0.759906 26.739 1.16223 26.739 1.58173 L 26.739 20.8102 C 26.741 21.0193 26.7017 21.2267 26.6231 21.4204 C 26.5446 21.6141 26.4284 21.7904 26.2813 21.9389 C 26.1342 22.0875 25.9592 22.2054 25.7662 22.2859 C 25.5733 22.3664 25.3663 22.4078 25.1572 22.4078" stroke-linecap="round" />
</g>
<g transform="matrix(1 0 0 1 535.55 536.37)"  >
<path style="stroke: none; stroke-width: 1; stroke-dasharray: none; stroke-linecap: butt; stroke-dashoffset: 0; stroke-linejoin: miter; stroke-miterlimit: 4; fill: rgb(255,255,255); fill-rule: evenodd; opacity: 1;" vector-effect="non-scaling-stroke"  transform=" translate(-9.39, -11.6)" d="M 9.36365 11.5547 L 9.42164 11.6522 L 9.36365 11.5547 Z" stroke-linecap="round" />
</g>
<g transform="matrix(1 0 0 1 544.01 539.12)"  >
<path style="stroke: none; stroke-width: 1; stroke-dasharray: none; stroke-linecap: butt; stroke-dashoffset: 0; stroke-linejoin: miter; stroke-miterlimit: 4; fill: rgb(255,255,255); fill-rule: evenodd; opacity: 1;" vector-effect="non-scaling-stroke"  transform=" translate(-17.85, -14.35)" d="M 20.9814 21.591 C 21.0684 21.5067 20.818 21.4988 20.9103 21.4038 C 20.8364 21.3195 17.6361 21.5989 17.5886 21.5488 C 16.4551 20.4021 18.2951 22.2712 17.1721 21.1218 C 15.9331 19.8643 14.702 18.6042 13.4551 17.3467 C 13.3335 17.2579 13.1941 17.1967 13.0465 17.1675 C 12.6554 17.0861 12.2719 16.9724 11.8997 16.8274 C 11.5934 16.63 11.3142 16.3934 11.0693 16.1235 C 10.7398 15.8204 10.4234 15.4987 10.1018 15.1982 C 10.521 14.7659 11.0614 14.4864 11.1563 13.859 L 11.2723 13.7536 C 11.4595 13.6139 11.6466 13.4899 11.8233 13.3239 C 11.9767 13.2197 12.0993 13.0761 12.1782 12.9082 C 12.257 12.7403 12.2892 12.5542 12.2714 12.3696 L 12.3663 12.2035 C 12.6774 11.8819 12.9885 11.5629 13.2863 11.2518 C 13.4946 11.2175 13.7029 11.1833 13.9243 11.1516 C 13.9059 11.2843 13.8668 11.4133 13.8083 11.5339 C 13.7289 11.6866 13.6917 11.8578 13.7005 12.0297 C 13.7093 12.2016 13.7638 12.3681 13.8584 12.5119 C 14.1695 13.1103 14.528 13.6824 14.876 14.2518 C 14.9366 14.3467 15.0869 14.3889 15.2002 14.4548 C 15.2002 14.3335 15.2292 14.1912 15.1739 14.091 C 14.9103 13.5928 14.6018 13.1182 14.325 12.6226 C 14.1616 12.359 13.9612 12.0769 14.093 11.729 C 14.2248 11.381 14.4094 10.9724 14.5834 10.598 C 14.905 9.92579 14.9129 9.9258 14.3435 9.42228 L 14.2697 9.35901 C 14.1789 9.25874 14.0558 9.19353 13.9219 9.17474 C 13.7879 9.15595 13.6516 9.18478 13.5368 9.2562 C 13.2969 9.38274 13.0385 9.49873 12.7907 9.62527 C 12.662 9.70399 12.5092 9.73348 12.3604 9.70828 C 12.2117 9.68308 12.077 9.60491 11.9814 9.48819 C 11.8602 9.38274 11.7442 9.27202 11.6308 9.15866 C 11.4225 8.96885 11.4542 8.78959 11.6519 8.61824 C 12.2029 8.16217 12.7512 7.70611 13.2995 7.25795 C 13.3925 7.16789 13.5153 7.11517 13.6446 7.10983 C 13.7739 7.10448 13.9007 7.14688 14.0008 7.22895 C 14.7037 7.6982 15.4067 8.16041 16.1097 8.6156 C 16.2433 8.69305 16.3559 8.80201 16.4377 8.93297 C 16.5195 9.06393 16.568 9.21291 16.579 9.36692 C 16.6871 10.3001 16.7556 11.236 16.9217 12.1587 C 16.9975 12.5661 16.9872 12.9848 16.8914 13.388 C 16.7956 13.7912 16.6164 14.1699 16.3654 14.4996 C 16.2776 14.6463 16.1779 14.7856 16.0675 14.9161 C 15.8883 15.1007 15.9489 15.243 16.1176 15.3933 C 16.7793 15.9917 17.4357 16.5954 18.0842 17.1912 C 19.0465 18.077 20.006 18.9469 20.9841 19.8274 C 21.0658 19.9012 21.1581 19.9697 21.2477 20.0383 C 21.1775 19.8809 21.0741 19.7407 20.9445 19.627 C 19.6264 18.3089 18.2846 17.0251 16.9559 15.7228 C 16.7661 15.5436 16.463 15.359 16.4287 15.1481 C 16.3944 14.9372 16.6528 14.6921 16.7767 14.4653 C 16.9006 14.2386 17.006 14.0146 17.1273 13.7799 C 17.1642 13.7114 17.2169 13.6428 17.2723 13.5559 C 19.8083 15.8441 23.072 18.6806 25.608 20.961 L 20.9814 21.591 Z" stroke-linecap="round" />
</g>
<g transform="matrix(1 0 0 1 536.46 536.61)"  >
<path style="stroke: none; stroke-width: 1; stroke-dasharray: none; stroke-linecap: butt; stroke-dashoffset: 0; stroke-linejoin: miter; stroke-miterlimit: 4; fill: rgb(255,255,255); fill-rule: evenodd; opacity: 1;" vector-effect="non-scaling-stroke"  transform=" translate(-10.3, -11.84)" d="M 9.80655 12.3676 C 10.1308 12.6813 10.4551 12.995 10.7767 13.3008 C 11.0166 13.5249 11.1431 13.5117 11.3593 13.2718 C 11.5016 13.1163 11.6466 12.9529 11.8022 12.8131 C 11.8462 12.7823 11.8822 12.7412 11.907 12.6935 C 11.9318 12.6458 11.9448 12.5928 11.9448 12.539 C 11.9448 12.4852 11.9318 12.4322 11.907 12.3844 C 11.8822 12.3367 11.8462 12.2957 11.8022 12.2648 C 11.1405 11.611 10.4841 10.9704 9.79337 10.3351 C 9.76013 10.297 9.71882 10.2669 9.67246 10.2468 C 9.6261 10.2267 9.57585 10.2172 9.52536 10.219 C 9.47486 10.2207 9.4254 10.2337 9.38055 10.257 C 9.33571 10.2803 9.29662 10.3133 9.26612 10.3535 C 9.10795 10.517 8.95505 10.6831 8.80215 10.8412 C 8.75642 10.8742 8.71918 10.9176 8.6935 10.9678 C 8.66781 11.018 8.65442 11.0735 8.65442 11.1299 C 8.65442 11.1863 8.66781 11.2419 8.6935 11.292 C 8.71918 11.3422 8.75642 11.3856 8.80215 11.4186 C 9.13431 11.727 9.46384 12.0486 9.79073 12.3676" stroke-linecap="round" />
</g>
<g transform="matrix(1 0 0 1 537.45 535.1)"  >
<path style="stroke: none; stroke-width: 1; stroke-dasharray: none; stroke-linecap: butt; stroke-dashoffset: 0; stroke-linejoin: miter; stroke-miterlimit: 4; fill: rgb(255,255,255); fill-rule: evenodd; opacity: 1;" vector-effect="non-scaling-stroke"  transform=" translate(-11.28, -10.33)" d="M 10.7846 10.8377 C 11.1141 11.1514 11.4568 11.4625 11.7758 11.7894 C 11.8081 11.8356 11.8511 11.8734 11.9011 11.8994 C 11.9512 11.9255 12.0067 11.9391 12.0631 11.9391 C 12.1195 11.9391 12.1751 11.9255 12.2251 11.8994 C 12.2752 11.8734 12.3182 11.8356 12.3505 11.7894 C 12.5034 11.6391 12.651 11.4783 12.796 11.3307 C 12.8376 11.2958 12.871 11.2522 12.8939 11.2031 C 12.9169 11.1539 12.9287 11.1003 12.9287 11.046 C 12.9287 10.9917 12.9169 10.9381 12.8939 10.8889 C 12.871 10.8397 12.8376 10.7962 12.796 10.7613 C 12.1457 10.118 11.4858 9.48008 10.8162 8.84739 C 10.7788 8.80405 10.7318 8.76997 10.679 8.74778 C 10.6262 8.72559 10.569 8.7159 10.5118 8.71947 C 10.4546 8.72305 10.3991 8.73978 10.3494 8.76837 C 10.2998 8.79696 10.2575 8.83663 10.2257 8.88429 C 10.0728 9.04774 9.91726 9.20327 9.76172 9.36672 C 9.72169 9.39862 9.68964 9.43942 9.66812 9.48586 C 9.64659 9.53231 9.63619 9.58313 9.63772 9.6343 C 9.63926 9.68547 9.65269 9.73557 9.67696 9.78064 C 9.70123 9.82571 9.73567 9.86451 9.77754 9.89396 C 10.115 10.205 10.4445 10.524 10.774 10.8483" stroke-linecap="round" />
</g>
<g transform="matrix(1 0 0 1 535.39 538.05)"  >
<path style="stroke: none; stroke-width: 1; stroke-dasharray: none; stroke-linecap: butt; stroke-dashoffset: 0; stroke-linejoin: miter; stroke-miterlimit: 4; fill: rgb(255,255,255); fill-rule: evenodd; opacity: 1;" vector-effect="non-scaling-stroke"  transform=" translate(-9.23, -13.28)" d="M 9.8408 12.8728 L 9.74589 12.7568 C 9.48227 12.4932 9.21865 12.2428 8.95503 11.995 C 8.63868 11.6945 8.49106 11.6971 8.19053 12.0187 C 8.07717 12.1347 7.97173 12.2612 7.85837 12.3693 C 7.81107 12.4015 7.77235 12.4447 7.74558 12.4952 C 7.71882 12.5458 7.70483 12.6021 7.70483 12.6593 C 7.70483 12.7165 7.71882 12.7728 7.74558 12.8234 C 7.77235 12.8739 7.81107 12.9171 7.85837 12.9493 C 8.44097 13.524 9.03412 14.0908 9.63517 14.6655 C 9.66559 14.7025 9.70382 14.7322 9.74713 14.7527 C 9.79043 14.7731 9.83772 14.7838 9.88561 14.7838 C 9.9335 14.7838 9.9808 14.7731 10.0241 14.7527 C 10.0674 14.7322 10.1056 14.7025 10.1361 14.6655 C 10.3074 14.4941 10.4603 14.328 10.6238 14.1619 C 10.8373 13.9537 10.7819 13.7692 10.5921 13.5846 C 10.4023 13.4001 10.2389 13.2525 10.0649 13.0785 L 9.8408 12.8728 Z" stroke-linecap="round" />
</g>
<g transform="matrix(1 0 0 1 539.61 534.96)"  >
<path style="stroke: none; stroke-width: 1; stroke-dasharray: none; stroke-linecap: butt; stroke-dashoffset: 0; stroke-linejoin: miter; stroke-miterlimit: 4; fill: rgb(255,255,255); fill-rule: evenodd; opacity: 1;" vector-effect="non-scaling-stroke"  transform=" translate(-13.45, -10.2)" d="M 12.5587 10.0782 C 12.8223 10.3418 13.0595 10.5606 13.2994 10.7847 C 13.3267 10.8212 13.3621 10.8509 13.4028 10.8713 C 13.4435 10.8918 13.4885 10.9024 13.5341 10.9024 C 13.5796 10.9024 13.6246 10.8918 13.6653 10.8713 C 13.706 10.8509 13.7414 10.8212 13.7687 10.7847 C 13.9513 10.6049 14.1205 10.4119 14.2748 10.2073 C 14.3125 10.1456 14.3343 10.0755 14.3385 10.0034 C 14.3426 9.93117 14.3289 9.85908 14.2986 9.79344 C 14.1878 9.62473 14.056 9.39274 13.7713 9.52982 C 13.3785 9.71699 12.9804 9.90417 12.5613 10.0992" stroke-linecap="round" />
</g>
</svg>