<svg width="24" height="24" viewBox="0 0 24 24" fill="none" xmlns="http://www.w3.org/2000/svg">
<g clip-path="url(#clip0_12823_120473)">
<path d="M11.9997 5.54269C13.53 5.54269 14.7712 4.30191 14.7712 2.77153C14.7712 1.24116 13.5301 0 11.9997 0C10.4693 0 9.22852 1.24111 9.22852 2.77153C9.22852 4.30195 10.4693 5.54269 11.9997 5.54269Z" fill="#042CB0"/>
<path d="M12.0003 10.6961C13.904 10.6961 15.8537 10.0369 15.5495 8.21181C15.4256 7.47063 14.8127 6.43164 14.3471 5.96646C14.2868 5.90655 14.0139 5.89089 13.9398 5.93683C13.3748 6.2853 12.7115 6.48846 12.0003 6.48846C11.2894 6.48846 10.6261 6.2853 10.0612 5.93683C9.98699 5.89089 9.71403 5.90655 9.6538 5.96646C9.18861 6.43164 8.57502 7.47063 8.45146 8.21181C8.14728 10.0369 10.097 10.6961 12.0003 10.6961Z" fill="#042CB0"/>
<path d="M4.48409 18.8474C6.01447 18.8474 7.25563 17.6066 7.25563 16.0762C7.25563 14.5455 6.01452 13.3047 4.48409 13.3047C2.95367 13.3047 1.71289 14.5455 1.71289 16.0762C1.71294 17.6066 2.95372 18.8474 4.48409 18.8474Z" fill="#042CB0"/>
<path d="M6.83141 19.2714C6.77118 19.2108 6.49827 19.1959 6.42407 19.2415C5.8588 19.5899 5.1959 19.7928 4.48461 19.7928C3.77338 19.7928 3.11043 19.59 2.54549 19.2415C2.47129 19.1959 2.198 19.2108 2.13782 19.2714C1.67258 19.7363 1.05936 20.7753 0.935849 21.5164C0.631583 23.3416 2.58125 24.0004 4.48461 24.0004C6.38835 24.0004 8.33802 23.3416 8.03371 21.5164C7.90991 20.7753 7.29665 19.7363 6.83141 19.2714Z" fill="#042CB0"/>
<path d="M19.5137 18.8474C21.0441 18.8474 22.2849 17.6066 22.2849 16.0762C22.2849 14.5455 21.0441 13.3047 19.5137 13.3047C17.9833 13.3047 16.7422 14.5455 16.7422 16.0762C16.7422 17.6066 17.9833 18.8474 19.5137 18.8474Z" fill="#042CB0"/>
<path d="M23.0629 21.5164C22.9393 20.7753 22.3261 19.7363 21.8609 19.2714C21.8007 19.2108 21.5274 19.1959 21.4532 19.2415C20.8883 19.5899 20.2254 19.7928 19.5141 19.7928C18.8029 19.7928 18.1399 19.59 17.5746 19.2415C17.5004 19.1959 17.2275 19.2108 17.1673 19.2714C16.7021 19.7363 16.089 20.7753 15.9651 21.5164C15.6609 23.3416 17.6104 24.0004 19.5141 24.0004C21.4175 24.0004 23.3671 23.3416 23.0629 21.5164Z" fill="#042CB0"/>
<path d="M15.7604 17.3903L12.4563 15.4829V11.668C12.4563 11.4155 12.2518 11.2109 11.9993 11.2109C11.7471 11.2109 11.5426 11.4155 11.5426 11.668V15.4829L8.23845 17.3903C8.02001 17.5166 7.94478 17.7964 8.07101 18.0148C8.19729 18.2333 8.477 18.3081 8.69548 18.1822L11.9992 16.2744L15.3034 18.1819C15.5218 18.3081 15.8013 18.2333 15.9275 18.0148C16.0538 17.7964 15.9789 17.5166 15.7604 17.3903Z" fill="#042CB0"/>
</g>
<defs>
<clipPath id="clip0_12823_120473">
<rect width="24" height="24" fill="white"/>
</clipPath>
</defs>
</svg>
