<svg width="24" height="24" viewBox="0 0 24 24" fill="none" xmlns="http://www.w3.org/2000/svg">
<mask id="mask0_5304_130471" style="mask-type:alpha" maskUnits="userSpaceOnUse" x="0" y="0" width="24" height="24">
<rect width="24" height="24" fill="#D9D9D9"/>
</mask>
<g mask="url(#mask0_5304_130471)">
<path d="M11.9486 20.8575C11.6845 20.8575 11.4582 20.7681 11.2697 20.5893C11.0812 20.4104 10.987 20.1826 10.987 19.9056C10.987 19.7826 11.0136 19.6505 11.0668 19.5095C11.12 19.3684 11.1998 19.2447 11.3063 19.1383L15.4601 14.9845L14.8216 14.346L10.6832 18.4999C10.5768 18.6063 10.4588 18.6861 10.3293 18.7393C10.1998 18.7925 10.0652 18.8191 9.92548 18.8191C9.65496 18.8191 9.42707 18.7265 9.24183 18.5412C9.05656 18.3559 8.96393 18.1281 8.96393 17.8576C8.96393 17.6973 8.99213 17.5534 9.04855 17.4258C9.10497 17.2982 9.17804 17.1896 9.26778 17.0999L13.4216 12.946L12.7985 12.323L8.64473 16.4614C8.54473 16.5614 8.42837 16.6396 8.29567 16.696C8.16297 16.7524 8.02163 16.7806 7.87163 16.7806C7.61138 16.7806 7.38606 16.6854 7.19567 16.4951C7.00529 16.3047 6.9101 16.0794 6.9101 15.8191C6.9101 15.6794 6.9367 15.5447 6.9899 15.4153C7.04312 15.2858 7.12293 15.1678 7.22933 15.0614L11.2678 11.023L10.6293 10.3999L6.60625 14.4383C6.51652 14.5281 6.4053 14.6011 6.2726 14.6576C6.1399 14.714 5.99342 14.7422 5.83317 14.7422C5.55626 14.7422 5.32677 14.6512 5.14472 14.4691C4.96267 14.2871 4.87165 14.0576 4.87165 13.7806C4.87165 13.6409 4.89825 13.5063 4.95145 13.3768C5.00465 13.2473 5.08446 13.1294 5.19088 13.0229L10.4486 7.76529L13.4004 10.7325C13.5837 10.9159 13.7956 11.0537 14.036 11.146C14.2764 11.2383 14.5184 11.2844 14.762 11.2844C15.2696 11.2844 15.7042 11.1114 16.0658 10.7652C16.4273 10.4191 16.6081 9.97676 16.6081 9.43831C16.6081 9.20498 16.5648 8.96651 16.4783 8.72291C16.3917 8.47933 16.2466 8.25561 16.0427 8.05176L12.4812 4.49029L12.9717 3.99989C13.2229 3.75885 13.514 3.57231 13.8447 3.44026C14.1755 3.30821 14.5063 3.24219 14.837 3.24219C15.2191 3.24219 15.5806 3.30821 15.9216 3.44026C16.2627 3.57231 16.5639 3.7691 16.8255 4.03064L21.0793 8.29989C21.3344 8.555 21.528 8.84987 21.6601 9.18449C21.7921 9.5191 21.8582 9.89923 21.8582 10.3249C21.8582 10.6582 21.7896 10.9845 21.6524 11.3037C21.5152 11.6229 21.3242 11.905 21.0793 12.1498L12.7063 20.5383C12.5857 20.6588 12.4643 20.7422 12.3418 20.7883C12.2194 20.8345 12.0883 20.8575 11.9486 20.8575ZM3.86397 13.0883L3.02165 12.246C2.73832 11.9729 2.52325 11.6466 2.37645 11.2672C2.22965 10.8877 2.15625 10.5043 2.15625 10.1172C2.15625 9.70306 2.22997 9.32389 2.3774 8.97966C2.52483 8.63543 2.71073 8.35114 2.9351 8.12679L7.01585 4.03064C7.25688 3.78962 7.53508 3.59795 7.85045 3.45564C8.16583 3.31334 8.48891 3.24219 8.81968 3.24219C9.21199 3.24219 9.56552 3.30309 9.88025 3.42489C10.195 3.54667 10.4934 3.74859 10.7754 4.03064L15.4196 8.67484C15.5196 8.77484 15.5978 8.89119 15.6543 9.02389C15.7107 9.15657 15.7389 9.28958 15.7389 9.42291C15.7389 9.68958 15.6453 9.9181 15.4581 10.1085C15.2709 10.2989 15.044 10.3941 14.7773 10.3941C14.6273 10.3941 14.4927 10.37 14.3735 10.322C14.2542 10.2739 14.1363 10.1915 14.0196 10.0748L10.4332 6.51914L3.86397 13.0883Z" fill="#042CB0"/>
</g>
</svg>
