<svg width="24" height="24" viewBox="0 0 24 24" fill="none" xmlns="http://www.w3.org/2000/svg">
<g clip-path="url(#clip0_5304_130538)">
<path d="M23.229 0.28125H10.4709C10.0464 0.28125 9.70312 0.62562 9.70312 1.04944V6.46776L10.2582 5.81874C10.5218 5.51017 10.8693 5.31989 11.2387 5.24039V1.81733H22.4612V11.8479H11.2387V10.1688L10.893 10.5731C10.5908 10.9256 10.1643 11.1444 9.70312 11.1875V12.6158C9.70312 13.0396 10.0464 13.3836 10.4709 13.3836H14.6144L12.5093 22.9406C12.415 23.3692 12.6858 23.7931 13.1148 23.8876C13.5398 23.981 13.9672 23.711 14.0606 23.2829L16.2409 13.3836H17.5083L19.6885 23.2829C19.7702 23.6535 20.099 23.9064 20.4635 23.906C20.5201 23.906 20.578 23.9002 20.6353 23.8876C21.0642 23.7931 21.335 23.3693 21.2399 22.9406L19.135 13.3836H23.2291C23.6531 13.3836 23.9968 13.0396 23.9968 12.6158V1.04944C23.9968 0.62562 23.6531 0.28125 23.229 0.28125Z" fill="#042CB0"/>
<path d="M17.1323 4.76606C17.0718 4.61354 16.9002 4.53865 16.7478 4.59903L12.2245 6.19558C11.8094 5.87416 11.2104 5.93158 10.8642 6.33422L9.42893 8.01036L8.15625 6.91943C8.16464 7.00952 8.18371 7.09706 8.18371 7.1895V9.55777L8.89178 10.1645C9.31197 10.5243 9.94053 10.4687 10.2919 10.0567L12.0006 8.05857L13.3786 7.25237L17.0053 5.13049C17.1307 5.0582 17.1863 4.90372 17.1323 4.76606Z" fill="#042CB0"/>
<path d="M5.39107 5.1875H4.53868C3.88603 5.1875 3.31215 5.5047 2.94738 5.9882L0.330906 8.39713C-0.0767774 8.76028 -0.113755 9.38934 0.253371 9.79947L2.38806 12.1822C2.75199 12.5896 3.38198 12.6257 3.78962 12.2595C4.19833 11.8932 4.23286 11.2658 3.86661 10.8575L2.39522 9.21446L4.48517 7.3443L3.26796 8.99804L4.45864 10.3274C5.11659 11.0626 5.05455 12.1923 4.31966 12.8507C3.81791 13.3006 3.13319 13.4061 2.53959 13.1986C2.53959 13.1986 2.54881 17.7918 2.54881 22.7109C2.54881 23.3688 3.08209 23.9021 3.74008 23.9021C4.39739 23.9021 4.93135 23.3688 4.93135 22.7109C4.93135 17.7934 4.93135 20.5996 4.93135 15.6111H5.72598C5.72598 20.5959 5.72598 17.7918 5.72598 22.7109C5.72598 23.0544 5.6302 23.3724 5.47748 23.654C5.67738 23.8077 5.92612 23.9021 6.19722 23.9021C6.85555 23.9021 7.38883 23.3688 7.38883 22.7109C7.38883 17.7934 7.39035 19.8548 7.39035 7.18619C7.39045 6.08231 6.49559 5.1875 5.39107 5.1875Z" fill="#042CB0"/>
<path d="M3.90178 4.47622C4.22031 4.64179 4.57792 4.74453 4.96206 4.74453C5.34718 4.74453 5.7048 4.64179 6.02425 4.47593C6.76988 4.08963 7.28384 3.32056 7.28384 2.42295C7.28384 1.14071 6.24435 0.101562 4.96201 0.101562C3.67987 0.101562 2.64062 1.14071 2.64062 2.42295C2.64067 3.32105 3.15517 4.09041 3.90178 4.47622Z" fill="#042CB0"/>
</g>
<defs>
<clipPath id="clip0_5304_130538">
<rect width="24" height="24" fill="white"/>
</clipPath>
</defs>
</svg>
